<svg xmlns="http://www.w3.org/2000/svg" viewBox="0 0 105.77 45.5"><title>Asset 3</title><g id="Layer_2" data-name="Layer 2"><g id="Layer_1-2" data-name="Layer 1"><path d="M32.08,38.11H16L13.43,45.5H0L17.87,0H30.13L48.39,45.5H34.59ZM24,14.2,19,28.3H29Z" style="fill:#fff"/><path d="M81.53,21.48a12,12,0,0,1,7,11.07c0,7.37-6.36,13-14.76,13h-21V0H73.33c8.07,0,14,4.92,14,11.65a11.58,11.58,0,0,1-5.75,9.83Zm-6.15-7.75c0-2.36-1.62-4-4.24-4H64.81v7.92h6.33c2.62,0,4.24-1.6,4.24-4Zm.72,17.33c0-2.42-1.77-4.12-4.49-4.12H64.81v8.27h6.81C74.33,35.21,76.11,33.51,76.11,31.05Z" style="fill:#fff"/><path d="M94,34.27h11.73V45.5H94Z" style="fill:#fff"/></g></g></svg>