<svg xmlns="http://www.w3.org/2000/svg" viewBox="0 0 602.55 45.58" id="logo-full"><g><g><path d="M32.08,38.11H16L13.43,45.5H0L17.87,0H30.13L48.39,45.5H34.59ZM24,14.2,19,28.3H29Z" style="fill:#fff"/><path d="M97.77,45.5,94.22,19.3,82.15,45.58h-3.7L66.38,19.31,62.88,45.5H50.18L57.06,0H69.58L80.29,24.76,91.08,0H103.6l6.82,45.5Z" style="fill:#fff"/><path d="M144.27,38.11H128.14l-2.52,7.39H112.19L130.06,0h12.25l18.27,45.5h-13.8ZM136.18,14.2l-5,14.1h10Z" style="fill:#fff"/><path d="M205.55,0V45.5H195.18L177.11,20.81V45.5H165V0h11L193.4,23.87V0Z" style="fill:#fff"/><path d="M256.26,22.71c0,13.28-9.75,22.79-23.49,22.79H214.36V0h18.42C246.55,0,256.26,9.42,256.26,22.71Zm-12.85,0c0-6.75-4.49-11.23-11.23-11.23H227V34h5.23C238.92,34,243.41,29.43,243.41,22.71Z" style="fill:#fff"/><path d="M288.24,38.11H272.12L269.6,45.5H256.16L274,0h12.25l18.27,45.5h-13.8ZM280.15,14.2l-5,14.1h10Z" style="fill:#fff"/><path d="M350.17,21.48a12,12,0,0,1,7,11.07c0,7.37-6.36,13-14.76,13h-21V0H342c8.07,0,14,4.92,14,11.65a11.58,11.58,0,0,1-5.75,9.83Zm-5.42,9.58c0-2.42-1.77-4.12-4.49-4.12h-6.81v8.27h6.81C343,35.21,344.75,33.51,344.75,31.05ZM344,13.72c0-2.36-1.62-4-4.24-4h-6.33v7.92h6.33c2.62,0,4.24-1.6,4.24-4Z" style="fill:#fff"/><path d="M392.62,34V45.5h-28.9V0h12.7V34Z" style="fill:#fff"/><path d="M425.91,38.11H409.78l-2.52,7.39H393.83L411.7,0H424l18.27,45.5h-13.8ZM417.82,14.2l-5,14.1h10Z" style="fill:#fff"/><path d="M472.19,45.5,459.14,25.4V45.5H446.6V0h12.54V19.18L471.16,0H485.7L471.13,22,487.06,45.5Z" style="fill:#fff"/><path d="M519.5,34V45.5H490.6V0h12.7V34Z" style="fill:#fff"/><path d="M554.78,34.63V45.5H525.12V0h29.12V10.84H537.6v6.7h14.94V27.82H537.6v6.81Z" style="fill:#fff"/><path d="M586.66,27.71V45.5H573.89V27.67L558.11,0H572l8.32,16.44L588.65,0h13.9Z" style="fill:#fff"/></g></g></svg>