<svg xmlns="http://www.w3.org/2000/svg" viewBox="0 0 282.16 195.46"><title>Asset 2</title><g id="Layer_2" data-name="Layer 2"><g id="Layer_1-2" data-name="Layer 1"><path d="M4.36,194.26a221,221,0,0,1,18.49-71.93A218,218,0,0,1,65.44,59.39,168.9,168.9,0,0,1,79.35,46.33C84.05,42.48,89.49,39.8,94,35.87s11.1-6.7,16.5-9.46q8.49-4.33,17.29-8C151,8.67,175.7,2.33,200.82.83c24.61-1.47,49.6,1.87,72.46,11.31q4.25,1.75,8.38,3.77" style="fill:none;stroke:#139699;stroke-linecap:round;stroke-miterlimit:10;stroke-dasharray:5,5,5,5,5,5"/><path d="M9.83,187.93a.5.5,0,0,0-.7.08L4.4,194,.95,187.21a.5.5,0,0,0-.89.45l3.81,7.53a.5.5,0,0,0,.84.08l5.21-6.64a.5.5,0,0,0-.08-.7Z" style="fill:#139699"/></g></g></svg>