<?xml version="1.0" encoding="utf-8"?>
<!-- Generator: Adobe Illustrator 21.0.2, SVG Export Plug-In . SVG Version: 6.00 Build 0)  -->
<svg version="1.1" id="jelly-fish-purp__sm" xmlns="http://www.w3.org/2000/svg" xmlns:xlink="http://www.w3.org/1999/xlink"
	 x="0px" y="0px" viewBox="0 0 75 79" style="enable-background:new 0 0 75 79;" xml:space="preserve">
<style type="text/css">
	.st0{opacity:0.8;fill:#4121A5;enable-background:new    ;}
	.st1{opacity:0.47;}
	.st2{fill:#7750E2;}
	.st3{fill:#3C1DAA;}
	.st4{opacity:0.5;fill:#462399;enable-background:new    ;}
	.st5{fill:#4121A5;}
	.st6{fill:#007384;}
	.st7{opacity:0.7;fill:#27B793;enable-background:new    ;}
	.st8{opacity:0.6;fill:#27B793;enable-background:new    ;}
	.st9{fill:#B17DB0;}
	.st10{opacity:0.9;fill:#4121A5;enable-background:new    ;}
	.st11{fill:#27B793;}
	.st12{opacity:0.6;fill:#462399;enable-background:new    ;}
	.st13{opacity:0.7;fill:#370DB7;enable-background:new    ;}
	.st14{opacity:0.7;fill:#462399;enable-background:new    ;}
	.st15{opacity:0.3;fill:#462399;enable-background:new    ;}
	.st16{fill:#462399;}
	.st17{opacity:0.1;fill:#462399;enable-background:new    ;}
	.st18{opacity:0.4;fill:#462399;enable-background:new    ;}
	.st19{opacity:0.2;fill:#462399;enable-background:new    ;}
</style>
<g>
	<g>
		<g>
			<path class="st0" d="M29.8,10.4c1,0.7,1.5,1.9,1.4,3.1c-0.3,1.8-2.7,19.1,0.2,22.6s5.3,7.3,10.7,6.2s13.8-14.5,18.3-10.8
				S71.9,43.9,64.9,48c0,0-14.6,0.3-14.9,9.1s6.4,4.5,4.6,1c0,0,1.1,1.9,0.4,2.9s-3.6,3.8-5.5-1c0,0-1.5-6.6,4-9.4
				c0,0,5.6-2.9,10-3.3c0,0,5.1-0.9,3.5-5.6c-1.4-4.3-4.2-7.9-8-10.3c0,0-0.9-1.6-9.8,6.7c0,0-7.1,7.7-12.9,3.7c0,0-6-4.3-7-10.2
				c0,0,1.1-18.1,1.1-18.9C30.3,12,30.1,11.2,29.8,10.4z"/>
			<g class="st1">
				<path class="st2" d="M14.9,18.8c-0.5,0.6,0.1,5.2,0.4,7.6s1.3,6.8,0.6,7.5s-0.9,2.1-0.4,2.3s-0.2,0.7,0.5,0.2s1.1,0.9,1.3-0.5
					s0-2.3,0.3-2.4s-1.4-2.5,0.4-0.1s2.8,6.4,3.3,8.7s-0.1,3.7,0.7,3.2s1,0.1,0.7-1.5s-0.4,0.2-0.5-2.1s0.1-3.9,0.3-4.1
					s0.2-0.3,0.5-0.3s-0.4-1,0.4,0s0.1-0.9,1.2,1.6s2,5.5,1.6,2.9s-0.8-4.1-0.8-4.8s0.1-1.6,0.6-2s0.2-1.4,0.7-0.8s-0.8-0.5,0.5,0.3
					s-0.3,3.8,1.3,0.9s2.4-4.2,2.7-4.2s2.1,7.8,2.5,8.3s0.4,1.1,1.1,0.8s0.4,0,0.4-1.2S35,39.8,35,37.2s-0.5-3.2,0.1-3.3
					s0.6,0.4,1-0.3c0.4-0.4,0.5-0.9,0.3-1.4c-0.1-0.7-0.1-0.3-0.6-1.5s-0.6-0.1-1.2-2.6s-0.8-1.9-1-4.1s1.2-0.8-0.7-4
					s-1.9,2.3-4.3-6.1S14.9,18.8,14.9,18.8z"/>
				<path class="st3" d="M11.7,24.3c-0.8,1.4-0.9,3.1-0.4,4.6c1,2.2,1.4,1.2,1.3,2.5s0.3,0.9-0.1,1.9s-1.1,0.9-0.9,1.6
					s-0.6-0.2,0.1,0.7s0.2,1,0.9,0.9s1.5-0.7,1.4-1.4c0.1-0.9,0.4-1.8,0.7-2.7c0.3-1.3,0-2.4,0.9-2.5c0.6-0.1,1.2-0.3,1.7-0.6
					c0.5-0.2,0.9-0.3,0.8-1.3s0.2-9.8-1.1-10.4S10.8,16.2,11.7,24.3"/>
				<path class="st2" d="M12.4,21.8c-0.1,0.4-0.5,0.1-0.2,2.6c0.1,1.1,0.3,2.3,0.5,3.4c0.3,1.3,0.8,1.9,0.8,3.2s0.2,1.1-0.1,1.7
					s-0.4,0.5-0.3,1s0.2,0.7,0.6,0.5s0.3-2.4,0.4-2.6c0.1-0.7,0.2-1.3,0.3-2c0,0-0.4-0.9,0.3-0.2s0.4,0.6,0.8,1.2s-0.2,0.9,0.5,1.1
					s0.9-0.5,0.9-0.8s-0.4-1.2,0.4-0.4s0.4,0.8,1.1,2.1s0,1.1,1.3,1.3s1.9,1.7,2.1,3.3s0.2,2.5,0.6,1.5c0.2-0.7,0.4-1.5,0.4-2.3
					c0,0-0.1-1.2,0.8-0.8s1.2,0.6,1.3,0.5c0.5-0.8,0.7-1.7,0.7-2.6c0-1.7,3.3,5.1,0-2.1l-3.6-7.8c-0.1-0.2,0.3,2.4-0.3-1
					S15.9,6.8,12.4,21.8z"/>
				<path class="st3" d="M23.5,16.1c-0.8,1.4-1.3,3-1.4,4.6c-0.2,2.7-1.1-0.7-0.2,2.7s2.1,4.3,2.9,4.2s0.7-2.8,2.1,1.5
					s0.6,3.4,1.6,4.9s0.5,0.7,1.6,1.4s2.9,2.1,1.2-1s-2.4-2.6-2-3.7c0.2-0.5,0.3-1,0.3-1.6c0-0.2,1.2-0.4,1.2-0.5s-0.2-1.4,0.7,0.3
					s0.7,2,1.5,3.6s1.2,2.7,1.2,1.7s-2-3-0.3-2.1s2.1,2.2,1.8,0.8s0.3,0.1-0.3-1.4s-0.8-2.3-1.2-3.6s-0.6,0.1-1.3-3.9
					S28.8,13.7,23.5,16.1"/>
				<path class="st4" d="M21,23.7c-0.3,0.1-2.4-4.3-1.2,2.2s1.8,6,1.6,7.6s-0.7,2-0.2,2.7s0.6,1.3,0.9-0.5s-0.1-3.9,0.3-5
					s0-2.9,0.9-1.5s2.2,6.2,1.2,1.6s-0.4-0.2-1.5-6.4s-1.2-6.8-1.2-6.8S21.6,20.3,21,23.7c-0.7,3.5,6.6,2.6,6.6,3.9
					s-0.9,3.2-0.7,4.3s0.8,2.7,1.4,0.5s0.9-5,1.2-4.3c0.3,0.6,0.7,1.2,1.2,1.7c0.4,0.6,1.3,0.6,1-0.2s-0.2-2.2-0.6-3.1
					s0.6-2.6-0.6-5.7s-1.9-4.8-2.5-5.1s0.4-0.5-1.8-0.6s-3.5-0.4-3.7,0.3s-3.9,0.2-3.9,0.2"/>
				<path class="st4" d="M13.5,24.8c0,0,0.1,1,0,3.6s-1.4,3-0.4,3.3s2.1-0.1,2.1,1.3s-0.4,2.5,0.3,2.4s0.7-0.9,0.4-3.2
					s-1.1-4.1-0.6-5.6c0.4-1.1,0.7-2.3,1-3.5c0-1.1-0.1-2.3-0.5-3.4C15.4,19.4,12.1,17.5,13.5,24.8"/>
				<path class="st2" d="M19.7,27.4c0.8,0.2-0.3,2.9,0.3,4.2s0.3,2.6,0.6,1.3c0.1-1.4,0.1-2.8-0.1-4.1c-0.1-1.7,0-3.4,0.1-5.1
					c0.1-0.4,0.2-1.2-0.1-1.4S19.7,18,19.5,22S19.1,27.2,19.7,27.4z"/>
			</g>
			<path class="st5" d="M26.3,18.6c0,0,2.4-0.4,3,4.7s2.1,6.7,0.5,14s-3.5,15-2.5,20.5s1.2,13.4,2.8,17.3l1.6,3.9
				c0,0-3.1-5.5-3.4-8.5s-1.8-12-1.8-12s-0.1-10.3,0.6-11.6s0.6-7.5,1.6-10.5s0.3-7,0.1-8.5S25,18.6,26.3,18.6"/>
			<path class="st6" d="M19.1,18.4c0,0-0.2,10,2.1,17.1s3.5,23.6,2.6,27.3c-0.6,1.9-0.8,3.8-0.7,5.7c0,0,0.1-3.6,0.4-6.6l0.4-3
				l-0.4-7.7l-1.6-11.4C21.8,39.9,16.1,18.9,19.1,18.4"/>
			<path class="st6" d="M19.6,19.5c0.3,5.1,1.2,10.1,2.7,15c2.3,7.1,3.3,13.8,2.7,16.4l-0.6,2.6c0,0,2.2-3.4,0.4-11.1l-1.9-7.6
				c0,0-1.9-10.6-2.4-15.3S19.6,19.5,19.6,19.5z"/>
			<path class="st6" d="M24.4,18.7c0,0,3.1,7,3.5,13.1s0.2,19.4,1.5,21.9l1.3,2.4c0,0-2.8-16.8-3.1-19.1s-0.5-7.3-0.6-8.8
				S22.2,18.1,24.4,18.7z"/>
			<path class="st7" d="M28.6,18.4c1.4,2.4,2.1,5.2,1.9,8.1c-0.2,4.9-0.9,13.6,0.3,18.7s4.8,8.2,7.4,8.1c1.5-0.1,3,0.1,4.4,0.7
				c0.6,0.3,1,0.9,1.2,1.6l0.5,2c0,0-0.5-3.4-2.3-3.4l0,0c-1.7-0.6-3.5-0.9-5.4-0.9l0,0c0,0-2.8-0.5-5.3-5.4l0,0
				c-0.9-2.9-1.5-6-1.7-9.1c-0.3-5.3,0.5-13.7-0.1-16.1c-0.4-1.4-0.8-2.8-1.4-4.2L28.6,18.4z"/>
			<path class="st8" d="M19.8,22.6c0,0-0.8,7,0.9,10.9s4.2,13.2,3.6,16.6c-0.3,1.6-0.8,5-1.3,8.5l-0.1,0.9c-0.5,3.8-0.8,7.5-0.5,8.7
				c0.6,2.3,3.4,4.6,3.4,4.6s-3.4-3.3-3.7-4.1s0.2-3.7,0.2-3.7l0.2-3.4l0.4-5.2c0,0,0.5-3.4,0.9-6.6c0.2-1.8,0.2-3.7-0.3-5.5
				c0,0-1.8-6.2-1.9-7.4c-0.4-1.3-1.1-2.6-1.9-3.7L19,25.3l0.2-5.7C19.3,19.5,20.2,16.2,19.8,22.6z"/>
			<path class="st0" d="M16.5,19.6c0,0,1.7,5-0.3,9.3c-0.9,2-3.3,3.6-5.4,6c-2.4,2.8-4.4,6.7-3,13.5c2.5,12.6,8.6,12.5,8.9,17.3
				s-8.3,11.5-9.1,6.5c0,0-0.1-0.6,1.1-3.2c0,0-1.7,2.4-1.3,3.6c0.3,1.2,1.5,1.9,2.6,1.6c1.1-0.2,4.4-2.1,5.2-3.4s2.3-4.4,2.1-5.6
				s-1.9-3.6-3.3-5.2s-4-4.3-4.7-7.7s-1.5-4.4-1.5-8.1s1-5.2,1-5.2c0.3-1.6,1.2-3.1,2.6-4.1c1.7-1.5,3.2-3.1,4.6-4.8
				C15.9,30.1,20.2,21.3,16.5,19.6z"/>
			<path class="st5" d="M21.3,19.5c0,0,0.1,5.7,1.6,8.4c1.7,3.3,2.3,7.1,1.8,10.7c-0.6,3.6-2.4,10.6-1,14.7l1.4,4.1
				c0,0-2.4-4.7-2.5-6.5s0.9-6.4,0.9-8.1s1-6.7,0.8-8.1S18.9,20.1,21.3,19.5z"/>
			<path class="st0" d="M14.6,20.3c0.1,2.5,0.5,5,1.1,7.4c0.9,3,4.7,16.8,3.6,21.7s-3.5,10.6-2.7,15c0.7,3.2,1.6,6.3,2.7,9.3
				c0,0-2.5-5.4-2.8-6.7s-1.1-6-0.5-6.5l0.9-3.9l1.9-7.1V43l-2.5-11.2l-2.3-11.3L14.6,20.3"/>
			<path class="st5" d="M20.8,18.8c0,0-0.9,2.6,0.5,7.8s4.5,10.8,5.3,15.6s1.8,5.3,2.2,12.3s-0.9,8.7-0.2,12c0,0,0.6,3.4,2.2,4.7
				s1.1,3.6,1,3.8s0.1-2.1-0.6-2.7c-2.1-2-3.2-4.7-3.2-7.5c0,0,0.8-8.1,0.2-11.8c0,0-2.3-11.3-3.1-14.7s-1.3-3.9-1.3-3.9
				S17.9,20.6,20.8,18.8z"/>
			<path class="st5" d="M26.9,18.6c0,0,1.4,0.1,2.2,8s0.1,13.7,3.2,21.7s3.8,13.9,3.4,14.6s0.9,0.9-0.1-4.7c0,0-2-8.7-3-11
				c0,0-2.1-4-2.4-11.3C30.2,35.9,30.1,19.7,26.9,18.6z"/>
			<path class="st9" d="M36.2,21c0,0-1.6,2.4-0.8,8.2s2.9,11.3,4.4,13.1c1.5,1.5,3.2,2.6,5.2,3.3c4.1,1.6,8.6,1.8,12.8,0.5
				c0,0,5.5-1.4,6.2,7.8c0,0-0.2,5.5,4.5,5.4c1-0.3,1.6-1.4,1.4-2.4c0,0,0.7,2.8-1.8,2.7c0,0-3.1,0-4.2-3.8c0,0-0.1-6.5-2.5-8.3
				c-1-1.1-2.5-1.5-3.9-1.1c0,0-5.6,2.5-13.8-0.9c0,0-4.3-1-6.3-6.9c-1.1-3.2-1.9-6.6-2.4-9.9C35.1,28.5,34.1,21.9,36.2,21z"/>
			<path class="st5" d="M11.9,23.5c0.5,2.3,1.1,4.6,1.9,6.8c1.1,2.8,3.1,9.9,1.6,13.3s-1.8,3.6-1.3,6.1s1.8,4.9,1.9,5.9
				c0.1,0.5,0.1,0.9,0.1,1.4c0.1-0.9,0-1.9-0.3-2.8c-0.5-1.6-1.4-3.6-1.5-4.4c-0.3-1.3-0.1-2.7,0.4-4c0.5-1.1,1-2.3,1.3-3.5
				c0.2-1.9,0.1-3.8-0.2-5.7l-1-4.5l-2.4-9.3C12.4,22.9,11.8,22.5,11.9,23.5z"/>
			<path class="st9" d="M17.3,19.2c0,0-1.1,3.5-0.4,6.1s1.7,5.9,1.5,7.6c0,1.8,0.3,3.7,1,5.4l0.4,0.6c0,0,1.6,3.2,1.6,5.6l-0.1,2.4
				c0.2-1.3,0.2-2.5,0.2-3.8c-0.3-1.5-0.8-2.9-1.4-4.2c-0.5-1.1-0.9-1.2-1-1.9c-0.4-1.5-0.5-3-0.5-4.5c-0.3-2.1-0.6-4.2-1.1-6.3
				c-0.3-2.3-0.2-4.6,0.1-6.8C18.3,16.8,17.3,19.2,17.3,19.2z"/>
			<path class="st5" d="M31.9,20c0,0,2.6,9.6,1.3,12.2S32,43,35.6,49.4s8,13.6,8.3,17.3l0.3,3.6c0.1-2.2-0.2-4.4-0.7-6.5
				c-0.8-3.3-4-8.4-4-8.4s-4.4-7.6-4.7-8.8s-2.4-6-1.8-9.2c0,0,0.1-3.5,0.8-4.5C33.6,32.8,35.1,29.2,31.9,20z"/>
			<path class="st10" d="M29.2,19c0,0,2.2,5.4,1.9,9.3s0.9,17.3,3.1,20.8s5.2,14.1,4.8,17.7l-0.4,3.6c0,0,1.5-4.7-0.6-12
				s-4.4-12.8-4.4-12.8c-1.2-3.4-1.8-6.9-1.7-10.5C31.8,35.1,32.8,20.4,29.2,19z"/>
			<path class="st7" d="M18.1,19.8c-0.4,2.7-0.3,5.4,0.3,8c1,4,3,10.6,3,13.6s0.9,3.6,0.3,5.3s-1,2.8-0.7,4l0.3,1.2
				c-0.1-0.9-0.1-1.8,0.1-2.7c0.3-1.2,1-3.4,0.8-4.3s-1.1-8.5-1.1-8.5s-1.9-7.1-2.2-7.8c-0.5-1.5-0.7-3-0.9-4.5
				c0.1-1,0.2-4.6,0.2-4.6L18.1,19.8z"/>
			<path class="st0" d="M13.1,21.8c0.2-0.2-0.3,5.4,1.3,9c1.1,2.6,2.5,4.9,3.1,7.8c0.3,1.2,0.3,2.5,0.2,3.8
				c-0.4,4.7-1.9,5.6-1.6,8.3v0.3c0.3,2.4,0.8,2.6,0.8,2.6c-0.8-1-1.2-2.3-1.2-3.6c0,0,1-3.1,1.2-3.8l0.1-0.7c0,0,1.3-4.5,0-7.7
				c0,0-1.9-5.2-2.4-6S11.5,23,13.1,21.8z"/>
			<path class="st11" d="M21.5,19.4c-0.5,1.6-0.3,3.3,0.4,4.8c0.8,1.5,1.1,3.3,0.8,5c0.2-1.2,0.2-2.4,0-3.6c-0.1-1-0.5-1.9-1.1-2.7
				L21.5,19.4z"/>
			<path class="st11" d="M14.7,20.6c0,0-1.6-1.2-0.2,3.1c0.1,0.5,0.3,0.9,0.4,1.3c1.2,3.4,2.2,4.6,2.1,5l-0.2,0.5
				c0.4-0.3,0.6-0.9,0.3-1.3C16.6,28.5,13.1,21.2,14.7,20.6z"/>
			<path class="st12" d="M9.6,28.2c-0.3-0.7-0.7-1.3-1.2-1.8c-0.8-0.9-2.3-1.6-2.6-2.7s-0.3-3.5-0.6-5s-0.5-2.6,0-3.5
				c0.9-1.1,1.9-2.1,3.1-2.9c0.4-0.1,4.4-3.5,5.3-4.1s3.6-2.7,5.2-2.3s2.2,1.1,3.2,1.2s4.9-0.1,7.1,0.8s5.6,2.8,6.4,4.1
				c1.2,2.3,2.1,4.8,2.7,7.3c0.3,2.2-1.9,6-2.6,5.3s-0.3-1.5-1.6-2.4s-3-0.9-5.1-1.8s0.1-1.8-4.4-1.3c-2.5,0.4-4.9,0.6-7.4,0.7
				c-1.8,0.2-3.6,0.9-5.1,1.9c-1.2,0.9-1.1,3.2-1.2,3.5S9.7,28.5,9.6,28.2z"/>
			<path class="st13" d="M9.6,28.2c-0.4-0.8-0.8-1.4-1.4-2c-1.6-0.9-2.7-2.5-2.8-4.4c-0.2-2.7-0.3-6.3,0.4-7.1s4-3.5,5.7-4.9
				S17,6,18.9,6s1.1,1.1,5.6,1.2S33.9,10,35.4,12s3.4,7.4,2.9,8.8s-0.8,1.5-1.1,2.6S36.6,25,35.8,25s-0.1,0.6-1.4-1.9s-5-2-7.6-3.3
				s-4,0.7-7.6,0.4s-8.1,0.9-8.4,2.6S10.8,28.8,9.6,28.2z"/>
			<path class="st14" d="M8.1,26c-0.4-0.3-0.7-0.7-1-1.2c-0.5-0.8-0.2-0.4-0.6-1.5s-0.8,0-0.7-1.5c0-0.8,0-1.6,0.2-2.4
				c0.2-1.1,0.7-2.2,1.6-2.9c1.3-1.1,1.1-1.8,2.2-1.6s3.7-0.4,5-0.4s0.5,1.2,3.2-0.5s2.9-2,4.7-2.4s2.7-0.3,4-0.7s0.8-0.9,2.5-0.4
				s2.2,0.3,2.5,0.6s2.6,1.4,3.1,2.9c0.2,0.8,0.7,1.5,1.3,2.1c0.4,0.5,0.3-1.1,0.5,1.4c0,1.3,0.2,2.5,0.6,3.7c0.2,0.6,0.1,1-1,0.3
				s1.6-0.5-3.5-1.4S27,18.8,25.2,19s-3.6,0.4-5,0.7S17,19.5,16,19.9s0-0.6-1.9,0.6s-3.2,1.6-3.8,2.6S8.8,26.4,8.1,26z"/>
			<path class="st4" d="M14.8,11.8c-0.4,0-0.4,0.2-1.4,0.4c-0.7,0.1-1.4,0.4-1.9,0.8c-0.5,0.3-1.6,0.4-1.9,0.7s-1.9,1.4-0.8,1.4
				c1.4-0.1,2.8-0.5,4.1-1C13.5,13.7,17.1,11.9,14.8,11.8z"/>
			<path class="st15" d="M19,9.7c0.4-0.3,0.9-0.5,1.4-0.4c0.4,0,0.7,0.1,1,0.3c0.3,0.3,0.7,0.5,1.1,0.6c0.7,0.2,0.8-0.2,1.3,0.1
				s-0.1,0.3,1,0.4s1.9-0.1,1.7,0.3s1.3,0.4-0.6,0.8s-1.9,0.8-2.7,0.4S18,10.4,19,9.7z"/>
			<path class="st16" d="M30.3,11.7c-0.5,0-0.1-1.2-1.4-0.5s-0.2,0.5-2.1,1s-0.6,0.3-1.9,0.6s-0.9,0-1.5,0s-0.6-0.1-1.3,0.4
				s0.2-1.3-2.5,0.5s-4,1.2-2.5,2s-2.1,1,4.1,0.3s6.2,0.4,8.1,0.8s1.8,1.6,1.8-0.3S32.4,11.6,30.3,11.7z"/>
			<path class="st15" d="M37.4,22.3c0.2-0.3-0.1,0,0.1-0.9s0.6-0.7,0.2-1.9s-0.3,1-1-1.6s-0.3-1.6-1.1-2.8s-1.5-2.7-1.4-1.4
				s-0.2,1.1,0.4,2.2s-0.4,0.4,0.3,1.6s0.3,1.6,0.4,2.4S37.2,22.6,37.4,22.3z"/>
			<path class="st15" d="M14.5,12.1c0.1,0-0.8,0.6-0.3,0.6s0.4-0.4,1.1-0.2c0.5,0.2,1,0.2,1.5,0c0.5-0.3,1.1-0.5,1.6-0.6
				c0.3,0,0.5,0.1,0.8,0.1c0.7,0.1,1.8,0,2.3,0c0.3,0,0.7,0,1,0.1c0.6,0.1-0.3-0.4,1.1,0.1c0.5,0.3,1.1,0.4,1.7,0.5
				c0.5,0.1,0.9,0.2,1.4,0.1c0.3-0.1,0.7,0.4,0.7-0.1s0.5-0.7-0.9-0.9c-0.7-0.1-1.4-0.2-2.1-0.3c-1.8-0.4,0.1,0.2-2.1-0.7
				s-0.9-0.9-3-1.2c-1.2-0.3-2.5-0.1-3.5,0.6C15.7,10.4,12.6,12.4,14.5,12.1z"/>
			<path class="st14" d="M30.1,11.8c-0.1,0-0.2-0.5-0.3,0.3s-1,0.5-0.8,1.3s0.8,0.6,1,1.5s-0.6,0.1-0.2,1.2s0,1.2,0.7,1.5
				s1-0.6,1.7,0.6c0.2,0.4,0.5,0.8,0.7,1.2c0.4,0.6,1,0.5,0.7-0.1s-1.6,0-1.2-1.1s1.5,0.3,0.8-1.6s-1-1.8-1-2.1S32.7,11.4,30.1,11.8
				z"/>
			<path class="st4" d="M13.1,17.2c-1.5,0.2-4.1,1.9-4.2,0.9S7.3,18,10,16s3-2.3,3.4-2.4s-1.1,0.2,1-0.8s2.7-2.6,3.1-2.9
				s0.1-1.5,1-0.4s2.3-0.5,1.1,1.3s-2.2-0.9-1.2,1.7s3.5,2.1,1,3C17.3,16.3,15.2,16.8,13.1,17.2z"/>
			<path class="st12" d="M9.5,26.8c0,0,0.1,0.9-0.7-0.1s-0.6-0.5-1.1-2s-0.4,0.7-0.3-1.9s-0.8-1.2,0.3-3s1.1-2.3,1.4-2.3
				s3.5-0.1,4-0.3s-0.9-1.4,3.1-1.6s5.9-0.3,6.3-0.3c0.8,0.1,1.7,0.3,2.4,0.6c0.6,0.5,1.1,1,1.6,1.5c0.5,0.6,0.7,0.4,3,0.6
				s4.4,0.4,4.8,0.7s0.5,0,1,1.5s0.6,0,0.7,2s1.1,3.4-0.4,1.9s-1.4-1.5-2.4-1.9s-0.7-0.2-1.8-0.8c-0.8-0.5-1.6-0.9-2.4-1.2
				c-1.5-0.5,0.6-0.4-1.9-0.7s2.4-1.1-4.1-0.6s-8.7,1.5-10.1,2.6S9.5,26.8,9.5,26.8z"/>
			<path class="st17" d="M8.5,22.6c0,0,0.7,0.4,0.5-1s-0.3-2.8,0.3-3.1s5.3-1.8,5.9-1.9s3.1-0.4,4.4-0.7c1.4-0.4,2.8-0.6,4.2-0.7
				c0.6,0,0.7,0.4,1.6,0.6c0.9,0.3,1.8,0.4,2.7,0.5c1.1,0.1,2.4-0.1,2.7,0.4c0.2,0.4,0.5,0.8,0.7,1.2c0.5,0.8,1,1.6,1.6,2.4
				c0,0,1.5,0.5-0.6,0.1s-21.1-0.5-21.7,1.4S7.7,25.3,8.5,22.6z"/>
			<path class="st18" d="M21.1,11.1c-0.6,0.1-0.7-0.5-1.1-0.2s-0.4,0,0.2,1s1,1.1,1.1,1.4s-0.3,0.4,0.3,0.5s1.3-0.7,1.3-0.9
				c0.2-0.3,0.5-0.6,0.9-0.7C24.1,12,23.1,10.6,21.1,11.1z"/>
			<path class="st14" d="M31,11.6c0,0-1,0.1,0.1,0.6s1.2,0.5,1.3,0.6s-0.1-0.3,0.2,0.5s1.5,1.3,1.9,1.9c0.4,0.6,0.8,1.2,1.1,1.8
				c0.3,0.4,0.3,1,0.2,1.5c-0.1,0.7,0.4,1.2,0.9,2.5s1.1,1.5,0.9,0.8c-0.1-1-0.3-1.9-0.7-2.8c-0.5-0.7-0.8-1.5-0.9-2.4
				c-0.1-0.6-0.5-0.3-0.7-1.2s0.7-0.2-0.6-1.5S31.4,11.5,31,11.6z"/>
			<path class="st4" d="M17.5,14.8c0,0,0.3-1-0.2-1.2S16,13.9,16.8,13s0.3-0.6,0.8-0.9s0.4-1.4,1.3-0.5s0.6,0.8,1.1,1.1
				s1.6,0,0.8,0.5c-0.5,0.3-1,0.5-1.6,0.5c-0.6,0-0.4-0.3-0.7,0.4S17.7,16,17.5,14.8z"/>
			<path class="st18" d="M30.6,16.2c-0.2,0,0.5-0.4-0.3-0.4s-1-0.1-1.5,0.2s0.2,0.4,0.1,0.7s0.3,0.7-0.3,0.7s-1.3-0.3-0.4,0.1
				s1,0.1,1.6,0.3s0.5,0.8,0.8,0.6s0.7,0,0.6-0.4s0.4-1-0.2-1.3S32.4,16.3,30.6,16.2z"/>
			<path class="st4" d="M32.7,14.2c0,0-0.1-1.3,0.4-1c0.3,0.2,0.6,0.5,0.6,0.9c0.1,0.5,0.1,0.1,0.7,0.9s1.2,0.9,1.1,1.2
				s-0.7,0.5-1.2,0.2s0,0.1-0.6-0.6C33.2,15.4,32.9,14.8,32.7,14.2z"/>
			<path class="st15" d="M8.7,17.9C8.4,18,8.3,17,8.1,17.6s-0.6,0.3-0.6,0.8c0,0.2,0.1,0.4,0.2,0.6c0.1,0.2,0.1,0.4,0,0.6l-0.2,0.5
				c0.2-0.5,1.9-1.4,1.8-1.7S9.2,17.9,8.7,17.9z"/>
			<path class="st4" d="M7.7,23.7c-0.4-0.2-0.9-0.3-0.9-0.7s0-0.2,0.2-0.9s0-0.6,0.1-1.1s0.4-1.2,0.3-0.8s0.5,0.2,0.1,1.1
				S7.7,23.7,7.7,23.7z"/>
			<path class="st18" d="M11,22.8c0,0-0.7,0.5-0.4-0.2s0.4-1.1,0.8-1.1s-0.2,0.5,0.6-0.1c0.6-0.4,1.3-0.8,2-1
				c0.3-0.1-0.1-0.6,0.3-0.1s0.9,0.3,0.1,0.6c-0.5,0.1-0.9,0.3-1.3,0.5c-0.5,0.3-1,0.6-1.4,1C11.4,22.8,10.9,23.5,11,22.8z"/>
			<path class="st15" d="M11.8,15.7c-0.2,0,0.6,0.5-0.6,0.6s-1.2-0.2-1.4-0.3s-0.5,0-0.1-0.3s0.4,0.3,0.8-0.7s0.6-1.6,0.7-1.1
				s0,0.9,0.2,1S12.8,15.7,11.8,15.7z"/>
			<path class="st15" d="M10,18.5c0.2-0.6,0.3-0.3,1-0.7s0.4-0.6,1-1s0.8-0.4,1.5-0.9s0.6-0.7,1.3-0.7s1.4,0.3,1.7,0.3
				s0.7-1.4,0.4,0s-0.2,1.8-1.2,1.5s-0.2-0.6-1-0.3s-1.1,0.2-1.6,0.7S9.5,20.2,10,18.5z"/>
			<path class="st12" d="M21.3,14.6c0.1-0.2,0.4-0.3,0.6-0.1c0,0,0,0,0,0c0.4,0.3,0.9,0.5,1.4,0.4c0.4-0.2,1.4,0,0.7-0.3
				s-0.7-0.4-1.4-0.7s-0.5-0.5-1.2-0.2S19.9,14.9,21.3,14.6z"/>
			<path class="st18" d="M24.8,13.6c0,0-0.6,0.4,0.1,0.8S26,15,26,15c0.1,0.1,0.3,0.3,0.5,0.4c0.2,0.1,0.8,0.3,1,0.1
				s0.2-0.6-0.1-0.7s-0.6,0.3-0.3,0s1.1,0.1,0.3-0.4C26.7,13.8,25.7,13.5,24.8,13.6z"/>
			<path class="st19" d="M33.4,15.9c-0.3,0-0.6-0.1-0.9-0.4c0,0-0.5-0.1-0.2,0.2s0.6,0.6,0.5,1c0,0.2-0.1,0.4-0.1,0.7
				c0,0.3,0.3,0.6,0.6,0.6c0.4,0,0.8-0.2,1-0.5C34.3,17.3,34.8,16,33.4,15.9z"/>
			<path class="st18" d="M27.2,16.8c0,0,0.5-0.4-0.8-0.3s-1.2,0-1.8,0.2s-1-0.1-0.6,0.3s1.3,0.4,1.6,0.4s0.5-0.4,0.9,0.1
				s0.5,0.4,0.9,0.6s0.4,0.7,0.5,0.3S28.8,17.1,27.2,16.8z"/>
			<path class="st18" d="M26.2,18.9c0,0,1.8,0.7,2.1,0.8s-0.6-0.5,0.3,0.2s1.5,1.7,1.3,0.8s-0.1-1.1-0.5-1.2s-0.3-1-1-0.9
				s-2.6-0.4-3.2-0.3s-1,0.4-0.7,0.5C25.1,19,25.7,19,26.2,18.9z"/>
			<path class="st14" d="M36.1,22.4c0.4-0.1,0.4-0.9,0.6-1.4s0.3-0.6,0.1-1s-0.4,0.1-0.7-1s-0.3-2.7-0.4-1.2s0.6,1.7-0.1,2
				s-1.2-0.7-1,0.4s0,1.6,0.3,1.9C35.2,22.4,35.7,22.6,36.1,22.4z"/>
			<path class="st14" d="M8.4,26.4c0.3-0.6,0-1.3-0.6-1.6c-1.1-0.5-1.2-0.5-1.3-1.2c0-0.6-0.1-1.2-0.3-1.8c-0.3-0.8-0.5-1.1-0.2-1.3
				s-0.2-2.1,0.3-0.2s0.9,2.3,0.8,2.6s-0.6,0.2,0.1,0.8s1,0.3,1.3,1.3s0.4,1,0.4,1.4S8.9,27.7,8.4,26.4z"/>
			<path class="st18" d="M18.5,15.1c0,0,0.5-1.1,1.4-0.8s0,0.2,1,0.2s0.3,0,1.5,0.3s0.7,0,1.8,0.1s-1-0.2,1.1,0.1s2.5,0.4,2.6,0.8
				c0.1,0.3,0,0.6-0.3,0.7c-0.1,0-0.3,0-0.4,0c-0.5-0.1,0-0.5-1.4-0.7s-0.7-0.4-1.4-0.2c-0.9,0-1.7-0.1-2.5-0.3
				c-0.3,0,0-0.1-1.2,0.2S17.7,16.6,18.5,15.1z"/>
			<path class="st4" d="M10.3,17.9c0.4,0,0.8-0.2,1.1-0.6c0.2-0.2,0.1-0.4,0.9-0.8c0.7-0.5,1.5-0.8,2.3-0.8c1.5-0.2,1.2-0.2,1.5-0.2
				s2-0.6,0.5-0.6c-0.7-0.1-1.5-0.1-2.2,0c-1,0.2-0.6-0.2-1.2,0.4s-1.4,0.3-1.7,0.5s-0.3,0-0.6,0.3s-0.4,0.3-0.5,0.9
				S7.9,18,10.3,17.9z"/>
			<path class="st15" d="M8.1,24.4c-0.4,0.1-0.6-0.2-1-0.2s-0.5-0.1-0.4-0.7s0,0.4,0.2-0.5s0.2-1.6,0.2-0.9S8.9,24.1,8.1,24.4z"/>
			<path class="st18" d="M25,14.1c-0.3,0-0.6,0-0.8,0c-0.1-0.1-0.6,0-0.6,0.2s-0.6,0.2,0.1,0.5c0.4,0.2,0.9,0.3,1.3,0.3
				c0.7,0.1,0.9,0.3,0.9,0.3S25.8,14.1,25,14.1z"/>
			<path class="st16" d="M19.8,11.3c0,0-0.3-0.2-0.5-0.3s-1.4-0.3-0.7-0.3s0.6-0.3,1.1-0.2s0.4-0.2,1,0s0.8-0.2,0.6,0.2
				S21.2,11.5,19.8,11.3z"/>
			<path class="st4" d="M10.5,13.3c-0.3,0.1-0.9,0.9-1.2,0.9s-0.1,0.4-0.3,0s-1.1-0.6,0.2-0.8c0.8-0.2,1.5-0.6,2-1.2
				c0.4-0.3,0.9-0.5,1.4-0.7c0.3,0,1.2-0.2,0.3,0.4C12.2,12.5,11.3,12.9,10.5,13.3z"/>
			<path class="st4" d="M31.8,17.8c-0.3,0-0.9-0.1-0.2,0.3s0.3,0.5,0.7,0.4S33.3,17.6,31.8,17.8z"/>
			<path class="st18" d="M34.7,16.7c0.1,0.3,0,0.6-0.2,0.7c-0.4,0.3-0.4-1-0.4,0.3s-0.2,0.9-0.1,1.2s-0.1-0.2,0.5,0.4s0.5,1,0.8,0.6
				s0.2-0.7,0.2-1.2s-0.2-0.5-0.2-1S36.8,16.2,34.7,16.7z"/>
			<path class="st4" d="M36.3,23.9c0,0,1.3-1,0.9-1.9s0.4-1.7-0.3-1.4c-0.5,0.2-0.9,0.7-0.9,1.2c0,0.5,0.2,0.7,0,0.7
				S35.1,24.6,36.3,23.9z"/>
			<path class="st15" d="M22.5,17.4l-0.7,0.1c-0.9,0.1-0.4-0.6-1.5,0.2s-1.6,0.7-1.4,1s1.3,0.1,1.6,0.2c0.4,0.1,0.8,0.1,1.2-0.2
				c0.5-0.3,0.4-0.7,0.9-0.6s0.9,0.5,1.1,0.2c0.1-0.2,0.3-0.3,0.5-0.5C24.3,17.9,23.6,17.4,22.5,17.4z"/>
			<path class="st15" d="M30.4,12.2c-0.3,0-1.2-0.3-1.6,0s-1.1,0.6-0.1,0.7s0.9,0,1.2,0.2s-0.6,0,0.2,0.2s0.8,0.4,1,0
				S32.3,11.9,30.4,12.2z"/>
			<path class="st15" d="M12.8,15.1c0,0-0.3-0.2,0.9-0.5s1.5-0.3,2-0.4l0.5-0.1c0.3-0.1-0.1,0.3,0.7-0.1s0.8-0.3,0.9-0.6
				s-0.3-0.3-0.7-0.4s-0.3,0-1.5,0.2s-0.9,0.1-1.8,0.3c-0.7,0.2-1.3,0.6-1.8,1.1C11.8,15,11,15,11.2,15.4S11.8,16.7,12.8,15.1z"/>
			<path class="st16" d="M27.2,14c0.3,0.3,0.7,0.5,1.1,0.7c0.3,0.1-0.3,0.4,0.6,0.2s2.2-0.2,1.3-0.5s-1.2-0.5-1.6-0.6
				s-0.6-0.1-0.9-0.3S25.2,13.1,27.2,14z"/>
			<path class="st15" d="M13.7,8.3c0,0,3.2-2,4.2-2.1s0.7-0.4,1.5-0.1c0.3,0.1,0.7,0.2,1,0.4c0.7,0.3,1.4,0.9,1.6,0.8
				s2.2,0.1,0.5,0.2s-1.4,0.3-1.9,0.1s0.8-0.1-0.9-0.3c-1.1-0.1-2.3,0-3.4,0.3c-0.4,0.1-0.9,0.3-1.2,0.6c-0.4,0.3,0.1-0.3-0.9,0.7
				s-0.4,1-1,0.9c-0.7,0.1-1.3,0.2-2,0.4C12,9.4,12.8,8.8,13.7,8.3z"/>
			<path class="st4" d="M25.2,7.2c-0.1,0,0.1,0.6,1.1,0.6s0.1-0.6,1.6,0s2.4,0.3,2.4,0.6s1.3,1.3,1.5,1s0.1-0.3,0.1-0.3
				C29.9,7.8,27.6,7.1,25.2,7.2z"/>
			<path class="st4" d="M34.6,11c0.1,0.7,0.3,1.4,0.7,2c0.4,0.3,0.4,0.2,0.6,0.7s0.7,0.4,0.8,0.9s0.5,1.9,0.7,2l0.3,0.1
				C37.4,16.6,37.7,13.6,34.6,11z"/>
			<path class="st4" d="M5.2,18.1c-0.1,0-0.6-1.8-0.2-2.4s0.1-0.8,0.7-1.4s3.2-2.4,3.7-2.9s0.9-0.6,0.4-0.1
				c-0.8,0.7-1.6,1.5-2.4,2.3c-0.5,0.7-1.1,0.1-0.9,1.1S6,16.3,5.6,16.3S6,18.1,5.2,18.1z"/>
			<path class="st19" d="M30.2,9.4c-0.4,0-1.2-0.6-1.6-0.5s-0.4,0.5-0.1,0.5s0.5-0.3,0.7-0.1c0.2,0.3,0.5,0.5,0.8,0.6
				c0.5,0.3,1,0.5,1,0.2S31.3,9.3,30.2,9.4z"/>
			<path class="st19" d="M17.1,8.1c-0.7,0.2-0.8-0.6-1.2-0.1s-0.7,0.7-0.6,0.8c0.3,0.3,0.7,0.3,1,0.1c0.3-0.3-0.6-0.3,0.3-0.3
				s1-0.2,1.1-0.1s0.1,0.1,0.5,0.1s0.6,0.4,0.4-0.1S18.5,7.6,17.1,8.1z"/>
			<path class="st4" d="M19.4,16.1c-0.3,0,0.4,0.1-0.6,0.1s-1.4-0.4-1.9,0.4c-0.2,0.3-0.4,0.6-0.7,0.9c0.5,0,0.9,0,1.4-0.1
				c0.1-0.1-1.2-0.3,0.5-0.4S21.4,16.2,19.4,16.1z"/>
			<path class="st18" d="M31.5,18.9c-0.3,0,0.3-0.2-0.7-0.1s-1.3,0.1-1.1,0.3s0-0.1,0.4,0.1s0.3,0,0.4,0.2s0,0.1,0.4,0.3
				s0.6,0,0.9,0.2s0.4,0.2,0.7,0.4s0.3,1,0.4,0.4S33.3,18.7,31.5,18.9z"/>
			<path class="st18" d="M36.1,14.2c0,0-0.3,0.1-0.2,0.3s0.2,0,0.3,0.4s-0.3,0.3,0.1,0.9s0.5,1.3,0.6,0.9S37.2,14.2,36.1,14.2z"/>
			<path class="st4" d="M25.2,7.4c-0.3,0-0.6,0-0.8,0c-0.6,0-0.9,0.8-1.8,0.7s-1.4,0.7-0.2,0.6c0.8,0.1,1.6,0,2.4-0.3
				c1-0.4,2-0.6,2-0.6S26.6,7.2,25.2,7.4z"/>
			<path class="st18" d="M6.5,15.2C6.4,15,6.2,15,6,15.3l-0.1,0.3C5.9,15.6,6.8,15.8,6.5,15.2z"/>
			<path class="st14" d="M6.3,16.7c-0.6-0.1-0.4,0-0.6,0.4s0.2,0.1-0.1,0.7s-0.4,0.5-0.2,1S5,19.9,5.6,19.1S6.9,16.8,6.3,16.7z"/>
			<path class="st19" d="M16.1,8.9c-0.4-0.2-0.2,0.3-0.7,0.3S14.7,9,14.2,9.4c-0.3,0.2-0.5,0.5-0.7,0.8c-0.1,0.1-1.2,1,0.1,0.3
				S16.7,9.1,16.1,8.9z"/>
			<path class="st15" d="M20.9,9c-0.3,0-0.4-0.5-0.7-0.1s-0.4,0.4-0.1,0.4s0.4,0.3,0.5,0.3S20.6,9.7,21,9.6S22.6,8.9,20.9,9z"/>
			<path class="st15" d="M25.6,9.1c-0.4,0-0.9,0-1.3,0.2c-0.2,0.1,0.2,0.3,0.2,0.3s0.3-0.2,0.5-0.1c0.2,0.1,0.4,0.2,0.6,0.2
				c0.1,0-0.3,0.1,0.2,0.2s0.6,0,0.7-0.1S27.1,9.2,25.6,9.1z"/>
			<path class="st18" d="M33.1,10.6c0,0-0.1-0.2-0.3-0.1s-0.2,0.2-0.1,0.4c0.1,0.1,0.2,0.2,0.4,0.3c0.2,0.1,0.4,0.3,0.6,0.5
				c0,0-0.2,0.3,0.2,0.1S34,10.7,33.1,10.6z"/>
			<path class="st12" d="M19.3,6.6c-0.1,0-0.5-0.2-0.6-0.1s-0.3-0.1-0.1,0.1c0.1,0.1,0.2,0.2,0.4,0.3c0.2,0,0,0.2,0.6,0.1
				S20.3,6.5,19.3,6.6z"/>
			<path class="st18" d="M9.4,11.5c0,0,0.3,0-0.7,0.8s-1.5,1.1-1.3,1.2c0.4,0.1,0.8,0,1.2-0.1c0.3-0.2,0,0,0.5-0.7
				S11.5,11.4,9.4,11.5z"/>
			<path class="st18" d="M17.8,6.6c-0.8-0.2-2.2,0.4-1.5,0.4s0.7,0.1,1,0S18.2,6.7,17.8,6.6z"/>
			<path class="st18" d="M29.1,8c-0.1,0-0.7-0.3-1,0s-1.6,0.1-0.2,0.4c0.5,0.1,1.1,0.3,1.6,0.5c0.3,0.1,0.2-0.4,0.6,0
				s0.9,0.4,0.8,0.3S29.8,7.9,29.1,8z"/>
			<path class="st18" d="M35.1,12.3c-0.2,0-0.4-0.9-0.2,0s-0.1,0.8,0.6,1.3s0.4,0.4,0.7,0.7s0.6,0.9,0.5,0.4S35.8,12.2,35.1,12.3z"
				/>
			<path class="st18" d="M37.6,18.2c-0.1,0.3-0.1,0.6,0,0.8c0.1,0.5-0.2,0.3,0.1,0.5s0.6,0.1,0.4-0.1S38.4,18.1,37.6,18.2z"/>
			<path class="st4" d="M5.9,14.6c-0.3,0-0.6,1.1-0.7,1.4s0.4,1,0.5,0.3s-0.1-1,0.1-1s-0.1-0.2,0.3-0.4S6.6,14.5,5.9,14.6z"/>
			<path class="st18" d="M8.6,12.8c-0.4,0.2,0.1-0.1-0.5,0.4s-0.7,0.2-0.7,0.5s-0.4,1,0.3,0.4s0.6-0.4,0.9-0.7s0.6-0.4,0.7-0.5
				S9.7,12.2,8.6,12.8z"/>
			<path class="st18" d="M14.3,8.5c-0.8,1-1.2,0-1.9,0.9s-2.1,1.7-0.7,0.9s1.3-1.1,1.4-1s0.5-0.6,0.7-0.4s-0.2-0.1,0.4-0.1
				s1-0.1,1.1-0.2s0.9,0.2,0.6-0.3s-0.5-0.8-0.8-0.6C14.9,7.9,14.6,8.2,14.3,8.5z"/>
			<path class="st4" d="M25.8,7.2c-0.3,0-0.5-0.3-1.4,0.1S23.6,8,23.9,8s0.5-0.4,0.8-0.4s0.5-0.1,0.6-0.1s0.5-0.1,0.7,0.1
				c0.2,0.2,0.5,0.3,0.8,0.2h0.3C27.2,7.9,27.4,7.1,25.8,7.2z"/>
			<path class="st18" d="M5.9,23.1c0.3-0.2-0.2,0.4-0.1,0.6s-0.1,0,0.3,0.5s0.8,1.3,0.7,0.7S6.7,25,6.4,24.1S6,23.4,6,22.9
				c0-0.3,0-0.7-0.2-1c-0.1-0.1,0-0.7-0.3-0.7s-0.5-0.3-0.4,0.3S5.4,23.4,5.9,23.1z"/>
			<path class="st4" d="M5.2,16.7c-0.4,0.1-0.3,0.7-0.2,1s0,0.2,0.2,0.6s-0.1,0.4,0,0.7s0.4,1.1,0.3,0.4s-0.1-0.3,0-1
				s-0.2-0.6-0.1-0.7S6,16.6,5.2,16.7z"/>
			<path class="st18" d="M10.9,10.3c-0.6,0.3-1.1,0.8-1.5,1.3c-0.3,0.3-0.8,0.2-0.3,0.3c0.3,0.1,0.5,0,0.8-0.1c0,0-0.1-0.1,0.1-0.2
				c0.4-0.2,0.8-0.4,1.2-0.6C11.3,10.9,12.9,9.3,10.9,10.3z"/>
			<path class="st4" d="M30.7,11.2c0,0,0.1-0.1-0.6-0.4s-0.4-0.2-1.3-0.5s-0.6-0.7-1.3-0.5c-0.3,0.1-0.7,0.2-1,0.3
				c-0.1,0.1-0.6,0.2-0.7,0.4s-1,0.3,0.3,0.2l1.5-0.1c0.4,0.1,0.8,0.3,1.2,0.5c0.8,0.4,1.5,0.7,1.8,0.6S32.3,11.3,30.7,11.2z"/>
			<path class="st4" d="M35.7,14.4c-0.1,0,0.2,0.3-0.2-0.4s0-0.3-0.6-0.8s-0.1,0-0.9-0.7s-0.6-1.1-1.3-1.1s-0.7,0.1-0.8,0.2
				s-0.8-0.1,0.4,0.6s1.5,0.6,2.2,1.7s0-0.2,0.9,1.2c0.5,0.7,0.9,1.5,1.3,2.3c0.1,0.4,0,1.1,0.3,1s0.8-0.1,0.3-1.3
				S36.7,14.5,35.7,14.4z"/>
			<path class="st15" d="M26.2,10.1c-0.4-0.9-0.4,0.3-1.5,0s-1.1-0.7-1.3-0.3s-0.2,0.7,0.1,0.7c0.4,0,0.8,0,1.3,0
				C25.1,10.4,26.5,10.6,26.2,10.1z"/>
			<path class="st18" d="M22,8.4c-0.7,0.1-1.1-0.1-1.8-0.1s-1.4,0.2-1.4,0.3s0-0.3-0.2,0.2s0.2,0.6,0.5,0.5s-0.2,0.2,0.3-0.1
				c0.2-0.2,0.5-0.3,0.8-0.4c0.3-0.1-0.2-0.2,0.6-0.2c0.3,0,0.6,0.1,0.9,0.2C22,9,22.3,9,22.6,9C23.2,9.1,24.3,8.1,22,8.4z"/>
			<path class="st4" d="M15.2,10c-0.8,0.1-1.3-0.6-1.5,0.3s-0.3,0.8-0.7,1s-0.3-0.6-0.8,0.4s-0.1,1.1,0.2,1c0.3-0.1,0.6-0.1,0.9-0.3
				c0.4-0.1,0.7-0.3,0.9-0.7c0.2-0.4,0.3-0.8,0.7-0.8s0.5-0.1,0.9-0.1s0.8-0.1,0.9-0.3S17,9.7,15.2,10z"/>
			<path class="st15" d="M10.6,13c0,0,0-0.1-0.2,0.1s-0.1,0.3,0,0.3s0.3,0.1,0.4-0.1S11.9,13,10.6,13z"/>
			<path class="st19" d="M24.9,11.2c-0.1,0-1-0.1-0.7,0.1c0.2,0.1,0.5,0.2,0.8,0.3l0.3,0.1l0.4,0.1C25.6,11.7,26.1,10.6,24.9,11.2z"
				/>
			<path class="st18" d="M28.7,13.2c-0.2,0-0.7-0.4-0.4,0.1s0.8,0.2,0.8,0.3S29.2,13.2,28.7,13.2z"/>
			<path class="st15" d="M22,16.2c-0.2,0.1-0.8,0-0.6,0.3s0.2,0.3,0.3,0.3s-0.1,0,0.3-0.1s0.4-0.1,0.7-0.1s0.6,0.4,0.5,0
				S22.8,15.9,22,16.2z"/>
			<path class="st18" d="M29.6,19.2c-0.1-0.1-0.6-0.8-0.8-0.5s-0.3,0.3-0.1,0.4c0.2,0.1,0.3,0.2,0.5,0.3
				C29.7,19.6,29.6,19.2,29.6,19.2z"/>
		</g>
	</g>
</g>
</svg>
