<?xml version="1.0" encoding="utf-8"?>
<!-- Generator: Adobe Illustrator 21.0.2, SVG Export Plug-In . SVG Version: 6.00 Build 0)  -->
<svg version="1.1" id="jelly-fish__lg" xmlns="http://www.w3.org/2000/svg" xmlns:xlink="http://www.w3.org/1999/xlink" x="0px"
	 y="0px" viewBox="0 0 549.6 679" style="enable-background:new 0 0 549.6 679;" xml:space="preserve">
<style type="text/css">
	.st0{opacity:0.15;fill:url(#SVGID_1_);enable-background:new    ;}
	.st1{opacity:0.8;}
	.st2{fill:#794D9E;}
	.st3{fill:#42205F;}
	.st4{fill:#3D144C;}
	.st5{opacity:0.8;fill:#4F1E5D;enable-background:new    ;}
	.st6{fill:#4F1E5D;}
	.st7{fill:#824098;}
	.st8{opacity:0.7;fill:#007384;enable-background:new    ;}
	.st9{opacity:0.8;fill:#007384;enable-background:new    ;}
	.st10{fill:#007384;}
	.st11{fill:#009DAD;}
	.st12{opacity:0.7;fill:#27B793;enable-background:new    ;}
	.st13{opacity:0.6;fill:#27B793;enable-background:new    ;}
	.st14{fill:#DB8EBC;}
	.st15{opacity:0.8;fill:#DB8EBC;enable-background:new    ;}
	.st16{opacity:0.8;fill:#F8CADE;enable-background:new    ;}
	.st17{opacity:0.6;fill:#F8CADE;enable-background:new    ;}
	.st18{opacity:0.7;fill:#F8CADE;enable-background:new    ;}
	.st19{fill:#F8CADE;}
	.st20{fill:#B17DB0;}
	.st21{opacity:0.7;fill:#BA5492;enable-background:new    ;}
	.st22{opacity:0.9;fill:#BA5492;enable-background:new    ;}
	.st23{opacity:0.8;fill:#27B793;enable-background:new    ;}
	.st24{fill:#27B793;}
	.st25{opacity:0.6;fill:#FFFFFF;enable-background:new    ;}
	.st26{opacity:0.7;fill:#F2ACCC;enable-background:new    ;}
	.st27{opacity:0.7;fill:#C43380;enable-background:new    ;}
	.st28{opacity:0.5;fill:#CE547D;enable-background:new    ;}
	.st29{opacity:0.3;fill:#CE547D;enable-background:new    ;}
	.st30{fill:#C16199;}
	.st31{opacity:0.3;fill:#C16199;enable-background:new    ;}
	.st32{opacity:0.3;fill:#D181B5;enable-background:new    ;}
	.st33{opacity:0.7;fill:#A86CAC;enable-background:new    ;}
	.st34{opacity:0.6;fill:#864195;enable-background:new    ;}
	.st35{opacity:0.1;fill:#98509E;enable-background:new    ;}
	.st36{opacity:0.5;fill:#C16199;enable-background:new    ;}
	.st37{opacity:0.8;fill:#AA4F88;enable-background:new    ;}
	.st38{opacity:0.5;fill:#A86CAC;enable-background:new    ;}
	.st39{opacity:0.4;fill:#A86CAC;enable-background:new    ;}
	.st40{opacity:0.6;fill:#CE547D;enable-background:new    ;}
	.st41{opacity:0.4;fill:#CE547D;enable-background:new    ;}
	.st42{opacity:0.5;fill:#E16897;enable-background:new    ;}
	.st43{opacity:0.3;fill:#6E335E;enable-background:new    ;}
	.st44{opacity:0.5;fill:#6E335E;enable-background:new    ;}
	.st45{opacity:0.4;fill:#6E335E;enable-background:new    ;}
	.st46{opacity:0.3;fill:#BB4670;enable-background:new    ;}
	.st47{opacity:0.6;fill:#BB4670;enable-background:new    ;}
	.st48{opacity:0.4;fill:#BB4670;enable-background:new    ;}
	.st49{opacity:0.2;fill:#BB4670;enable-background:new    ;}
	.st50{opacity:0.7;fill:#BB4670;enable-background:new    ;}
	.st51{opacity:0.3;fill:#C383A9;enable-background:new    ;}
	.st52{opacity:0.4;fill:#C383A9;enable-background:new    ;}
	.st53{fill:#C383A9;}
	.st54{opacity:0.5;fill:#C383A9;enable-background:new    ;}
	.st55{opacity:0.5;fill:#864195;enable-background:new    ;}
	.st56{opacity:0.3;fill:#864195;enable-background:new    ;}
	.st57{opacity:0.3;fill:#B167A2;enable-background:new    ;}
	.st58{fill:#B167A2;}
	.st59{opacity:0.3;fill:#E9C0D5;enable-background:new    ;}
	.st60{opacity:0.5;fill:#E9C0D5;enable-background:new    ;}
	.st61{opacity:0.2;fill:#CE547D;enable-background:new    ;}
	.st62{opacity:0.2;fill:#E96A9A;enable-background:new    ;}
	.st63{opacity:0.4;fill:#E16897;enable-background:new    ;}
	.st64{opacity:0.7;fill:#E16897;enable-background:new    ;}
	.st65{opacity:0.2;fill:#F28DB9;enable-background:new    ;}
	.st66{opacity:0.3;fill:#F28DB9;enable-background:new    ;}
	.st67{opacity:0.4;fill:#F28DB9;enable-background:new    ;}
	.st68{opacity:0.6;fill:#F28DB9;enable-background:new    ;}
	.st69{opacity:0.4;fill:#FAD7E6;enable-background:new    ;}
	.st70{opacity:0.5;fill:#FAD7E6;enable-background:new    ;}
	.st71{opacity:0.5;fill:#C192C1;enable-background:new    ;}
	.st72{opacity:0.7;fill:#C192C1;enable-background:new    ;}
	.st73{opacity:0.3;fill:#C192C1;enable-background:new    ;}
	.st74{opacity:0.4;fill:#C192C1;enable-background:new    ;}
	.st75{opacity:0.2;fill:#6E335E;enable-background:new    ;}
</style>
<g>
	<g id="Layer_2">
		<g>
			
				<radialGradient id="SVGID_1_" cx="314.7379" cy="214.3521" r="170.08" gradientTransform="matrix(0.7299 -0.6835 -0.6835 -0.7299 254.6638 551.2987)" gradientUnits="userSpaceOnUse">
				<stop  offset="0" style="stop-color:#D0D2D3"/>
				<stop  offset="1" style="stop-color:#230F56"/>
			</radialGradient>
			<circle class="st0" cx="337.9" cy="179.7" r="170.1"/>
			<g class="st1">
				<path class="st2" d="M311,164.8c-3.1,1.8-8.2,21.9-10.4,32.3s-5.5,30.5-9.7,32.3s-7.1,7.2-5.3,8.8s-2,2.6,1.8,1.6
					s3.1,5.4,6.2,0.1s3.6-9.4,5.3-9.5s-1.9-12.9,1.7-0.1c3.6,12.8,1.2,31.4-0.2,42s-6.6,15.5-2.3,14.7s4.3,1.9,5.4-5.3
					s-1.9,0.3,1.3-9.6s7-16.3,8-16.5s1.2-1,2.6-0.3s0.2-4.9,1.5,0.7s2.1-3.7,2.5,8.9s-0.5,26.4,2.2,14.6s3.5-18.6,4.5-21.4
					s3-6.7,5.7-7.4s3.2-5.5,4.3-2s-2.4-3.4,1.5,2.2s-7.4,15.3,3.9,5.6s16.7-13.9,18.2-13.1c1.4,0.8-3.8,36.2-3,39s-0.1,5.2,3.3,4.9
					s1.7,0.8,3.5-4.3s-2.5,2.4,1.6-8.5s2.9-14.1,5.7-13.5s2,2.5,4.6,0.6s3-2.3,3.5-5.6s0-1.4-0.2-7.2s-2.5-1.3-1-12.8
					s-0.2-9.4,2.3-18.8s6.2-1.3,3.4-17.7s-11.8,6.6-8.3-32.6S311,164.8,311,164.8z"/>
				<path class="st2" d="M288.4,182.8c0,0-9.5,7.6-8.9,18.5s4,7.5,1.5,12.7s-0.2,4.5-3.6,7.8s-5.9,2-6.6,5.3s-2.2-1.8-0.7,3.2
					s-0.8,4.6,2.5,5.2s7.4-0.7,8.3-3.6s4-5.5,7.3-10.4s4.1-10.2,7.7-9.2s5.6,0.3,8.2,0.3s4.3,0.3,5.2-4.1s16.9-40.7,12.1-45.3
					S298,147.3,288.4,182.8"/>
				<path class="st3" d="M295.6,173.5c-0.9,1.4-2.2-0.2-5,10.6s-2.3,8.9-3.4,14.9s0.1,9.3-2,14.5s-0.9,4.9-3,6.8s-2.5,1.4-2.9,3.9
					s-0.3,3.3,1.5,2.9s5-9.6,5.8-10.4s4.3-8,4.3-8s0-4.4,1.7-0.3s0.6,3.2,1.5,6.5s-2.5,3.4,0.2,5.2s4.5-0.9,5.2-2s0.1-5.8,2.3-1.2
					s0.2,4,1.2,10.5s-1.8,4.6,3.4,7.8s4.9,10.3,3.3,17.1s-3.1,10.7,0,7.2c2.2-2.7,4.1-5.7,5.5-9c0,0,1.6-5.4,4.5-1.9
					s4.2,4.5,4.5,4.2c3.4-2.5,5.9-6,7.3-9.9c2.6-7,5.4,26.8,3.3-8.8s-2.1-37.3-2.2-38.5s-2.7,10.6,0.5-4.8S334.7,116.2,295.6,173.5z
					"/>
				<path class="st3" d="M351.1,167.4c-0.6,0-8,6-13.3,17s-3.6-4.6-5.3,11s1.9,21.6,5.4,22.4s7.4-10.4,6.6,9.6s-2.9,15.1-1.3,23
					c1.6,7.9,1,3.6,4.4,8.4s8.5,13.5,6.6-2.4s-5.7-14.6-2.5-18.9s3.6-5.3,3.9-6s5.6,0,5.7-0.3s1.4-6.2,2.6,2.4s-0.3,9.6,0.4,17.7
					s0.6,13.2,2.3,8.9s-3.5-15.6,2-9.3s5,12.5,6.3,6s1.2,0.8,1.2-6.5s0.5-10.9,0.9-17.1s-2.5-0.5,1-18.5S377.1,165.6,351.1,167.4"/>
				<path class="st4" d="M328.6,195.4c-1.4,0.2-3-21.7-8.6,7.3s-2.1,28.1-5.7,34.4c-3.6,6.2-6,7.2-5.3,11.1s0.4,6.5,4.8-0.7
					s6.1-16.7,9.5-20.5s4.8-11.9,6.4-4.6s-1,29.4,2.6,8.5s-1.5-1.6,4-29.2s6.2-30.3,6.2-30.3S336.9,182,328.6,195.4
					c-8.2,13.5,23.4,21.6,21.7,27s-9,12.1-10,16.6s-1,12.5,4.9,4.5s12-19.6,11.8-16s1.4,6,2.4,9s4.2,4.8,4.3,0.9s2.8-9.4,2.5-13.7
					s6.8-10.1,6.6-24.9s-0.3-23.2-2.2-25.3s2.5-1.5-6.5-5.5s-13.9-7.5-16.1-4.9s-16.6-5.4-16.6-5.4"/>
				<path class="st4" d="M295.2,187.5c0,0-1.4,4.4-5.7,15.2s-10.8,10.4-7,13.3s9.2,2.8,6.7,9s-5.6,9.7-2.9,10.7s4.3-2.6,6.9-13
					s1.9-19.2,6.6-24.3c3.6-4.1,6.9-8.4,9.9-12.8c0.6-0.8,4.1-12.4,3.4-15s-11.9-15.7-18,16.8"/>
				<path class="st4" d="M316.9,208.5c3,2-5.9,11.7-5.5,18s-3,11.5,0.4,6.3s5.1-13.8,6.1-17.5s7.7-19.7,8.7-21.1s3-4.7,1.7-6
					s4-18.9-3.1-2.5S314.9,207.1,316.9,208.5z"/>
			</g>
			<path class="st5" d="M323.5,171c0,0-43.6,52.7-38.7,117.4s-4.4,117-10,139.3s-12.6,52-33.5,87s-38.3,69.6-43.8,104.6
				s1.8,51.9,1.8,51.9s-15.9-33.2,5.4-86.9c0,0,12.6-30.8,16.6-35.9l11.1-22.2c0,0,10-15.8,12.1-21.2s17.8-39.3,23.8-61.5l6-22.3
				c0,0,8.4-57.7,8.5-73.5s0.3-38.4,0.3-38.4s-1.7-24.5-1.5-28.3s4.5-36.6,5.1-42.5s14.7-38,17.2-43.5s10.7-26.7,10.7-26.7
				L323.5,171z"/>
			<path class="st5" d="M340.6,175.7c0,0-10,16.1-9.6,45.8s-11,179.4-32.6,207S242.2,582,251.8,630.1s65.6,49.1,81.8,14.7
				c0,0,4.2-12.5,16.5-10.5s11.2,23.7,11.2,23.7s6.8-24.3-12.7-26.5c0,0-7.6-5.7-17.8,12.8c0,0-11.4,32.9-58.5,15
				c0,0-23.7-14.2-19.6-65.5c0,0,9-69.2,19.2-91.3c0,0,11.3-39.5,15.2-48s10.3-22,10.3-22s11.8-14.8,14.5-29.3s10.9-53.5,11.4-61.9
				s9.7-62.2,9.9-74.2s0.6-62.7,2.6-68.9s9.5-21.1,9.5-21.1L340.6,175.7z"/>
			<path class="st5" d="M390.8,205.6c0,0-15.2,45.5-10,67s9.8,72.2-10.1,115.4s-57.3,79.2-62.7,121.3l-5.4,42.1c0,0,2.6-35,2.9-39.5
				s4.2-24.5,6.5-30.7s19.2-32.2,19.2-32.2s34.5-52.6,37.4-61.5s9.1-26.6,9.1-26.6s5.6-67.2,1.9-82.9
				C379.6,278.1,375.2,213.1,390.8,205.6z"/>
			<path class="st5" d="M283.3,183.1c0,0,8.5,24.8-10.4,39.5s-45.4,36.3-48.8,69.2s9.2,88.8,2.1,118.2s-25.9,47.5-25.9,47.5
				s16.5-21,20.1-35.2s6.8-31,4.8-54.6l-2-23.6c0,0-2.7-41.6-3.2-45.2s4.8-33.3,18.4-48c0,0,32.1-27.1,38.5-37.4s3.5-26.4,3.6-27
				S283.4,183.1,283.3,183.1"/>
			<path class="st6" d="M306.2,170.4c0,0-5.3,46.3-27.7,79.8s-49.1,174-52.9,218.4s-38.1,89.6-72.6,97.9s-36,13.7-40.5,38.2
				s17.5,36.1,20.7,36.1c0,0-17.6-0.8-22.9-26.4c0,0-0.3-16,6-28.6c0,0,5.1-11.3,17.1-15.5l12-4.2c0,0,29.2-12,40.8-21.6
				s11-11.7,11-11.7s14.3-19.4,18.6-33.8l4.3-14.5c0,0,9.7-68,10.6-73.6s5.3-28,5.3-28s16.7-72.6,20-82.7l3.3-10.1
				c0,0,13.2-41.7,17.7-48.3s12-20.5,14.1-26S298.7,169.3,306.2,170.4"/>
			<path class="st7" d="M358.9,182.6c0,0,10.7,2.5,4.8,24.6s-2.1,31.4-20.5,59.5s-39,57.4-43.9,81.9s-16.9,58.2-16.4,77l0.5,18.8
				c0,0-4-28-0.6-41.1s11.9-53.1,11.9-53.1s16.3-43.1,21.5-47.7s14.9-30.6,23.8-41.5s12.7-29,14.5-35.5S353.4,180.6,358.9,182.6"/>
			<path class="st7" d="M325.1,167c0,0-18.8,22.1-16.2,73.3s-31.5,69.5-49.9,105.4s-22,33.5-20,82.6s4,55.2,4,55.2
				s-8.3-63.9-8.1-79.8s13.6-44,13.6-44l22.5-40.6c0,0,23.7-30,26.4-38.1s7.5-39.2,7.5-39.2S301.3,166.1,325.1,167"/>
			<path class="st8" d="M298.9,336.1c0,0-17.1,53.3-27.8,83.4s-38.5,74.7-26.7,112.4c6.3,20,15.4,35.7,22.4,47.8
				c6.2,10.6,10.8,18.5,10.6,24.1c-0.4,12-30.3,68-30.3,68s24.5-41.9,29.6-49.7s7.8-23.8-10.4-51.8c0,0-26.2-33.1-19.1-71.7
				C247.2,498.5,302.7,341.4,298.9,336.1"/>
			<path class="st9" d="M256,300.3c0,0-14.5,134.4-60.6,150.8s-105.3,73.9-108,89.8c-0.2,1-0.3,2.1-0.5,3.1
				c-1.3,8.1-1.6,16.4-0.9,24.6c0,0-4.3-23.5,0.4-32.3c0,0,18.3-23.7,27.1-31.9s11.5-10.8,11.5-10.8l24-19.1c0,0,9.9-4.9,12.8-8
				s15.8-11.5,20.3-12.7s17.4-5.6,20.7-9.2s15.2-15.7,15.5-17.2s18.3-27.8,20.3-56.2l0,0c0,0,6.1-20.7,8.3-32.5s3.5-26.6,5.6-34.7
				s12.7-32.3,12.7-32.3L256,300.3z"/>
			<path class="st10" d="M355.2,252c0,0-14.9,40.6-18.7,59.9s-15.3,84.3-5.8,112s-4.3,101.9-22.1,132.7s-25.8,61.7-14.2,82.2
				s14.8,26.4,12.4,33.3l-2.4,6.9c0,0,8.1-8.2,0.6-25.3c0,0-26.9-32.7-8.3-68.2c0,0,21.5-42.1,22.8-50.2c0,0,15.5-48.6,16.1-67.5
				c0,0,2-30-2.2-39.6l-4.2-9.5c0,0-0.3-46.4,2.9-67.5l3.3-21.1l11.2-47.5L355.2,252"/>
			<path class="st10" d="M329,170.2c0,0-17.1,41.5-19.2,75.1s-23.6,104.6-33.6,118.5s-12.3,22.9-12.3,22.9s6.1-14.9,12.4-27l6.4-12
				l10.6-33l12-50.3C305.3,264.3,315.6,167,329,170.2"/>
			<path class="st10" d="M329.6,175.3c0,0-11.2,33.7-13,67.3s-8.7,63-15.4,73.1l-6.6,10c0,0,14.9-10.9,19.5-45.8l4.5-35
				c0,0,9.3-47.6,14.7-68.1S329.6,175.3,329.6,175.3z"/>
			<path class="st9" d="M396.1,212.4c0,0-9.9,38.5-16.2,53.2s-21.1,37.9-21.9,69.2s1.9,94.2-0.7,110.8s-48.6,36.8-57,64
				s-19.2,74.5,2.4,98.4l21.6,23.9c0,0-36.6-25.5-35.6-60.3c0,0-3.4-25.8,5.1-49.8c0,0,4.2-19.8,15.5-31.1l11.2-11.3
				c0,0,27-21.3,30.5-27l3.4-5.6c1.3-6.5,1.9-13.1,1.9-19.8c0.1-11.6-0.7-63.8-0.7-63.8s-0.6-27.8,1-35.1l1.6-7.3
				c0,0,4.6-24.8,11.7-38.8l7-14c0,0,12.3-37,13.3-41.6S396.1,212.4,396.1,212.4"/>
			<path class="st10" d="M280.9,190.2c-0.1,2.4-5.3,31.1-16.5,45.7s-38.7,40.8-50.7,60.4s-16,25.2-33.6,29.2
				c-1.6,0.4-3.2,0.5-4.8,0.3c-12.7-2-12-27.1-2.6-52.4c10.4-28.1,24.1-25,31.2-41.8c3.8-9-0.5-15.7-7.6-19.5
				c-6.8-3.4-14.5-4.3-21.8-2.4c-15.1,4-15.9,50.8-15.9,50.8s-2.4-14.4,1-24.1c0,0,2.4-21.4,11-26.3c0,0,15.3-6.1,30.2,2.8
				c0,0,12.2,7.6,5,19.2l-7.2,11.6L184.1,256c0,0-9.7,17-11.9,24.9s-6.9,23.7-4.8,28.8s0.8,10.8,6,13.4s15.2-2,15.2-2
				s7.8-2,13.7-10.8s10.3-15.5,10.3-15.5l25.8-32.6l16.7-18c0,0,12.9-17,15.8-22S280.9,190.2,280.9,190.2z"/>
			<path class="st10" d="M350.7,179.7c0,0,1.5,34.4-6.5,60.4s-30.9,81.7-29.2,94l1.7,12.3c0,0,15.5-75,18.1-85.2s10-31.5,11.6-37.8
				S342.7,173.9,350.7,179.7z"/>
			<path class="st11" d="M394.4,218.9c0,0-17.3,27.4-6.9,57s46.9,69.3,25.2,112.6s-59.3,79.7-47.5,93.3s10.9-6.6,10.9-6.6
				s1,10.5-2.9,12.7c0,0-11.6-3.3-11-13.3c0,0,0.8-9,8.4-20.8l7.6-11.8l16.5-24.4l12.7-20.6c0,0,5.1-9.1,6.4-12.7l1.3-3.7
				c0,0,5.8-11.1,2.4-34c0,0-5.5-17.6-9.4-26.7l-3.9-9l-8.6-15.8l-6.6-14.5l-4.1-11c0,0-2.5-8.7-1.5-16l1-7.4l0,0l3.2-13.7
				C387.4,232.7,390.9,217.3,394.4,218.9z"/>
			<path class="st12" d="M369.1,185.5c0,0,3.6,16.6-5.1,36.9s-26.1,55.5-29,79s6.8,42.2,17.6,46.1c7,2.5,13.6,5.7,17.1,10.2
				c2,2.4,2.9,5.4,2.5,8.5l-1,9.3c0,0,3.3-15.2-4.1-17.9l0,0c-6.2-5.3-13.3-9.5-20.9-12.5l0,0c0,0-11-6.6-13.5-31.4l0,0
				c0,0,0.5-18,7.8-40.7s24.4-56.4,25.6-67.8c0.7-6.6,1.1-13.1,1-19.7L369.1,185.5z"/>
			<path class="st13" d="M325.3,188.9c0,0-14.5,28-14,47.1s-3.7,62.2-11.8,75.5c-3.7,6.1-11.7,19.7-19.3,33.6l-2,3.6
				c-8.3,15.2-15.7,30.2-16.4,35.4c-1.3,10.5,6.7,24.5,6.7,24.5s-8.9-19.1-8.8-23s7-15.3,7-15.3l6.6-14l10.2-21
				c0,0,7.7-13.4,14.5-26.3s7.7-23.4,7.7-23.4s2.7-28.8,4.1-34.1s-1.7-18.6-1.7-18.6l9.6-34.4L328,175
				C328,175,337.5,162.6,325.3,188.9z"/>
			<path class="st13" d="M282.7,183c0,0-8.2,82.2-22.5,99.1s-37.9,61.6-48.9,93.5c-9.1,26.4-14,85.3-13.4,129.6
				c0.1,9.2,0.5,17.7,1.1,25.2c3.5,43.7-6.9,49.1-6.9,49.1s7.1-4.1,8.3-15.5c0,0-0.4-54-1.4-60.9s1.1-36.7,1.1-36.7
				s1.4-25.5,2.9-36.6s2.4-20.6,2.4-20.6c2.8-18.2,7.9-35.9,15.4-52.7l12.1-27c0,0,17.6-28.8,21.9-35.9s11-15.3,11.4-18.1
				s9.6-22.3,10.7-35.2s6.6-44.4,6.6-44.4L282.7,183z"/>
			<path class="st14" d="M338,175.1c0,0-7.5,3-10.6,29s-13.1,124.2-47.1,171.5s-42.1,125.8-43.5,136.9c-0.9,7.4-4.8,46.5-11.3,77.1
				c-3.4,15.8-7.5,29.2-12.2,34.9c-8.2,9.5-11,22.6-7.3,34.7c0,0-5.4-15.4-3.6-20.8s8.9-13.7,12.8-21.5s10.6-38.2,10.6-38.2
				l7.1-44.3l5.1-40.9l7.1-38.5c0,0,7.2-29.3,12.8-42.5c5.6-13.1,8.7-19,8.7-19s20.6-33.9,27.4-49.3s11.5-25.9,11.5-25.9
				s16-70.8,17.5-84.1S320.3,180.2,338,175.1"/>
			<path class="st15" d="M281.5,178.9c0,0-1.1,23.6-16.3,38.3c-7,6.8-19.8,9.7-32.5,16.5c-14.7,7.9-29.2,21-34.5,51.6
				c-9.9,56.9,15.5,66.4,8.9,87s-53.4,34.8-48.7,12.3c0,0,0.6-2.8,9.7-11.5c0,0-11,7.1-11.3,13.1s3.3,10.3,8.5,11.2s22-1.8,27.3-5.7
				s16.8-14.6,17.9-20s-2.1-18.2-5.4-27.1s-9.8-24.6-7.2-40s1.1-21,7-36.5s12.8-20.1,12.8-20.1s4.4-8.6,17.3-12.9
				s27.1-12.7,27.1-12.7S294.3,192,281.5,178.9z"/>
			<path class="st14" d="M396.1,212.4c0,0-8.5,7.3-6.9,16.5s30.4,39.2,28.2,75.6s-12.5,75.1-23.7,89.1s-65.3,139.8-46,173.1
				s53.8,14.8,60.9-15.8c0,0-4.9,17.4-8.8,22s-15.6,15.5-29.2,13.3c0,0-23.3-2.5-28.8-33.8c0,0,0.5-40.5,12.8-72.7l21.4-54.8
				c0,0,14.7-32.8,25.3-48.7c0,0,14.6-46.8,13.5-59.1c1.9-13.1,0.8-26.5-3.1-39.1c-6.6-20.5-8.6-20.6-8.6-20.6
				S372.5,221.3,396.1,212.4z"/>
			<path class="st14" d="M336.4,178.1c0,0-9,23.9-6.9,37.7s-1.4,33.5-10.1,47.8s-27.3,40.7-28,59.9l-0.8,19.2c0,0-2.3-23.4,0.3-31.4
				s14-25.3,16.8-32.4s15-26.3,16.6-32.8S325.4,177,336.4,178.1z"/>
			<path class="st15" d="M357.2,178.8c0,0,8.9,29.1-4.8,55.1s-21.6,65.1-22,91.7s13.1,21.6,8,44.5s-27.3,72.2-22.6,83.4l4.6,11.1
				c0,0-10.5-12.4-6.2-25.8c0,0,11-36.3,14.5-45.5s11.8-28.8,9.1-34.7s-10.1-23.4-9.3-33.4c0,0,0.8-32.6,7.7-55
				c0,0,13.9-34.3,16-39.6c0,0,10.5-16.8,2.3-49.4S357.2,178.8,357.2,178.8z"/>
			<path class="st15" d="M388.2,205.5c0,0-17.8,45.8-18.9,70.4s-0.8,163.5-38,227.2s-14.2,63.1-14.2,63.1s-9-0.9-8.5-9.7
				S307.7,543,314,531s15.8-30.7,15.8-30.7s5.7-5.1,11-21.8s6.3-17.1,6.6-18.3s8.1-37.2,8.1-37.2l7-47.8c0,0,2.3-28.9,3.6-37.5
				s-0.2-35.9-0.2-35.9s1.5-29.1,2.5-38.1s15-57.7,17.9-60.8S388.2,205.5,388.2,205.5z"/>
			<path class="st15" d="M307,170.4c0,0-6.2,18.6-7.4,32.7s-7.5,78-20.4,96.7s-32.1,38.8-35.8,58.4s-3.8,43.4-3.8,43.4
				s-1.9-26.6-0.6-32.6s4.9-26.9,8.4-28l10.2-15l19.3-26.5l10.4-26.7l7.6-51l8.6-51L307,170.4"/>
			<path class="st16" d="M319.7,166.4c0,0-10-6.4-18.2,35c-6.8,34.2-15,93.3-23.7,121c-0.8,2.5-1.5,4.6-2.3,6.6
				c-0.8,2.2-1.9,4.3-3.2,6.2c-10.6,14.7-39.4,57-52.8,102.8c-11.5,39.5-22.4,40.8-42.5,46.6c-3.2,0.9-6.7,2-10.4,3.3
				c-21,7.5-34,25.2-58.8,64.7l-3.2,5.1c-6.3,10.1-13.4,21.5-21.6,34.4c-42.9,67.9-41.2,32.7-52,29.7s-31,2.3-31,2.3
				s14.4-1.8,18.2-1.5s7.8-3.4,13.6,1s9.2,11.9,13.1,11.5s14.2-3.7,27-23.2s38.7-61,38.7-61s9.8-16.3,18.3-27.1s20-24.4,24.6-26.8
				s4-5.8,31.1-12.3c0,0,24.9-4.5,31.6-32.7c0,0,18.2-57.7,31.1-74.8c0,0,28.9-44.5,29.3-46.3s2.9-6.9,6.7-23l3.9-16
				c0,0,13.5-73.4,14.2-76.6S305.7,171.8,319.7,166.4z"/>
			<path class="st16" d="M347.8,174.1c0,0,10.8,2.3-1.5,49.3s-19.2,69.9-21.5,92s-1.5,50,12.4,66.8c1.5,1.8,3.1,3.8,4.7,5.9
				c12.5,15.9,28.9,40.4,32,59.9c0.4,2.2,0.5,4.4,0.5,6.6c-0.3,21.7,5.8,72-21.5,120.1c-1.4,2.4-2.8,4.9-4.4,7.3
				c-32.3,50.2-23.8,61-23.8,61c-2.4-6.3-2.4-13.4,0.1-19.7c4.2-10.8,11.8-24.2,11.8-24.2l18.5-31.3c0,0,17.4-30.7,16.6-59.5
				c0,0,1.6-51.4,0.5-61.2c0,0-7.3-34.4-36.6-64.9c0,0-11.1-2.8-12.9-53c0,0,1.3-26.4,7.5-50.2c0,0,17.9-66.9,17-75.3
				S343.8,169.5,347.8,174.1z"/>
			<path class="st17" d="M382.4,197.9c0,0-31.5,94.2-21.9,125.8s27.9,60.9,20,94s-32.5,44.2-39.4,86.3s75.7,82.7,99.3,50.8
				s29.9-113.5,46.1-116.5s26.8,19,18.7,35.1s-19.8,30.5-15.1,35.6l4.6,5.1c0,0-5.9-6.2-5.3-8.1c0,0-1.9-2.3,11.4-23.4
				c0,0,12-14.9,6.5-29.9c0,0-5.9-19.2-22.4-14.4c0,0-7.9,4.7-10.7,17.8c0,0-10.2,33.7-10.6,37c0,0.2,0,0.2,0,0.3
				c0.5,0.3-9.6,32.6-10.1,33.2c0,0-9.1,23.4-12.3,26.2c-6,8.3-15.8,13.1-26.1,12.7c0,0-22.6-0.8-43.3-13.3c0,0-23-14.4-27.9-30.4
				c-1.6-4.6-2.5-9.4-2.7-14.3c0,0,2.3-18.3,8.2-29.2c0,0,22-36.9,23.5-39.7c0,0,7.2-13.6,8.6-20.7c0,0,2.8-16,1.2-27.6
				c0,0-1.1-8.7-3.1-16.5l-9.4-25.6c0,0-9.3-22.6-10.3-33.1c0,0-0.9-20.9,2-31.8c0,0,7.1-37.5,8-39.3c0,0,9.5-28,12.2-38.7
				S387.8,200.4,382.4,197.9z"/>
			<path class="st17" d="M295.6,164.8c0,0-12.1,14.9-12.3,40.3s4.4,73.4-27.2,108.7s-67.4,93.3-81.4,162.8s1.6,159.3-6.1,172.9
				s-10.8,13-10.8,13s14-3.7,13.9-27.8c0,0-0.6-104.3-0.3-113.8c0,0-3.6-14.6,14.4-81.1c0,0,33.7-78.3,46.6-93.7
				c0,0,39.3-42.5,43-60.1c6.7-15.8,10.2-32.7,10.5-49.8c0,0-2.2-45.7,5.6-57.5S295.6,164.8,295.6,164.8z"/>
			<path class="st18" d="M372.9,191.4c0,0,6.5,7.1,3.8,14.7s-27.9,81.9-18,99.7s17.1,36.5,41.9,36.5s73-52.4,89.7-32.1
				s40.8,64.4,6.3,76.7c0,0-65-10.8-73.5,27.5s24.3,25.1,19.7,8.4c0,0,3.2,9.5-0.6,13.2s-19.1,13.6-23.6-9c0,0-1.3-30.3,25.6-38
				c0,0,27-8.1,47.1-6.1c0,0,23.4,0.3,20.1-22c0,0-1.6-28.5-26.7-52.1c0,0-2.4-7.7-49.1,21.4c0,0-37.6,28.1-60,5.5
				c0,0-23.1-23.9-22.2-50.9c0,0,19.8-79,20.7-82.3S372.9,191.4,372.9,191.4z"/>
			<path class="st19" d="M294.3,171.2c0,0-7.1,62-32.5,84s-79.3,21.5-92.6,69.5s100,120.2-12,153.9c0,0-121.5,24.7-68-114.8
				c0,0,2.5-24-25.3-12.8c0,0-10.6,2.1-4.1,19.4c0,0-9.2-9.3,1-20c0,0,22.3-13.6,31.4,6.6c0,0-0.8,11.4-7.9,30
				c0,0-18.5,62,10.4,77.2c0,0,18.1,14.8,42.9,13.8c0,0,52.6-5.1,63.1-29.6c0,0,16.9-15.6-20.3-72.8c0,0-37.5-48.4,7.9-84.3
				c0,0,15.8-10.7,44.6-23.4c0,0,45-10.2,54.2-72.2C287.2,195.7,290.2,167.6,294.3,171.2z"/>
			<path class="st16" d="M327.6,169.3c0,0-24.4,44.4-19.8,93.7s-5.6,174.9-28.6,215.2s-27,38.2-31.6,70.6s-0.8,73.3-0.8,73.3
				s0.1,11.8-8,17.1l-8.1,5.3c0,0,13-3.5,17.4-16.1c0,0-1.4-51.1-0.3-59.9c0,0,0.1-31.2,9.8-47.5c0,0,24.9-38.4,28.5-48.6
				s15.6-53.7,17.4-70.9l1.7-17.2l6.5-95c0,0-4-49.5-0.1-63.7s17.4-55.4,17.4-55.4L327.6,169.3z"/>
			<path class="st20" d="M335.8,174.3c0,0-8.1,9.3-10.5,33.6s1.3,52.4-3.3,74s-1.2,24.9-10.7,55s-17.8,35-20.1,49.8
				c0,0-3,15.4,1.6,23.1s-1.4,17-1.8,17.4s3.8-8.6,1.9-12.1c-5.5-11.5-5.9-24.9-1.1-36.7c0,0,16.7-32.7,19.9-49.2
				c0,0,8.6-51.1,10.7-66.7s0.8-18.4,0.8-18.4S320.5,177.3,335.8,174.3z"/>
			<path class="st20" d="M361.6,183.6c0,0,5.8,2.9-3.6,37s-22,57.6-22.1,96.2s-6.7,64.4-9.4,66.9s2.3,5,7.1-20
				c0,0,5.8-39.5,5.2-51.1c0,0-2.4-20.1,8.5-51.4C347.2,261.3,373.3,193.4,361.6,183.6z"/>
			<path class="st20" d="M396.4,208.8c0,0-10.5,7.7-16.8,33.1s-6.1,52.1-2.8,62.1c1.5,4.5,6.9,13.5,16.5,22.2
				c11.5,10.5,28.9,20.7,52.9,22.9c0,0,25.1,3.1,13.2,42.8c0,0-9.8,22.7,10.1,30c0,0,8.2,0.5,9.8-8c0,0-1.5,12.7-11.7,8.4
				c0,0-13-5-11.2-22.9c0,0,10-27.3,2.9-38.6c-2.5-6.1-8.1-10.3-14.6-11.2c0,0-27.6,1.2-56.1-26.3c0,0-16.4-11.2-15.1-39.3
				c0,0,1.1-28.9,6-45.6C379.3,238.5,386.1,209,396.4,208.8z"/>
			<path class="st20" d="M290.6,179.6c0,0-3,18.1-2.9,31.5s-2.9,46.4-14.9,58.5s-13.2,12.2-15.2,23.3S257,316,256,320.6
				c-0.4,2.1-0.9,4.2-1.8,6.1c2.1-3.7,3.2-7.8,3.3-12c0.3-7.4,0-17.5,0.8-21s2.9-11.3,8-16.1c4-3.9,7.7-8.1,11.2-12.4
				c0,0,6-11.9,8.2-24.1l3.1-20.5l4.8-42.8C293.7,177.8,291.7,175.4,290.6,179.6z"/>
			<path class="st20" d="M320.2,170.5c0,0-10.4,12.8-11.6,25s-2.5,27.2-5.9,34.3s-5.2,21-4.5,24.2l0.8,3.2c0,0,1.6,16.1-2.6,26
				l-4.2,9.9c0,0,5.8-10.7,6.9-15.5s1.5-14.5,1.3-20s-1.7-6.5-1.3-9.5c0.8-6.7,2.5-13.3,5.1-19.6c0,0,5.6-23,5.5-28.3
				c0,0,4.8-18,11.7-28.3S320.2,170.5,320.2,170.5z"/>
			<path class="st20" d="M280,187.8c0,0,3.8,63.8-32.3,99.2s-40.2,49.1-49.2,76.4s-3.5,67.9-27,73.8c-13.3,3.6-27.5-0.8-36.4-11.5
				c0,0,24,19,38.2,8.7c0,0,14.3-4.6,17.3-41.2c0,0,7.3-59,30.8-81.3c0,0,39.5-38.7,45-58.6c0,0,11.9-34,11.1-42.8
				S280,187.8,280,187.8z"/>
			<path class="st20" d="M380.4,197.4c0,0-4.9,44.5-14.5,53.3s-22.5,43.6-18.1,75.7s11.4,70,6.5,85.7l-4.9,15.7
				c3.8-9.1,6.4-18.7,7.7-28.5c1.8-15-3-41.4-3-41.4s-6.2-39.1-5.3-44.7s-0.5-29,7.4-41.7c0,0,5.9-14.5,10.6-17.6
				C366.6,254,378.7,241.5,380.4,197.4z"/>
			<path class="st21" d="M338,175.1c0,0,6.1,13.8-0.1,46.2s-22,86-19.6,112.6s2.2,67.5-9.2,93.6c-0.3,0.7-0.6,1.4-0.9,2.1
				c-11.9,28.1-37.6,107.9-24.3,135.8c13.7,28.6,4.7,45.8,4.7,45.8s4.3-5.1,4.1-16.3c0,0,1.3-21.3-8.7-37.4c0,0-6.2-14.3,1.6-46.7
				c0,0,10.8-38.7,15-52.8c0,0,2.4-10.3,11-29.9c0,0,7.4-19.9,8.6-34.9c1.3-16.4,1.7-32.9,1.2-49.4l-0.5-18.9l5.1-37.7
				c0,0,16.8-70.9,17.5-77S347.5,178.8,338,175.1z"/>
			<path class="st22" d="M370.3,188.9c0,0,0.5,26-7.3,42.2s-24.5,74-20.9,91.9s-1,67.5-8.6,82.1l-7.6,14.6c0,0,14-17.4,16.9-51.4
				s2.5-60.8,2.5-60.8s0-23.8,9.9-46.9C355.2,260.6,383.3,200.5,370.3,188.9z"/>
			<path class="st22" d="M307,170.4c0,0-8.7-3.5-11.4,37.9s1.9,75.1-6.5,102.9s-38.6,72.3-37.3,96.1s-0.3,32.7-0.3,32.7
				s-1.2-23.8-1.2-31.1s-1-10.7,6.2-29.2c0,0,23.4-48.8,27.4-60.4s5-16.1,5-16.1s4.1-57.3,4-74.8S293.9,170.3,307,170.4z"/>
			<path class="st23" d="M353.7,178.6c0,0,6,14.8-7.8,36.9s-32.2,82.7-34.4,94.4s-2.1,54.7-3.3,77.2s0.6,55.9-12.8,94.6
				s-43.8,84-30.2,115.5s9.8,40,9.8,40s-2.8-18.9-5.7-26.2s-9.8-24-9.5-26.5s0.1-13.9,4.9-28.9l4.8-15c0,0,14-31.4,16.4-38
				s8.6-22.8,8.6-22.8s9.5-35.3,10-49.8s1-20.6,1-20.6l1.6-42.6c0,0,2.2-44.6,2.4-47.2s2.1-14.7,4.5-21.3s13.1-44.6,13.1-44.6
				s12.5-29.3,13.8-32.4s11-22.4,11.4-29.5S342.5,222,353.7,178.6z"/>
			<path class="st12" d="M322.8,174.2c0,0-9.4,15.4-11.8,33.9s-4.6,49.1-9.5,62.1s-2.2,16.3-7.3,22.7s-8.8,10-9.4,15.6l-0.6,5.7
				c1-3.9,2.6-7.7,4.7-11.1c3.2-4.7,9.7-12.8,10.3-16.5s9.3-37.1,9.3-37.1s3.5-32.6,3.6-36.2s2-16.5,3.8-20.4s8.5-19,8.5-19
				L322.8,174.2z"/>
			<path class="st23" d="M298.6,174.7c1.2-0.4-9.9,22.3-9.3,39.9c0.5,12.5,2.6,24.8,0.4,37.7c-0.9,5.6-2.7,11-5.2,16.1
				c-9.4,19.2-17,20.6-20.2,32c-0.1,0.4-0.2,0.8-0.3,1.1c-2.7,10.4-0.8,12-0.8,12s-2.5-6.6,0.6-16.9c0,0,9.3-11.4,11-13.9l1.7-2.6
				c0,0,12.6-16.9,12.3-32.2c0,0,0.4-24.9-0.4-28.9S289.8,177.1,298.6,174.7z"/>
			<path class="st24" d="M337.5,177.9c-4.7,5.9-6.9,13.5-6,21c0.8,7.7-0.8,15.4-4.6,22.1c2.7-4.7,4.7-9.8,6-15.1
				c1-4.3,0.9-8.7-0.2-13L337.5,177.9z"/>
			<path class="st24" d="M307.2,172.2c0,0-4.5-7.6-6.1,12.8c-0.2,2.1-0.3,4.1-0.4,6c-0.6,16.1,2,22.8,0.5,24.4l-1.6,1.8
				c0,0,4.3-1.1,3.4-5S299.4,171.8,307.2,172.2z"/>
			<path class="st25" d="M279.7,196.7c-0.2-3.2-0.9-6.4-2-9.4c-1.9-5-6.9-10.2-6.6-15.5s4.5-15.3,5.7-22s2-11.9,5.7-14.6
				s15.9-7.3,17.7-6.9s24-7.4,29.1-8.5s19.2-5.3,25.3-1.1c6,4.3,7.3,8.4,11.7,10.1s20.6,7.4,28.2,14.9s19.1,20.8,20,27.7
				s1.4,25.3-0.6,34.9s-17.9,22-19.5,18.1s1.1-6.7-2.5-12.8s-11.1-8.7-18.5-15.6s3.5-7.5-16.4-12.5s-26.5-7.2-32.1-9.2
				s-17.7-2.1-24.4-0.3s-9.7,11.7-10.6,12.8S279.8,198.1,279.7,196.7z"/>
			<path class="st26" d="M279.7,196.7c0,0-0.5-6.8-2.8-10.8s-8.4-11.3-4.7-22.9s9-27,13.3-29s22.5-8.3,32-11.4s29.4-6.8,37.4-3.9
				s2.7,6.6,21.5,14.1s34.7,27,37.8,37.8s2.1,36.7-2.1,41.5s-5.8,4.8-8.9,8.9s-5.3,5.9-8.3,4.7s-1.5,2.6-2.9-10.5
				s-17.8-16.5-26.3-26.2s-18-3.8-32.7-10.7s-35.5-9.7-39.5-2.6S283.9,201.1,279.7,196.7z"/>
			<path class="st27" d="M277.1,185c-1.2-2.1-1.9-4.3-2.3-6.6c-0.8-4.3-0.1-2.2,0-7.3s-3.3-1.2-0.6-7.4s3-7.8,4.6-9.8
				s4.1-7.1,11.5-9.7s7.3-5.6,11.8-3s16.1,4.3,21.8,6.3s0.1,6,14.1,3s15.5-3.7,23.7-2.4s11.7,2.9,17.9,3.8s4.7-2.3,11,2.2
				s8.7,4.8,9.4,6.4s8.5,10,8.1,17.1s1,8.1,1.8,11s3.1-3.9-0.3,6.8s-3.4,13.5-3.5,16.5s-1.2,4.4-4.8-0.5s7.3,0.6-12.4-11.3
				s-20.8-14.1-28.7-16.4s-16-4.1-21.8-5.3s-13.2-5.8-18-5.8s1-2.7-9.1-0.8s-16.1,1.4-20.1,4.9S279.2,187.7,277.1,185z"/>
			<path class="st28" d="M328.5,136.2c-1.7-0.8-1.9,0.2-6.7-0.6c-3.1-0.6-6.4-0.5-9.5,0.4c-2.8,0.6-7.5-0.7-9-0.1s-10.2,2.6-5.7,4.3
				s15.5,2.8,18.9,2.4S337.5,140.5,328.5,136.2z"/>
			<path class="st29" d="M349.4,134.2c2.3-0.6,4.7-0.4,6.7,0.7c1.9,1.2,2.2,1.1,3.5,2.8s1.3,2.5,3.8,4.6s3.6,0.6,5.5,2.4
				s-0.9,1.2,3.5,3.5s8,2.6,6.8,3.9s4.7,3.8-3.7,2.2s-9.2,0.4-12-2.5S344,135.7,349.4,134.2z"/>
			<path class="st30" d="M393.4,161.3c-2-0.7,1.4-5.3-4.9-4.2s-1.6,1.7-10.4,1s-3,0.5-8.8-0.7s-3.8-1.5-6.5-2.5s-2.2-1.4-5.9-0.4
				s3-5.2-11.4-2.1s-18.8-1.6-13.7,4.5s-10.3,0.8,16.6,8s25.2,11.7,32.6,16.6s4.9,9.7,7.8,1.6S402.4,164.4,393.4,161.3z"/>
			<path class="st31" d="M406.1,217c1.4-1-0.5-0.1,2-3.6s3.8-1.7,3.8-7.6s-2.7,3.8-1.7-8.6s1.5-7.2-0.3-13.6s-2-13.8-3.5-7.9
				s-2.6,4.5-2,9.6s-2.4,1-1.5,7.1s-1.3,7.3-2.1,10.9S404.8,218,406.1,217z"/>
			<path class="st32" d="M326.8,137c0.5,0.1-4.1,1.2-2.3,2.1s2.4-1.1,5.1,1.1s4.5,2.4,6.3,2.4s7.1-0.7,7.9-0.1s0.4,0.1,3.1,1.6
				s7.5,2.9,9.6,3.9s2,0.6,4.2,1.9s-0.4-2.1,4.4,2.3s4.9,4.1,6.2,4.9s4.4,2.8,5.8,2.9s2.3,3.1,3,0.6s3.2-2.1-2.2-5.1
				s-1.2-0.2-8.2-4.8s0.3,1.1-7.8-6.4s-2.5-5.2-10.7-9.8s-14.4-3.9-15.6-3.3S318,135.1,326.8,137z"/>
			<path class="st33" d="M392.7,161.1c-0.3-0.1-0.3-2.3-1.9,0.9s-5.1,0.3-5.7,4.3s2.4,3.9,1.6,7.8s-2.9-0.7-2.9,4.8
				s-1.8,4.9,0.4,7.5s5.1-1,6.3,5.2s0.4,3.3,1.2,6.2s3.6,3.7,3.1,0.7s-6.8-2.8-3.3-6.4s5.9,3.6,5.8-5.6s-1.1-9.1-0.5-10.6
				S403.9,163.6,392.7,161.1z"/>
			<path class="st28" d="M312.6,156.2c-6.6-1.7-20.2,1.4-19-3s-6.9-2.9,7.7-7s16.2-4.6,18.3-4.5s-5.2-0.9,5.5-1.7s15.4-6.5,17.5-7
				s2.8-6.2,4.7,0.1s10.3,1.7,2.5,7s-8-7.3-7.9,5.3s11.4,14.4-0.8,14.2S312.6,156.2,312.6,156.2z"/>
			<path class="st34" d="M281.8,190.6c0,0.1-1,4.1-2.6-1.7s-1.8-3.3-1.4-10s-3,2.1,1.8-8.7s-1.6-6.4,6-12.1s8.3-7.8,9.8-7.3
				s14.7,5,17.1,5.2s-1.4-7.1,15.5-1.7s25.2,8.6,26.7,9s8.5,5.1,9.1,6.5s3.2,5.4,4.5,8.9s2.3,2.8,11.5,7.3s17.9,8.7,18.7,10.8
				s2.1,1,1.9,7.8s2.6,1-0.4,9.3s-0.8,16-4.7,7.1s-3.6-8.4-6.7-11.8s-2.8-2-6.3-6.3s-2.9-4.4-8.3-9.1s3.4-0.9-7-6.2
				s11.6-0.8-16.2-9.3s-38.7-8-46.5-5.5S281.8,190.6,281.8,190.6z"/>
			<path class="st35" d="M284.2,171.2c0,0,2.1,3,3.7-3.4s3.3-12.4,6.5-12.6s24.9,1.1,27.9,1.8s13.6,3.5,19.5,4.1s16.3,2.8,18.6,3.9
				s2.3,2.7,5.9,5.4c3.3,2.5,6.9,4.7,10.7,6.4c4.6,2.2,10.4,3.4,10.8,6.1c0.4,2,0.8,4,1,5.9c0.7,4.3,1.7,8.5,3,12.7
				c0,0,5.5,4.3-2.7-0.6s-87.4-36.2-93-29.4S276.5,181.1,284.2,171.2z"/>
			<path class="st36" d="M283.7,179.4c0,0-2.9,3.2-1.6-3.2s0.3-7.6,2.6-7.1s4.9,3.3,5.6,1.2s1.1-0.7,3.6-3.7s-0.5-2,4.2-4.8
				s4.1-4.5,7.5-4.1s8.1,3.6,9.6,5.5s-2.1-0.5,7.4-2s15.7,2.3,17.4,3.6s-0.7,3.4,3.7,2.1s13.6,0.3,14.3,1.7s2.9,2.8,3.6,4.3
				s4.3,3.8,8.1,5.2s6.1,1.3,6.8,2.4s2.6,5.6,3.3,5.6s3-0.4,6.1,5.6s3.8,7.5,5.6,8.2s4.4-2.9,3.3,4s8.1,6.7,7.2,11.2
				s-0.5,5.4-4.9,5.3s-7.6,1.3-7.7-4.2s1.8-7.2-1.2-10.8s-3.7-6.6-8.8-11s-1.1-2.3-8.3-7.6s-6.4,0.2-18.3-3.8s-13.6-4.8-19-7.8
				c-3.8-2.1-7.8-3.7-12-4.8c-0.9-0.2,6.6,0.1-11.1-0.1s-15.7,0.4-18.7,5.7s1.4,13.7-4.5,12.9S279.7,203,283.7,179.4z"/>
			<path class="st37" d="M287.3,178.6c0,0-7,0.8,0.7-3.3s10.4-8.4,10.4-8.4s5.7,0.2,9.8,0.2s8,2.6,10.7,2.2s2.2-1,4.3,0.6
				s14.8,2.4,18.4,3.2s1.8,0.4,8.5,1.8s21.6,6.6,22.9,10.6s9.5,4.6,14,12.2s6.5,15.3,2.9,11s1.6,2.6-9.6-7.7s-13.3-10.8-16.3-13
				s-12-4.6-19-6.2s-5.9-0.7-14.6-4.4s-21.4-3.9-24.2-4.1s-5.7,0.6-9.9,3.4s-3.4,3.9-5.2,5S284.3,186.8,287.3,178.6z"/>
			<path class="st38" d="M275.5,166.8c0.3-1.4,0.1-1.4,2.4-5.9s-1.7-2.7,3.8-7.8s7.9-7.3,10.2-6.6s3.5-3.1,4.2-0.6s1.8,3.8-0.7,5
				s0.1,0.9-2.5,1.3s-1.7-5.9-4.5,0.1s-2.4,5.6-4.3,7.1s0,1.1-2.5,4.5S273.7,174.3,275.5,166.8z"/>
			<path class="st39" d="M355.7,143.6c-2.6-0.3-2.2-3.3-4.5-2.6s-1.5-0.6-1,4.6s2.3,6.2,2.3,7.4s-1.7,1.3,0.7,2.5s6.6-1,7-1.6
				s3-1.8,4.9-1.6S365.1,144.6,355.7,143.6z"/>
			<path class="st33" d="M396.5,162c0,0-4.3-0.9-0.5,2.6s4.1,4.2,4.3,4.6s-0.1-1.3,0,2.6s4,7.7,5,10.9c0.9,3,1.5,6.2,1.7,9.3
				c0.1,2.4,0.3,3.9-1.4,6.5s-0.1,5.6-0.4,11.7s2.1,8.1,2.6,4.8s2.6-8,1.5-13c-0.8-3.7-0.7-7.6,0.2-11.3c0.6-2.8-1.8-1.9-1-6
				s3.4,0.2-0.3-7.4S398.4,161.9,396.5,162z"/>
			<path class="st40" d="M334.9,153.3c0,0,2.7-3.7,1.1-5.2s-6.2-1-1.4-3.6s2.1-2.2,4.8-2.6s4.2-5.3,6.5-0.1s1.3,4.2,2.7,6.5
				s6.6,2.6,2.6,3.2s-4.9,0.4-7.5-0.6s-1.3-1.9-3.4,0.5S333.8,158.5,334.9,153.3z"/>
			<path class="st41" d="M387.3,180.3c-0.9-0.4,2.8-0.8-0.6-2s-4.2-2.1-6.5-1.4s0,2.1-0.6,3s0.3,3.4-2.5,2.3s-5-3.4-2-0.4
				s4.1,1.9,6.1,4s0.8,4.1,2.3,3.8s2.7,1.2,3-0.6s3.1-3.5,1.2-5.6S394.5,183.7,387.3,180.3z"/>
			<path class="st42" d="M399.4,175.5c0,0,1.9-5.7,3.1-3.5s1.4,2.6,1.1,4.8s0,0.7,1.3,4.9s3.6,5.5,2.8,7.1s-3.9,0.9-5.3-1.1
				s-0.1,0.2-1.7-3.7C399.7,181.3,399.2,178.4,399.4,175.5z"/>
			<path class="st43" d="M292.9,152.1c-1.6-0.4-0.1-4.6-2.3-2.3s-2.9,0.1-3.7,2.4c-0.3,0.9-0.4,1.9-0.3,2.9c0.1,0.9-0.2,1.8-0.8,2.4
				l-1.6,1.7c1.6-1.7,10.3-2.6,10.3-4S295.1,152.6,292.9,152.1z"/>
			<path class="st44" d="M279.3,174.7c-1.1-1.5-3.2-2.6-2.4-4.4s0.2-0.7,2.4-3.6s0.9-2.6,2.4-4.4s3.4-4.3,2.4-3.1s1.9,1.6-1.5,4.5
				S279.3,174.7,279.3,174.7z"/>
			<path class="st45" d="M294.3,176.3c0,0-3.7,0.8-1.6-1.5s3.6-3.9,5-3.6s-1.8,1.5,2.7,0.6c3.3-0.7,6.6-0.9,9.9-0.8
				c1.4,0.1,0.5-2.6,1.4,0.1s3,2.8-0.5,2.5s-3.5-0.3-6.2,0.2s-6.3,1.1-7.7,2S292.8,178.9,294.3,176.3z"/>
			<path class="st43" d="M309.5,147.9c-1-0.3,1.5,2.9-3.6,1.5s-4.9-2.8-5.3-3.3s-2-0.6,0.3-1.5s1,2,4.5-1.8s5.1-6,4.6-3.5
				s-1.6,3.9-0.9,4.3S313.6,149.2,309.5,147.9z"/>
			<path class="st46" d="M297.3,156.6c1.8-2.2,1.7-0.7,5.2-1.5s2.8-1.7,6-2.4s4.1-0.4,7.9-1.1s3.8-2,6.4-0.9s5.2,3.7,6.8,4.2
				s5.1-5,1.6,0.5s-3.9,7.1-7.4,4.2s0.2-2.8-3.5-2.9s-5.1-1.1-7.9,0.5S292.3,162.8,297.3,156.6z"/>
			<path class="st47" d="M351,158.9c0.9-0.6,2.1-0.4,2.7,0.4c0,0.1,0.1,0.1,0.1,0.2c1.1,1.8,3,3.8,5.2,3.8s5.7,2.4,3.4-0.1
				s-2.4-2.9-4.5-5.1s-1.4-2.9-4.6-2.6S344.8,157.9,351,158.9z"/>
			<path class="st48" d="M367.1,159.9c0,0-3.2,0.4-0.7,3.3s3.6,4.5,3.6,4.5c0.4,0.8,0.8,1.6,1.4,2.3c0.8,0.8,3,2.7,3.9,1.9
				s1.7-2.4,0.6-3s-3,0.4-1.1-0.6s4.3,2.3,1.9-1S370.4,160,367.1,159.9z"/>
			<path class="st49" d="M399.3,183.8c-1.4-0.6-2.5-1.6-3.2-2.9c0,0-1.7-1.4-1.3,0.5s1.5,3.4,0.6,4.8c-0.5,0.8-1,1.7-1.4,2.6
				c-0.5,1.4,0.2,2.8,1.5,3.4c1.6,0.7,3.6,0.5,5-0.6C401.1,191,405.2,186.2,399.3,183.8z"/>
			<path class="st48" d="M372.2,177.5c0,0,2.7-0.7-2.7-2.6s-5-2.2-7.9-2s-3.8-2.1-2.8,0.2s4.7,3.6,6.3,4.3s2.6-0.9,3.5,1.9
				s1.4,2.3,2.9,4.3s0.3,3.6,1.5,1.9S378.5,181.3,372.2,177.5z"/>
			<path class="st48" d="M364.5,184.5c0,0,6.5,5.7,7.6,7s-1.7-3.1,1.1,1.3s3.5,9.5,4.2,5.6s1.3-4.9-0.2-5.9s0.4-4.8-2.9-5.2
				s-10.3-6-13.1-6.6s-4.8,0.1-3.6,1S360.3,183.4,364.5,184.5z"/>
			<path class="st50" d="M400.2,215.3c1.8,0.2,3.3-3,4.9-5s2.3-1.8,2-4.1s-2.1-0.1-1.3-5.1s3-11.9,0.3-5.6s-0.2,8-3.6,8.4
				s-3.8-4.7-4.8,0.3s-2.6,6.6-1.7,8.2S397.4,215,400.2,215.3z"/>
			<path class="st50" d="M277.7,187.3c2.1-2.1,2.1-5.5,0-7.6c-3.6-3.9-4.2-4.2-3.4-7.3s1.5-4.2,1.6-7.9s-0.4-5.5,1.2-5.9
				s2.8-9.1,1.6-0.4s-0.2,11-0.8,12.3s-2.9-0.2-0.7,3.4s3.6,2.7,3.4,7.5s0.2,5.1-0.7,6.3S277.8,193.2,277.7,187.3z"/>
			<path class="st41" d="M338.6,156.3c0,0,3.9-4,6.9-1s-0.2,1.1,3.7,2.6s1.1,0.6,5.8,3.8s3,1.1,7.3,3.3s-3.8-2.6,4.3,2.2
				s9.8,6,9.8,7.8s-2.1,3.2-4.1,1.8s1-2.1-4.7-5.2s-2.5-2.7-5.7-3.2s-8.9-5.1-10-5.5s0.2-0.4-5.2-1.1S332.5,161.3,338.6,156.3z"/>
			<path class="st40" d="M299.6,154.5c1.9,0.5,3.9,0.4,5.7-0.4c1.2-0.7,0.9-1.4,5.1-1.8s4.3-1.4,11,0.4s5.2,1.2,6.7,1.7s9.3,0.8,3-2
				s-4.9-2.7-9.3-3.5s-2.1-1.6-5.6-0.5s-6.3-1-7.7-0.8s-1-0.6-3.1,0.1s-2,0.8-3.6,2.7S289.3,150.9,299.6,154.5z"/>
			<path class="st51" d="M279.6,178c-2.1-0.2-2.2-1.6-3.9-2.4s-2-1.4-0.4-3.3s-0.8,1.7,1.6-1.9s3.5-6.2,2.4-3.6
				S283.5,178.3,279.6,178z"/>
			<path class="st52" d="M367.3,162.4c-1.7-0.7-3.1-1-3.5-1.4s-2.6-0.9-2.9-0.3s-3-0.1-0.5,2.2s2.2,1.7,5.1,3.4s3.2,2.9,3.2,2.9
				S370.8,163.8,367.3,162.4z"/>
			<path class="st53" d="M349.8,142.4c-0.1,0-0.8-1.1-1.7-2.1s-5.2-3.6-2.3-2.5s3.2-0.1,4.8,0.9s2-0.3,4.3,1.7s3.8,0.6,2.3,1.9
				S355.5,145.3,349.8,142.4z"/>
			<path class="st54" d="M307.9,135.4c-1.4-0.3-5,2.4-6.5,2s-1.2,1.6-1.5-0.4s-3.6-4.1,2.2-2.9s9-1.5,10.5-1.6s5.9-1.2,7-0.7
				s5.3,1.1,0.8,2.3S307.9,135.4,307.9,135.4z"/>
			<path class="st54" d="M389.8,189.3c-1.1-0.3-3.5-1.7-1.4,1.1s0.5,2.4,2.1,2.8S396.3,190.7,389.8,189.3z"/>
			<path class="st52" d="M403.7,189c-0.1,0,0.2,2.3-2.1,2.7s-0.1-4.6-2.3,0.4s-2.4,3.3-2.3,5s-0.1-0.9,1.4,2.4s0.3,5.1,2.5,4
				s2.1-2.7,3-4.8s0-2.4,1-4.5S413.4,190.6,403.7,189z"/>
			<path class="st55" d="M398.9,221.9c0,0,7.2-1.9,6.7-6.8s4.4-6.6,1-6.5c-2.5-0.1-4.8,1.3-5.7,3.6c-0.9,1.9-0.1,3.2-1.3,3
				S392.8,222.8,398.9,221.9z"/>
			<path class="st56" d="M351.3,172.5c-1-0.1-2-0.3-3-0.6c-3.8-0.8-0.7-3.2-6.6-1.4s-8,0.1-7.4,2s5.2,2.5,6.3,3.2
				c1.5,1.2,3.4,1.6,5.3,1.1c2.7-0.6,2.8-2.3,4.7-0.9s2.8,3.4,4,2.8c0.9-0.5,1.8-1,2.7-1.3C358,177.1,356.3,174.1,351.3,172.5z"/>
			<path class="st56" d="M393,163.4c-1.1-0.2-4.6-3.2-6.7-2.4s-5.5,0.9-1.5,2.7s4,1.4,4.6,2.6s-2.7-0.9,0.7,1.2s2.6,2.9,4,1.6
				S401.5,165.3,393,163.4z"/>
			<path class="st57" d="M314.6,147.1c0,0-1-1.6,4.3-0.6s6.7,1.1,9,1.5l2.3,0.5c1.4,0.3-0.8,1.1,3.2,0.7s3.8,0,4.8-0.9
				s-0.6-1.9-2.1-2.8s-1.3-0.5-6.5-1.4s-3.9-1-8.1-1.7s-7.7,1.1-9.4,1.8s-4.8-0.6-4.8,1.4S307.8,151.9,314.6,147.1z"/>
			<path class="st58" d="M376.7,165.5c1,1.7,2.2,3.2,3.4,4.7c1,0.9-2,1.3,2.2,1.8s9.5,2.8,6.1,0.1s-4.4-4.1-5.7-5.3
				s-2.2-1.6-3.5-2.6S369.7,158.8,376.7,165.5z"/>
			<path class="st59" d="M329.3,119.7c0,0,16.8-3.1,21.2-2s3.6-0.3,6.5,2s1.4,0.8,3.6,3.3s4.6,6.1,5.6,5.9s9,3.8,1.8,1.6
				s-6.6-0.9-8-2.5s3.6,0.9-3.3-2.6s-13.5-4.4-14.7-4.4s-4.1-0.2-6.1,0.5s0.8-0.9-4.7,1.3s-3.1,3.5-5.5,2.2s-9-1.4-9.2-1.6
				S325.5,120.3,329.3,119.7z"/>
			<path class="st60" d="M379.2,134c-0.4-0.1-0.6,2.9,3.6,4.4s1.5-2.3,6.8,2.7s9.3,5.2,9,6.7s3.5,7.4,4.7,6.9s0.8-1,0.8-1
				S394.8,138.7,379.2,134z"/>
			<path class="st60" d="M412.3,165.3c0,0-1.4,7.4-0.4,9.4s1.3,1.5,1.4,3.8s2.3,3,1.9,5.3s-1,8.8-0.1,9.5l0.9,0.7
				C415,193.3,421.2,181.1,412.3,165.3z"/>
			<path class="st60" d="M277.7,147.1c-0.5-0.1,0.2-8.4,3.2-10.1s1.5-3,5.3-4.6s17.4-5,20-6s4.8-1.1,1.6,0.3s-10.4,3.6-13.5,5.6
				s-4.5-1.5-5.6,3s-4.5,5.6-6.2,4.7S281.3,148.2,277.7,147.1z"/>
			<path class="st61" d="M396.7,151.5c-1.5-0.4-4-4.7-5.7-4.5s-2.5,1.4-1.2,1.9s2.7-0.4,3.1,0.9s0.4,1.6,2.1,3.9s3.5,3.7,4,2.7
				S401.6,152.6,396.7,151.5z"/>
			<path class="st62" d="M344.2,124.6c-3.5-0.2-2.4-3.7-5.1-2.3s-4,1.8-3.9,2.5s2,2.7,4,1.8s-2.1-2,2-0.9s4.3,0.8,5,1.3
				s0.2,0.7,2.1,1.1s2,2.6,1.9,0.4S350.5,124.9,344.2,124.6z"/>
			<path class="st42" d="M340.4,162c-1.1-0.5,1.7,1.2-2.4-0.5s-5.4-3.9-8.6-1.6c-1.3,1-2.7,1.9-4.2,2.7c0,0,5.5,2.2,6.1,1.8
				s-4.3-3.3,2.6-0.8S348.7,165.6,340.4,162z"/>
			<path class="st63" d="M386.7,193.1c-1.5-0.4,1.5-0.3-2.7-1.3s-5.5-1.7-5-0.7s0-0.2,1.6,1.2s1.1,0.7,1.6,1.4s-0.1,0.7,1.3,1.8
				s2.7,1.1,3.4,2.2s1.6,1.4,2.3,2.9s-0.4,4.8,1,2.1S394.4,195.1,386.7,193.1z"/>
			<path class="st63" d="M413.7,181.1c0,0-1.3-0.2-1.1,0.9s0.7,0.4,0.5,2.1s-1.9,0.8-0.8,3.9s-0.1,6,1.2,4.9
				S418.2,182.8,413.7,181.1z"/>
			<path class="st42" d="M379,134.7c-1.2-0.3-1.1-0.6-3.4-1.5s-5,2.1-8.8-0.2s-6.8,0.6-1.9,2.3s5.6,2.7,10.3,2.8s9.1,0.8,9.5,0.7
				S385,136.1,379,134.7z"/>
			<path class="st63" d="M288.1,137c0-0.9-1.1-1.4-2.1-0.4l-1,1C285,137.6,288.2,139.9,288.1,137z"/>
			<path class="st64" d="M284.5,143.1c-2.2-1.2-1.9-0.7-3,0.6s0.7,0.9-1.7,2.6s-2.4,1.7-2.5,3.6s-3.3,4.1,0.4,2
				S286.9,144.4,284.5,143.1z"/>
			<path class="st65" d="M338.3,126c-1.6-1.4-1.1,0.8-3.5,0.3s-2.5-2.1-5.1-1.1c-1.6,0.6-3.1,1.4-4.5,2.3c-0.6,0.4-6.5,2.3-0.3,1.4
				S340.7,128.3,338.3,126z"/>
			<path class="st66" d="M358.3,134.5c-1.2-0.4-1-3-2.6-1.7s-2.1,0.9-0.8,1.5s1.1,1.6,1.8,2.1s-0.8,0.5,1.1,0.9
				S365.6,136.9,358.3,134.5z"/>
			<path class="st66" d="M378,142.5c-1.7-0.9-3.7-1.3-5.6-1.2c-1.1,0.1,0.3,1.7,0.3,1.7s1.4-0.3,2,0.5c0.6,0.7,1.2,1.3,1.9,1.9
				c0.6,0.4-1.6,0.1,0.6,1.1s2.6,1.1,3.1,0.5S384.3,145.4,378,142.5z"/>
			<path class="st67" d="M406.9,161.3c-0.2-0.1-0.1-1-1.1-1s-1.3,0.5-1,1.4c0.2,0.7,0.5,1.3,1,1.9c0.7,0.9,1.2,2,1.7,3
				c0,0-1.3,0.8,0.7,0.7S410.4,162.8,406.9,161.3z"/>
			<path class="st68" d="M355.6,121.7c-0.4-0.1-1.6-1.6-2.4-1.3s-1.2-0.9-0.8,0.3c0.1,0.8,0.6,1.4,1.3,1.9c0.6,0.4-0.3,0.7,2.3,1.6
				S359.8,122.9,355.6,121.7z"/>
			<path class="st67" d="M306.2,126.4c0,0,1.1,0.5-4.2,2.1s-8.2,2.4-7.6,2.9s3.5,1.8,5.1,1.4s0.1,0.1,3.3-2.1
				S315.1,129.1,306.2,126.4z"/>
			<path class="st69" d="M349.4,119.5c-3-2-9.8-1.6-7.2-0.6s2.7,1.6,4.3,1.6S350.9,120.5,349.4,119.5z"/>
			<path class="st69" d="M394.5,143.7c-0.4-0.1-2.3-2.3-4.1-1.8s-6.9-2.4-1.5,1.3c2.1,1.4,4.1,2.9,6,4.5c1.3,0.8,1.3-1.2,2.4,0.9
				s3,3.2,2.6,2.6S397.3,144.5,394.5,143.7z"/>
			<path class="st69" d="M412.6,171.2c-1-0.3-0.1-4.5-1-0.4s-1.6,3.1,0.3,6.2s1,2.2,1.7,4.1s0.9,4.6,1.5,2.6
				S415.5,172.1,412.6,171.2z"/>
			<path class="st69" d="M413.6,200.3c-0.7,1-1.2,2.2-1.4,3.5c-0.3,2.1-1.4,0.9-0.3,2.1s2.2,1.3,1.9,0.4S417,201,413.6,200.3z"/>
			<path class="st70" d="M286.7,133.5c-1.2-0.3-4.4,3.5-5.2,5s-0.2,4.9,1.7,2s1.4-4.2,2.1-4.1s0-0.9,1.8-1.3
				S289.7,134.2,286.7,133.5z"/>
			<path class="st69" d="M300.9,130.4c-1.9,0.3,0.7,0-3,1s-3.4-0.3-3.7,1s-3.1,3.5,0.5,2s3.3-0.8,4.8-1.5s3.3-0.7,3.7-1
				S306.1,129.7,300.9,130.4z"/>
			<path class="st69" d="M331.7,121.8c-4.9,2.8-5.1-2.2-9.5,0.5s-11.5,3.9-4.4,2.7s7-2.4,7.7-2s3.1-1.5,3.8-0.6s-0.7-0.5,1.8,0.4
				s4.2,1.3,5,0.9s3.4,2.2,3.2-0.3s-0.9-4-2.4-3.8S333,121.1,331.7,121.8z"/>
			<path class="st70" d="M381.7,134.9c-1.3-0.4-1.5-2.2-6.1-1.6s-4.3,1.6-3,2s2.9-0.8,4-0.1s2.3,0.4,2.8,0.8s2.2,0.2,2.8,1.3
				c0.7,1.1,1.7,2,3,2.3l1.2,0.4C386.3,140,388.7,137,381.7,134.9z"/>
			<path class="st69" d="M272.4,169.2c1.4-0.3-1.5,1.3-1.4,2.6s-0.3-0.1,0.3,2.4s1.4,6.9,2,4s-0.7,0.2-0.4-3.9s-0.3-3.4,0.4-5.7
				s1.1-3.6,0.9-4.2s1.3-2.9,0-3.5s-1.5-2-2,0.6S270.1,169.7,272.4,169.2z"/>
			<path class="st70" d="M280,141.3c-1.8-0.3-2.5,2.4-2.4,4.1s-0.3,0.9-0.3,2.7s-0.9,1.4-1.1,2.9s-0.2,5.1,0.4,2s0.3-1.4,1.7-4.1
				s0.2-2.9,0.7-3.2S283.7,141.9,280,141.3z"/>
			<path class="st69" d="M314.6,123.6c-2.4,0.2-6.5,1.9-8.4,2.8s-3.8-0.3-1.9,0.9c1,0.7,2.2,1,3.3,0.8c0,0-0.3-0.8,0.9-0.6
				s5.6-0.8,6-0.8S324.5,122.9,314.6,123.6z"/>
			<path class="st71" d="M396,159.8c0,0,0.6-0.2-1.8-2.4s-1.5-1.7-4.6-4.3s-1.5-3.7-4.8-4.1s-4-0.4-4.6-0.3s-2.9-0.3-3.6,0.4
				s-4.4-0.5,0.8,1.3s6.4,2.1,6.4,2.1c1.5,1.2,3,2.5,4.3,3.9c2.9,2.9,5,5.5,6.6,5.6S402.5,162.8,396,159.8z"/>
			<path class="st72" d="M411.7,181.4c-0.3-0.1,0.3,1.7-0.2-2.2s0.5-1.2-1.2-4.1s-0.2-0.2-2.8-4.3s-0.6-5.5-3.8-6.8
				s-2.9-0.7-3.9-0.6s-3.1-1.9,0.8,3.3s5.5,4.9,6.5,10.5s0.2-0.9,1.5,6.6s1.9,9.6,1.7,11.6s-1.8,4.6-0.3,4.6s3.5,0.8,3.5-5.1
				S415.8,183.3,411.7,181.4z"/>
			<path class="st73" d="M379,147.7c-0.1-4.2-2.4,0.6-6.3-2.4s-3.2-4.8-4.9-3.2s-2,2.6-0.6,3.2c1.7,0.8,3.5,1.4,5.3,1.9
				C373.7,147.3,379.1,150.3,379,147.7z"/>
			<path class="st74" d="M364,134c-2.9-0.6-4.5-2.5-7.3-3.1s-6.4-1.6-6.5-1.1s0.2-1.2-0.9,0.4s-0.1,2.8,1.3,2.8s-1.3,0.5,1.3,0
				s2.2-0.2,3.8-0.3s-0.3-1.2,2.8,0.3s2.3,1.1,3.6,2.2c1.1,0.9,2.3,1.7,3.7,2.3C367.8,138.6,374.3,136.2,364,134z"/>
			<path class="st71" d="M333,129.4c-3.5-0.8-4.3-4.5-6.7-1s-2.6,2.7-4.7,3.1s-0.3-3.1-4.2,0.3s-2.3,4.4-1,4.6
				c1.3,0.3,2.7,0.4,4,0.4c1.4,0,3.1,0.2,4.8-1.4s2.5-2.7,4-2.3s2.1,0.4,3.9,0.8s3.7,0.8,4,0.3S340.7,131.2,333,129.4z"/>
			<path class="st43" d="M308.7,134.3c0,0,0.1-0.3-1.1-0.1s-0.8,1.3-0.3,1.2s1,0.8,1.8,0.4S314.2,136.8,308.7,134.3z"/>
			<path class="st75" d="M371.8,150.2c-0.3,0-4.3-1.9-3.2-0.7c0.8,0.9,1.8,1.7,2.8,2.4c0.3,0.2,0.7,0.5,1,0.7l1.4,0.9
				C373.9,153.5,377.9,149.6,371.8,150.2z"/>
			<path class="st45" d="M384.3,165c-1-0.2-2.4-2.6-1.9-0.4s3,2,2.7,2.6S386.2,165.4,384.3,165z"/>
			<path class="st43" d="M351.4,166.5c-0.8,0-3.3-1.4-2.8,0.1s0.2,1.5,1,1.6s-0.5-0.4,1.4,0.2s2,0.3,2.9,0.7s1.9,2.4,1.9,0.8
				S355.1,166.6,351.4,166.5z"/>
			<path class="st45" d="M378.2,191.6c-0.2-0.6-1.1-4.2-2.4-3.5s-1.7,1-1.1,1.7c0.5,0.7,1.1,1.3,1.8,1.9
				C378,193.4,378.2,191.6,378.2,191.6z"/>
		</g>
	</g>
</g>
</svg>
