<?xml version="1.0" encoding="utf-8"?>
<!-- Generator: Adobe Illustrator 21.0.2, SVG Export Plug-In . SVG Version: 6.00 Build 0)  -->
<svg version="1.1" id="jelly-fish__sm" xmlns="http://www.w3.org/2000/svg" xmlns:xlink="http://www.w3.org/1999/xlink" x="0px"
	 y="0px" viewBox="0 0 78 79" style="enable-background:new 0 0 78 79;" xml:space="preserve">
<style type="text/css">
	.st0{opacity:0.8;fill:#DB8EBC;enable-background:new    ;}
	.st1{opacity:0.8;}
	.st2{fill:#794D9E;}
	.st3{fill:#42205F;}
	.st4{fill:#3D144C;}
	.st5{fill:#824098;}
	.st6{fill:#007384;}
	.st7{opacity:0.7;fill:#27B793;enable-background:new    ;}
	.st8{opacity:0.6;fill:#27B793;enable-background:new    ;}
	.st9{fill:#DB8EBC;}
	.st10{fill:#B17DB0;}
	.st11{opacity:0.9;fill:#BA5492;enable-background:new    ;}
	.st12{opacity:0.8;fill:#27B793;enable-background:new    ;}
	.st13{fill:#27B793;}
	.st14{opacity:0.6;fill:#FFFFFF;enable-background:new    ;}
	.st15{opacity:0.7;fill:#F2ACCC;enable-background:new    ;}
	.st16{opacity:0.7;fill:#C43380;enable-background:new    ;}
	.st17{opacity:0.5;fill:#CE547D;enable-background:new    ;}
	.st18{opacity:0.3;fill:#CE547D;enable-background:new    ;}
	.st19{fill:#C16199;}
	.st20{opacity:0.3;fill:#C16199;enable-background:new    ;}
	.st21{opacity:0.3;fill:#D181B5;enable-background:new    ;}
	.st22{opacity:0.7;fill:#A86CAC;enable-background:new    ;}
	.st23{opacity:0.6;fill:#864195;enable-background:new    ;}
	.st24{opacity:0.1;fill:#98509E;enable-background:new    ;}
	.st25{opacity:0.8;fill:#AA4F88;enable-background:new    ;}
	.st26{opacity:0.5;fill:#A86CAC;enable-background:new    ;}
	.st27{opacity:0.4;fill:#A86CAC;enable-background:new    ;}
	.st28{opacity:0.6;fill:#CE547D;enable-background:new    ;}
	.st29{opacity:0.4;fill:#CE547D;enable-background:new    ;}
	.st30{opacity:0.5;fill:#E16897;enable-background:new    ;}
	.st31{opacity:0.3;fill:#6E335E;enable-background:new    ;}
	.st32{opacity:0.5;fill:#6E335E;enable-background:new    ;}
	.st33{opacity:0.4;fill:#6E335E;enable-background:new    ;}
	.st34{opacity:0.3;fill:#BB4670;enable-background:new    ;}
	.st35{opacity:0.6;fill:#BB4670;enable-background:new    ;}
	.st36{opacity:0.4;fill:#BB4670;enable-background:new    ;}
	.st37{opacity:0.2;fill:#BB4670;enable-background:new    ;}
	.st38{opacity:0.7;fill:#BB4670;enable-background:new    ;}
	.st39{opacity:0.3;fill:#C383A9;enable-background:new    ;}
	.st40{opacity:0.4;fill:#C383A9;enable-background:new    ;}
	.st41{fill:#C383A9;}
	.st42{opacity:0.5;fill:#C383A9;enable-background:new    ;}
	.st43{opacity:0.5;fill:#864195;enable-background:new    ;}
	.st44{opacity:0.3;fill:#864195;enable-background:new    ;}
	.st45{opacity:0.3;fill:#B167A2;enable-background:new    ;}
	.st46{fill:#B167A2;}
	.st47{opacity:0.3;fill:#E9C0D5;enable-background:new    ;}
	.st48{opacity:0.5;fill:#E9C0D5;enable-background:new    ;}
	.st49{opacity:0.2;fill:#CE547D;enable-background:new    ;}
	.st50{opacity:0.2;fill:#E96A9A;enable-background:new    ;}
	.st51{opacity:0.4;fill:#E16897;enable-background:new    ;}
	.st52{opacity:0.7;fill:#E16897;enable-background:new    ;}
	.st53{opacity:0.2;fill:#F28DB9;enable-background:new    ;}
	.st54{opacity:0.3;fill:#F28DB9;enable-background:new    ;}
	.st55{opacity:0.4;fill:#F28DB9;enable-background:new    ;}
	.st56{opacity:0.6;fill:#F28DB9;enable-background:new    ;}
	.st57{opacity:0.4;fill:#FAD7E6;enable-background:new    ;}
	.st58{opacity:0.5;fill:#FAD7E6;enable-background:new    ;}
	.st59{opacity:0.5;fill:#C192C1;enable-background:new    ;}
	.st60{opacity:0.7;fill:#C192C1;enable-background:new    ;}
	.st61{opacity:0.3;fill:#C192C1;enable-background:new    ;}
	.st62{opacity:0.4;fill:#C192C1;enable-background:new    ;}
	.st63{opacity:0.2;fill:#6E335E;enable-background:new    ;}
</style>
<g>
	<g id="Layer_2">
		<g>
			<path class="st0" d="M32.6,9.4c1,0.7,1.5,1.9,1.4,3.1c-0.3,1.8-2.7,19.1,0.2,22.6s5.3,7.3,10.7,6.2s13.8-14.5,18.3-10.8
				S74.8,42.9,67.7,47c0,0-14.6,0.3-14.9,9.1s6.4,4.5,4.6,1c0,0,1.1,1.9,0.4,2.9s-3.6,3.8-5.5-1c0,0-1.5-6.6,4-9.4
				c0,0,5.6-2.9,10-3.3c0,0,5.1-0.9,3.5-5.6c-1.4-4.3-4.2-7.9-8-10.3c0,0-0.9-1.6-9.8,6.7c0,0-7.1,7.7-12.9,3.7c0,0-6-4.3-7-10.2
				c0,0,1.1-18.1,1.1-18.9C33.1,10.9,32.9,10.2,32.6,9.4z"/>
			<g class="st1">
				<path class="st2" d="M17.8,17.8c-0.5,0.6,0.1,5.2,0.4,7.6s1.3,6.8,0.6,7.5s-0.9,2.1-0.4,2.3s-0.2,0.7,0.5,0.2s1.1,0.9,1.3-0.5
					s0-2.3,0.3-2.4s-1.4-2.5,0.4-0.1s2.8,6.4,3.3,8.7s-0.1,3.7,0.7,3.2s1,0.1,0.7-1.5s-0.4,0.2-0.5-2.1s0.1-3.9,0.3-4.1
					s0.2-0.3,0.5-0.3s-0.4-1,0.4,0s0.1-0.9,1.2,1.6s2,5.5,1.6,2.9s-0.8-4.1-0.8-4.8s0.1-1.6,0.6-2s0.2-1.4,0.7-0.8s-0.8-0.5,0.5,0.3
					s-0.3,3.8,1.3,0.9s2.4-4.2,2.7-4.2s2.1,7.8,2.5,8.3s0.4,1.1,1.1,0.8s0.4,0,0.4-1.2s-0.3,0.7-0.4-1.9s-0.5-3.2,0.1-3.3
					s0.6,0.4,1-0.3c0.4-0.4,0.5-0.9,0.3-1.4c-0.1-0.7-0.1-0.3-0.6-1.5s-0.6-0.1-1.2-2.6s-0.8-1.9-1-4.1s1.2-0.8-0.7-4
					s-1.9,2.3-4.3-6.1S17.8,17.8,17.8,17.8z"/>
				<path class="st2" d="M14.5,23.3c-0.8,1.4-0.9,3.1-0.4,4.6c1,2.2,1.4,1.2,1.3,2.5s0.3,0.9-0.1,1.9s-1.1,0.9-0.9,1.6
					s-0.6-0.2,0.1,0.7s0.2,1,0.9,0.9s1.5-0.7,1.4-1.4c0.1-0.9,0.4-1.8,0.7-2.7c0.3-1.3,0-2.4,0.9-2.5c0.6-0.1,1.2-0.3,1.7-0.6
					c0.5-0.2,0.9-0.3,0.8-1.3s0.2-9.8-1.1-10.4S13.7,15.2,14.5,23.3"/>
				<path class="st3" d="M15.3,20.8c-0.1,0.4-0.5,0.1-0.2,2.6c0.1,1.1,0.3,2.3,0.5,3.4c0.3,1.3,0.8,1.9,0.8,3.2s0.2,1.1-0.1,1.7
					s-0.4,0.5-0.3,1s0.2,0.7,0.6,0.5s0.3-2.4,0.4-2.6c0.1-0.7,0.2-1.3,0.3-2c0,0-0.4-0.9,0.3-0.2s0.4,0.6,0.8,1.2s-0.2,0.9,0.5,1.1
					s0.9-0.5,0.9-0.8s-0.4-1.2,0.4-0.4s0.4,0.8,1.1,2.1s0,1.1,1.3,1.3s1.9,1.7,2.1,3.3s0.2,2.5,0.6,1.5c0.2-0.7,0.4-1.5,0.4-2.3
					c0,0-0.1-1.2,0.8-0.8s1.2,0.6,1.3,0.5c0.5-0.8,0.7-1.7,0.7-2.6c0-1.7,3.3,5.1,0-2.1l-3.6-7.8c-0.1-0.2,0.3,2.4-0.3-1
					S18.8,5.8,15.3,20.8z"/>
				<path class="st3" d="M26.3,15c-0.8,1.4-1.3,3-1.4,4.6c-0.2,2.7-1.1-0.7-0.2,2.7s2.1,4.3,2.9,4.2s0.7-2.8,2.1,1.5
					s0.6,3.4,1.6,4.9s0.5,0.7,1.6,1.4s2.9,2.1,1.2-1s-2.4-2.6-2-3.7c0.2-0.5,0.3-1,0.3-1.6c0-0.2,1.2-0.4,1.2-0.5s-0.2-1.4,0.7,0.3
					s0.7,2,1.5,3.6s1.2,2.7,1.2,1.7s-2-3-0.3-2.1s2.1,2.2,1.8,0.8s0.3,0.1-0.3-1.4S37.5,28,37,26.7s-0.6,0.1-1.3-3.9
					S31.6,12.6,26.3,15"/>
				<path class="st4" d="M23.9,22.7c-0.3,0.1-2.4-4.3-1.2,2.2s1.8,6,1.6,7.6s-0.7,2-0.2,2.7s0.6,1.3,0.9-0.5s-0.1-3.9,0.3-5
					s0-2.9,0.9-1.5s2.2,6.2,1.2,1.6s-0.4-0.2-1.5-6.4s-1.2-6.8-1.2-6.8S24.5,19.2,23.9,22.7c-0.7,3.5,6.6,2.6,6.6,3.9
					s-0.9,3.2-0.7,4.3s0.8,2.7,1.4,0.5s0.9-5,1.2-4.3c0.3,0.6,0.7,1.2,1.2,1.7c0.4,0.6,1.3,0.6,1-0.2s-0.2-2.2-0.6-3.1
					s0.6-2.6-0.6-5.7s-1.9-4.8-2.5-5.1s0.4-0.5-1.8-0.6s-3.5-0.4-3.7,0.3s-3.9,0.2-3.9,0.2"/>
				<path class="st4" d="M16.3,23.7c0,0,0.1,1,0,3.6s-1.4,3-0.4,3.3s2.1-0.1,2.1,1.3s-0.4,2.5,0.3,2.4s0.7-0.9,0.4-3.2
					s-1.1-4.1-0.6-5.6c0.4-1.1,0.7-2.3,1-3.5c0-1.1-0.1-2.3-0.5-3.4C18.3,18.3,14.9,16.5,16.3,23.7"/>
				<path class="st4" d="M22.5,26.3c0.8,0.2-0.3,2.9,0.3,4.2s0.3,2.6,0.6,1.3c0.1-1.4,0.1-2.8-0.1-4.1c-0.1-1.7,0-3.4,0.1-5.1
					c0.1-0.4,0.2-1.2-0.1-1.4s-0.7-4.3-0.9-0.3S22,26.2,22.5,26.3z"/>
			</g>
			<path class="st5" d="M29.1,17.6c0,0,2.4-0.4,3,4.7s2.1,6.7,0.5,14s-3.5,15-2.5,20.5s1.2,13.4,2.8,17.3l1.6,3.9
				c0,0-3.1-5.5-3.4-8.5s-1.8-12-1.8-12s-0.1-10.3,0.6-11.6s0.6-7.5,1.6-10.5s0.3-7,0.1-8.5S27.8,17.6,29.1,17.6"/>
			<path class="st6" d="M21.9,17.4c0,0-0.2,10,2.1,17.1s3.5,23.6,2.6,27.3c-0.6,1.9-0.8,3.8-0.7,5.7c0,0,0.1-3.6,0.4-6.6l0.4-3
				l-0.4-7.7l-1.6-11.4C24.6,38.9,18.9,17.9,21.9,17.4"/>
			<path class="st6" d="M22.5,18.4c0.3,5.1,1.2,10.1,2.7,15c2.3,7.1,3.3,13.8,2.7,16.4l-0.6,2.6c0,0,2.2-3.4,0.4-11.1l-1.9-7.6
				c0,0-1.9-10.6-2.4-15.3S22.5,18.4,22.5,18.4z"/>
			<path class="st6" d="M27.2,17.6c0,0,3.1,7,3.5,13.1s0.2,19.4,1.5,21.9l1.3,2.4c0,0-2.8-16.8-3.1-19.1s-0.5-7.3-0.6-8.8
				S25.1,17.1,27.2,17.6z"/>
			<path class="st7" d="M31.5,17.4c1.4,2.4,2.1,5.2,1.9,8.1c-0.2,4.9-0.9,13.6,0.3,18.7s4.8,8.2,7.4,8.1c1.5-0.1,3,0.1,4.4,0.7
				c0.6,0.3,1,0.9,1.2,1.6l0.5,2c0,0-0.5-3.4-2.3-3.4l0,0c-1.7-0.6-3.5-0.9-5.4-0.9l0,0c0,0-2.8-0.5-5.3-5.4l0,0
				c-0.9-2.9-1.5-6-1.7-9.1c-0.3-5.3,0.5-13.7-0.1-16.1c-0.4-1.4-0.8-2.8-1.4-4.2L31.5,17.4z"/>
			<path class="st8" d="M22.7,21.6c0,0-0.8,7,0.9,10.9s4.2,13.2,3.6,16.6c-0.3,1.6-0.8,5-1.3,8.5l-0.1,0.9c-0.5,3.8-0.8,7.5-0.5,8.7
				c0.6,2.3,3.4,4.6,3.4,4.6s-3.4-3.3-3.7-4.1s0.2-3.7,0.2-3.7l0.2-3.4l0.4-5.2c0,0,0.5-3.4,0.9-6.6c0.2-1.8,0.2-3.7-0.3-5.5
				c0,0-1.8-6.2-1.9-7.4c-0.4-1.3-1.1-2.6-1.9-3.7l-0.8-7.9l0.2-5.7C22.1,18.5,23.1,15.2,22.7,21.6z"/>
			<path class="st0" d="M19.3,18.6c0,0,1.7,5-0.3,9.3c-0.9,2-3.3,3.6-5.4,6c-2.4,2.8-4.4,6.7-3,13.5c2.5,12.6,8.6,12.5,8.9,17.3
				s-8.3,11.5-9.1,6.5c0,0-0.1-0.6,1.1-3.2c0,0-1.7,2.4-1.3,3.6c0.3,1.2,1.5,1.9,2.6,1.6c1.1-0.2,4.4-2.1,5.2-3.4s2.3-4.4,2.1-5.6
				s-1.9-3.6-3.3-5.2s-4-4.3-4.7-7.7s-1.5-4.4-1.5-8.1s1-5.2,1-5.2c0.3-1.6,1.2-3.1,2.6-4.1c1.7-1.5,3.2-3.1,4.6-4.8
				C18.8,29.1,23,20.3,19.3,18.6z"/>
			<path class="st9" d="M24.1,18.5c0,0,0.1,5.7,1.6,8.4c1.7,3.3,2.3,7.1,1.8,10.7c-0.6,3.6-2.4,10.6-1,14.7l1.4,4.1
				c0,0-2.4-4.7-2.5-6.5s0.9-6.4,0.9-8.1s1-6.7,0.8-8.1S21.7,19.1,24.1,18.5z"/>
			<path class="st0" d="M17.4,19.2c0.1,2.5,0.5,5,1.1,7.4c0.9,3,4.7,16.8,3.6,21.7s-3.5,10.6-2.7,15c0.7,3.2,1.6,6.3,2.7,9.3
				c0,0-2.5-5.4-2.8-6.7s-1.1-6-0.5-6.5l0.9-3.9l1.9-7.1V42L19,30.8l-2.3-11.3L17.4,19.2"/>
			<path class="st10" d="M23.7,17.7c0,0-0.9,2.6,0.5,7.8s4.5,10.8,5.3,15.6s1.8,5.3,2.2,12.3s-0.9,8.7-0.2,12c0,0,0.6,3.4,2.2,4.7
				s1.1,3.6,1,3.8s0.1-2.1-0.6-2.7c-2.1-2-3.2-4.7-3.1-7.6c0,0,0.8-8.1,0.2-11.8c0,0-2.3-11.3-3.1-14.7s-1.3-3.9-1.3-3.9
				S20.8,19.6,23.7,17.7z"/>
			<path class="st10" d="M29.8,17.6c0,0,1.4,0.1,2.2,8s0.1,13.7,3.2,21.7s3.8,13.9,3.4,14.6s0.9,0.9-0.1-4.7c0,0-2-8.7-3-11
				c0,0-2.1-4-2.4-11.3C33,34.9,33,18.7,29.8,17.6z"/>
			<path class="st10" d="M39,20c0,0-1.6,2.4-0.8,8.2s2.9,11.3,4.4,13.1c1.5,1.5,3.2,2.6,5.2,3.3c4.1,1.6,8.6,1.8,12.8,0.5
				c0,0,5.5-1.4,6.2,7.8c0,0-0.2,5.5,4.5,5.4c1-0.3,1.6-1.4,1.4-2.4c0,0,0.7,2.8-1.8,2.7c0,0-3.1,0-4.2-3.8c0,0-0.1-6.5-2.5-8.3
				c-1-1.1-2.5-1.5-3.9-1.1c0,0-5.6,2.5-13.8-0.9c0,0-4.3-1-6.3-6.9c-1.1-3.2-1.9-6.6-2.4-9.9C37.9,27.5,36.9,20.9,39,20z"/>
			<path class="st10" d="M14.7,22.5c0.5,2.3,1.1,4.6,1.9,6.8c1.1,2.8,3.1,9.9,1.6,13.3s-1.8,3.6-1.3,6.1s1.8,4.9,1.9,5.9
				c0.1,0.5,0.1,0.9,0.1,1.4c0.1-0.9,0-1.9-0.3-2.8c-0.5-1.6-1.4-3.6-1.5-4.4c-0.3-1.3-0.1-2.7,0.4-4c0.5-1.1,1-2.3,1.3-3.5
				c0.2-1.9,0.1-3.8-0.2-5.7l-1-4.5l-2.4-9.3C15.2,21.8,14.6,21.5,14.7,22.5z"/>
			<path class="st10" d="M20.1,18.2c0,0-1.1,3.5-0.4,6.1s1.7,5.9,1.5,7.6c0,1.8,0.3,3.7,1,5.4l0.4,0.6c0,0,1.6,3.2,1.6,5.6l-0.1,2.4
				c0.2-1.3,0.2-2.5,0.2-3.8c-0.3-1.5-0.8-2.9-1.4-4.2c-0.5-1.1-0.9-1.2-1-1.9c-0.4-1.5-0.5-3-0.5-4.5c-0.3-2.1-0.6-4.2-1.1-6.3
				c-0.3-2.3-0.2-4.6,0.1-6.8C21.1,15.7,20.1,18.2,20.1,18.2z"/>
			<path class="st10" d="M34.8,18.9c0,0,2.6,9.6,1.3,12.2S34.9,42,38.4,48.3s8,13.6,8.3,17.3l0.3,3.6c0.1-2.2-0.2-4.4-0.7-6.5
				c-0.8-3.3-4-8.4-4-8.4s-4.4-7.6-4.7-8.8s-2.4-6-1.8-9.2c0,0,0.1-3.5,0.8-4.5C36.5,31.8,38,28.2,34.8,18.9z"/>
			<path class="st11" d="M32,18c0,0,2.2,5.4,1.9,9.3s0.9,17.3,3.1,20.8s5.2,14.1,4.8,17.7l-0.4,3.6c0,0,1.5-4.7-0.6-12
				s-4.4-12.8-4.4-12.8c-1.2-3.4-1.8-6.9-1.7-10.5C34.6,34.1,35.6,19.3,32,18z"/>
			<path class="st7" d="M21,18.8c-0.4,2.7-0.3,5.4,0.3,8c1,4,3,10.6,3,13.6s0.9,3.6,0.3,5.3s-1,2.8-0.7,4l0.3,1.2
				c-0.1-0.9-0.1-1.8,0.1-2.7c0.3-1.2,1-3.4,0.8-4.3s-1.1-8.5-1.1-8.5s-1.9-7.1-2.2-7.8c-0.5-1.5-0.7-3-0.9-4.5
				c0.1-1,0.2-4.6,0.2-4.6L21,18.8z"/>
			<path class="st12" d="M16,20.8c0.2-0.2-0.3,5.4,1.3,9c1.1,2.6,2.5,4.9,3.1,7.8c0.3,1.2,0.3,2.5,0.2,3.8c-0.4,4.7-1.9,5.6-1.6,8.3
				v0.3c0.3,2.4,0.8,2.6,0.8,2.6c-0.8-1-1.2-2.3-1.2-3.6c0,0,1-3.1,1.2-3.8l0.1-0.7c0,0,1.3-4.5,0-7.7c0,0-1.9-5.2-2.4-6
				S14.4,22,16,20.8z"/>
			<path class="st13" d="M24.3,18.3c-0.5,1.6-0.3,3.3,0.4,4.8c0.8,1.5,1.1,3.3,0.8,5c0.2-1.2,0.2-2.4,0-3.6c-0.1-1-0.5-1.9-1.1-2.7
				L24.3,18.3z"/>
			<path class="st13" d="M17.6,19.6c0,0-1.6-1.2-0.2,3.1c0.1,0.5,0.3,0.9,0.4,1.3c1.2,3.4,2.2,4.6,2.1,5l-0.2,0.5
				c0.4-0.3,0.6-0.9,0.3-1.3C19.5,27.5,15.9,20.1,17.6,19.6z"/>
			<path class="st14" d="M13.9,26.9c-0.3-0.7-0.7-1.3-1.2-1.8c-0.8-0.9-2.3-1.6-2.6-2.7s-0.3-3.5-0.6-5s-0.5-2.6,0-3.5
				c0.9-1.1,1.9-2.1,3.1-2.9C13,11,17,7.6,17.9,7s3.6-2.7,5.2-2.3s2.2,1.1,3.2,1.2s4.9-0.1,7.1,0.8s5.6,2.8,6.4,4.1
				c1.2,2.3,2.1,4.8,2.7,7.3c0.3,2.2-1.9,6-2.6,5.3S39.5,22,38.3,21s-3-0.9-5.1-1.8s0.1-1.8-4.4-1.3c-2.5,0.4-4.9,0.6-7.4,0.7
				c-1.8,0.2-3.6,0.9-5.1,1.9c-1.2,0.9-1.1,3.2-1.2,3.5S14,27.2,13.9,26.9z"/>
			<path class="st15" d="M13.9,26.9c-0.4-0.8-0.8-1.4-1.4-2c-1.6-0.9-2.7-2.5-2.8-4.4c-0.2-2.7-0.3-6.3,0.4-7.1s4-3.5,5.7-4.9
				s5.6-3.8,7.4-3.8s1.1,1.1,5.6,1.2s9.4,2.8,10.9,4.8s3.4,7.4,2.9,8.8s-0.8,1.5-1.1,2.6s-0.6,1.6-1.4,1.6s-0.1,0.6-1.4-1.9
				s-5-2-7.6-3.3s-4,0.7-7.6,0.4s-8.1,0.9-8.4,2.6S15.1,27.4,13.9,26.9z"/>
			<path class="st16" d="M12.4,24.7c-0.4-0.3-0.7-0.7-1-1.2c-0.5-0.8-0.2-0.4-0.6-1.5S10,22,10,20.5c0-0.8,0-1.6,0.2-2.4
				c0.2-1.1,0.7-2.2,1.6-2.9c1.3-1.1,1.1-1.8,2.2-1.6s3.7-0.4,5-0.4s0.5,1.2,3.2-0.5s2.9-2,4.7-2.4s2.7-0.3,4-0.7s0.8-0.9,2.5-0.4
				s2.2,0.3,2.5,0.6s2.6,1.4,3.1,2.9c0.2,0.8,0.7,1.5,1.3,2.1c0.4,0.5,0.3-1.1,0.5,1.4c0,1.3,0.2,2.5,0.6,3.7c0.2,0.6,0.1,1-1,0.3
				s1.6-0.5-3.5-1.4s-5.4-1.2-7.3-1.1s-3.6,0.4-5,0.7s-3.2-0.1-4.2,0.2s0-0.6-1.9,0.6s-3.2,1.6-3.8,2.6S13,25.1,12.4,24.7z"/>
			<path class="st17" d="M19.1,10.4c-0.4,0-0.4,0.2-1.4,0.4c-0.7,0.1-1.4,0.4-1.9,0.8c-0.5,0.3-1.6,0.4-1.9,0.7s-1.9,1.4-0.8,1.4
				c1.4-0.1,2.8-0.5,4.1-1C17.8,12.3,21.3,10.6,19.1,10.4z"/>
			<path class="st18" d="M23.3,8.3c0.4-0.3,0.9-0.5,1.4-0.4c0.4,0,0.7,0.1,1,0.3c0.3,0.3,0.7,0.5,1.1,0.6c0.7,0.2,0.8-0.2,1.3,0.1
				s-0.1,0.3,1,0.4s1.9-0.1,1.7,0.3s1.3,0.4-0.6,0.8s-1.9,0.8-2.7,0.4S22.3,9.1,23.3,8.3z"/>
			<path class="st19" d="M34.6,10.4c-0.5,0-0.1-1.2-1.4-0.5s-0.2,0.5-2.1,1s-0.6,0.3-1.9,0.6s-0.9,0-1.5,0s-0.6-0.1-1.3,0.4
				s0.2-1.3-2.5,0.5s-4,1.2-2.5,2s-2.1,1,4.1,0.3s6.2,0.4,8.1,0.8s1.8,1.6,1.8-0.3S36.7,10.3,34.6,10.4z"/>
			<path class="st20" d="M41.7,20.9c0.2-0.3-0.1,0,0.1-0.9s0.6-0.7,0.2-1.9s-0.3,1-1-1.6s-0.3-1.6-1.1-2.8s-1.5-2.7-1.4-1.4
				s-0.2,1.1,0.4,2.2s-0.4,0.4,0.3,1.6s0.3,1.6,0.4,2.4S41.5,21.2,41.7,20.9z"/>
			<path class="st21" d="M18.8,10.7c0.1,0-0.8,0.6-0.3,0.6s0.4-0.4,1.1-0.2c0.5,0.2,1,0.2,1.5,0c0.5-0.3,1.1-0.5,1.6-0.6
				c0.3,0,0.5,0.1,0.8,0.1c0.7,0.1,1.8,0,2.3,0c0.3,0,0.7,0,1,0.1c0.6,0.1-0.3-0.4,1.1,0.1c0.5,0.3,1.1,0.4,1.7,0.5
				c0.5,0.1,0.9,0.2,1.4,0.1c0.3-0.1,0.7,0.4,0.7-0.1s0.5-0.7-0.9-0.9c-0.7-0.1-1.4-0.2-2.1-0.3c-1.8-0.4,0.1,0.2-2.1-0.7
				s-0.9-0.9-3-1.2c-1.2-0.3-2.5-0.1-3.5,0.6C20,9,16.8,11,18.8,10.7z"/>
			<path class="st22" d="M34.4,10.4c-0.1,0-0.2-0.5-0.3,0.3s-1,0.5-0.8,1.3s0.8,0.6,1,1.5s-0.6,0.1-0.2,1.2s0,1.2,0.7,1.5
				s1-0.6,1.7,0.6c0.2,0.4,0.5,0.8,0.7,1.2c0.4,0.6,1,0.5,0.7-0.1s-1.6,0-1.2-1.1s1.5,0.3,0.8-1.6s-1-1.8-1-2.1S36.9,10,34.4,10.4z"
				/>
			<path class="st17" d="M17.4,15.8c-1.5,0.2-4.1,1.9-4.2,0.9s-1.7-0.1,1-2.1s3-2.3,3.4-2.4s-1.1,0.2,1-0.8s2.7-2.6,3.1-2.9
				s0.1-1.5,1-0.4s2.3-0.5,1.1,1.3s-2.2-0.9-1.2,1.7s3.5,2.1,1,3C21.6,14.9,19.5,15.5,17.4,15.8z"/>
			<path class="st23" d="M13.8,25.5c0,0,0.1,0.9-0.7-0.1s-0.6-0.5-1.1-2s-0.4,0.7-0.3-1.9s-0.8-1.2,0.3-3s1.1-2.3,1.4-2.3
				s3.5-0.1,4-0.3s-0.9-1.4,3.1-1.6s5.9-0.3,6.3-0.3c0.8,0.1,1.7,0.3,2.4,0.6c0.6,0.5,1.1,1,1.6,1.5c0.5,0.6,0.7,0.4,3,0.6
				s4.4,0.4,4.8,0.7s0.5,0,1,1.5s0.6,0,0.7,2s1.1,3.4-0.4,1.9s-1.4-1.5-2.4-1.9s-0.7-0.2-1.8-0.8c-0.8-0.5-1.6-0.9-2.4-1.2
				c-1.5-0.5,0.6-0.4-1.9-0.7s2.4-1.1-4.1-0.6s-8.7,1.5-10.1,2.6S13.8,25.5,13.8,25.5z"/>
			<path class="st24" d="M12.7,21.2c0,0,0.7,0.4,0.5-1s-0.3-2.8,0.3-3.1s5.3-1.8,5.9-1.9s3.1-0.4,4.4-0.7c1.4-0.4,2.8-0.6,4.2-0.7
				c0.6,0,0.7,0.4,1.6,0.6c0.9,0.3,1.8,0.4,2.7,0.5c1.1,0.1,2.4-0.1,2.7,0.4c0.2,0.4,0.5,0.8,0.7,1.2c0.5,0.8,1,1.6,1.6,2.4
				c0,0,1.5,0.5-0.6,0.1s-21.1-0.5-21.7,1.4S11.9,23.9,12.7,21.2z"/>
			<path class="st25" d="M14,22.5c0,0-1.4,0.7-0.1-0.7c0.7-0.7,1.2-1.6,1.5-2.6c0,0,1.2-0.4,2.1-0.8s1.9-0.1,2.4-0.4
				s0.4-0.4,0.9-0.2s3.3-0.7,4.1-0.8l1.9-0.3c1.5-0.2,5-0.4,5.6,0.4s2.3,0.2,3.9,1.4s2.6,2.6,1.5,2.1s0.5,0.4-2.6-0.8
				c-1.4-0.6-2.9-1.1-4.4-1.4c-1.5-0.1-3,0-4.4,0.3c-1.1,0.3-2.3,0.4-3.4,0.3c-1.8,0.1-3.6,0.5-5.4,1.1c-0.8,0.3-1.4,0.8-1.8,1.5
				c-0.6,0.9-0.4,1.1-0.7,1.5S14,24.5,14,22.5z"/>
			<path class="st26" d="M10.6,21c-0.1-0.5-0.1-1,0-1.4c0.1-1.1-0.6-0.4,0.2-1.9s1.1-2.1,1.6-2.2s0.5-0.9,0.8-0.5s0.7,0.6,0.3,1.1
				s0.1,0.2-0.4,0.5s-0.8-1.1-0.9,0.4s-0.1,1.4-0.3,1.8s0.1,0.2-0.2,1.1S10.8,22.7,10.6,21z"/>
			<path class="st27" d="M25.3,9.8c-0.6,0.1-0.7-0.5-1.1-0.2s-0.4,0,0.2,1s1,1.1,1.1,1.4s-0.3,0.4,0.3,0.5s1.3-0.7,1.3-0.9
				c0.2-0.3,0.5-0.6,0.9-0.7C28.4,10.7,27.4,9.2,25.3,9.8z"/>
			<path class="st22" d="M35.3,10.3c0,0-1,0.1,0.1,0.6s1.2,0.5,1.3,0.6s-0.1-0.3,0.2,0.5s1.5,1.3,1.9,1.9c0.4,0.6,0.8,1.2,1.1,1.8
				c0.3,0.4,0.3,1,0.2,1.5c-0.1,0.7,0.4,1.2,0.9,2.5s1.1,1.5,0.9,0.8c-0.1-1-0.3-1.9-0.7-2.8c-0.5-0.7-0.8-1.5-0.9-2.4
				c-0.1-0.6-0.5-0.3-0.7-1.2s0.7-0.2-0.6-1.5S35.7,10.1,35.3,10.3z"/>
			<path class="st28" d="M21.8,13.4c0,0,0.3-1-0.2-1.2s-1.4,0.3-0.6-0.6s0.3-0.6,0.8-0.9s0.4-1.4,1.3-0.5s0.6,0.8,1.1,1.1
				s1.6,0,0.8,0.5c-0.5,0.3-1,0.5-1.6,0.5c-0.6,0-0.4-0.3-0.7,0.4S22,14.6,21.8,13.4z"/>
			<path class="st29" d="M34.9,14.8c-0.2,0,0.5-0.4-0.3-0.4s-1-0.1-1.5,0.2s0.2,0.4,0.1,0.7s0.3,0.7-0.3,0.7s-1.3-0.3-0.4,0.1
				s1,0.1,1.6,0.3s0.5,0.8,0.8,0.6s0.7,0,0.6-0.4s0.4-1-0.2-1.3S36.6,14.9,34.9,14.8z"/>
			<path class="st30" d="M37,12.9c0,0-0.1-1.3,0.4-1c0.3,0.2,0.6,0.5,0.6,0.9c0.1,0.5,0.1,0.1,0.7,0.9s1.2,0.9,1.1,1.2
				s-0.7,0.5-1.2,0.2s0,0.1-0.6-0.6C37.5,14,37.2,13.5,37,12.9z"/>
			<path class="st31" d="M13,16.6c-0.4,0.1-0.4-0.9-0.7-0.3s-0.6,0.3-0.6,0.8c0,0.2,0.1,0.4,0.2,0.6c0.1,0.2,0.1,0.4,0,0.6l-0.2,0.5
				c0.2-0.5,1.9-1.4,1.8-1.7S13.5,16.5,13,16.6z"/>
			<path class="st32" d="M12,22.4c-0.4-0.2-0.9-0.3-0.9-0.7s0-0.2,0.2-0.9s0-0.6,0.1-1.1s0.4-1.2,0.3-0.8s0.5,0.2,0.1,1.1
				S12,22.4,12,22.4z"/>
			<path class="st33" d="M15.2,21.5c0,0-0.7,0.5-0.4-0.2s0.4-1.1,0.8-1.1s-0.2,0.5,0.6-0.1c0.6-0.4,1.3-0.8,2-1
				c0.3-0.1-0.1-0.6,0.3-0.1s0.9,0.3,0.1,0.6c-0.5,0.1-0.9,0.3-1.3,0.5c-0.5,0.3-1,0.6-1.4,1C15.6,21.4,15.1,22.1,15.2,21.5z"/>
			<path class="st31" d="M16.1,14.4c-0.2,0,0.6,0.5-0.6,0.6s-1.2-0.2-1.4-0.3s-0.5,0-0.1-0.3s0.4,0.3,0.8-0.7s0.6-1.6,0.7-1.1
				s0,0.9,0.2,1S17,14.3,16.1,14.4z"/>
			<path class="st34" d="M14.3,17.2c0.2-0.6,0.3-0.3,1-0.7s0.4-0.6,1-1s0.8-0.4,1.5-0.9s0.6-0.7,1.3-0.7s1.4,0.3,1.7,0.3
				s0.7-1.4,0.4,0S21,16,20,15.6s-0.2-0.6-1-0.3s-1.1,0.2-1.6,0.7S13.7,18.8,14.3,17.2z"/>
			<path class="st35" d="M25.6,13.3c0.1-0.2,0.4-0.3,0.6-0.1c0,0,0,0,0,0c0.4,0.3,0.9,0.5,1.4,0.4c0.4-0.2,1.4,0,0.7-0.3
				s-0.7-0.4-1.4-0.7s-0.5-0.5-1.2-0.2S24.2,13.6,25.6,13.3z"/>
			<path class="st36" d="M29,12.2c0,0-0.6,0.4,0.1,0.8s1.1,0.6,1.1,0.6c0.1,0.1,0.3,0.3,0.5,0.4c0.2,0.1,0.8,0.3,1,0.1
				s0.2-0.6-0.1-0.7s-0.6,0.3-0.3,0s1.1,0.1,0.3-0.4C30.9,12.4,30,12.1,29,12.2z"/>
			<path class="st37" d="M37.6,14.6c-0.3,0-0.6-0.1-0.9-0.4c0,0-0.5-0.1-0.2,0.2s0.6,0.6,0.5,1c0,0.2-0.1,0.4-0.1,0.7
				c0,0.3,0.3,0.6,0.6,0.6c0.4,0,0.8-0.2,1-0.5C38.6,15.9,39,14.6,37.6,14.6z"/>
			<path class="st36" d="M31.5,15.4c0,0,0.5-0.4-0.8-0.3s-1.2,0-1.8,0.2s-1-0.1-0.6,0.3S29.6,16,30,16s0.5-0.4,0.9,0.1
				s0.5,0.4,0.9,0.6s0.4,0.7,0.5,0.3S33.1,15.7,31.5,15.4z"/>
			<path class="st36" d="M30.5,17.5c0,0,1.8,0.7,2.1,0.8s-0.6-0.5,0.3,0.2s1.5,1.7,1.3,0.8s-0.1-1.1-0.5-1.2s-0.3-1-1-0.9
				s-2.6-0.4-3.2-0.3s-1,0.4-0.7,0.5C29.4,17.6,29.9,17.6,30.5,17.5z"/>
			<path class="st38" d="M40.3,21c0.4-0.1,0.4-0.9,0.6-1.4s0.3-0.6,0.1-1s-0.4,0.1-0.7-1S40,14.9,40,16.4s0.6,1.7-0.1,2
				s-1.2-0.7-1,0.4s0,1.6,0.3,1.9C39.5,21,39.9,21.2,40.3,21z"/>
			<path class="st38" d="M12.7,25.1c0.3-0.6,0-1.3-0.6-1.6C11,23,10.8,23,10.8,22.3c0-0.6-0.1-1.2-0.3-1.8c-0.3-0.8-0.5-1.1-0.2-1.3
				s-0.2-2.1,0.3-0.2s0.9,2.3,0.8,2.6s-0.6,0.2,0.1,0.8s1,0.3,1.3,1.3s0.4,1,0.4,1.4S13.2,26.3,12.7,25.1z"/>
			<path class="st29" d="M22.8,13.8c0,0,0.5-1.1,1.4-0.8s0,0.2,1,0.2s0.3,0,1.5,0.3s0.7,0,1.8,0.1s-1-0.2,1.1,0.1s2.5,0.4,2.6,0.8
				c0.1,0.3,0,0.6-0.3,0.7c-0.1,0-0.3,0-0.4,0c-0.5-0.1,0-0.5-1.4-0.7s-0.7-0.4-1.4-0.2c-0.9,0-1.7-0.1-2.5-0.3
				c-0.3,0,0-0.1-1.2,0.2S22,15.3,22.8,13.8z"/>
			<path class="st28" d="M14.6,16.5c0.4,0,0.8-0.2,1.1-0.6c0.2-0.2,0.1-0.4,0.9-0.8c0.7-0.5,1.5-0.8,2.3-0.8
				c1.5-0.2,1.2-0.2,1.5-0.2s2-0.6,0.5-0.6c-0.7-0.1-1.5-0.1-2.2,0c-1,0.2-0.6-0.2-1.2,0.4s-1.4,0.3-1.7,0.5s-0.3,0-0.6,0.3
				s-0.4,0.3-0.5,0.9S12.1,16.6,14.6,16.5z"/>
			<path class="st39" d="M12.3,23c-0.4,0.1-0.6-0.2-1-0.2s-0.5-0.1-0.4-0.7s0,0.4,0.2-0.5s0.2-1.6,0.2-0.9S13.1,22.8,12.3,23z"/>
			<path class="st40" d="M29.3,12.7c-0.3,0-0.6,0-0.8,0c-0.1-0.1-0.6,0-0.6,0.2s-0.6,0.2,0.1,0.5c0.4,0.2,0.9,0.3,1.3,0.3
				c0.7,0.1,0.9,0.3,0.9,0.3S30.1,12.7,29.3,12.7z"/>
			<path class="st41" d="M24,10c0,0-0.3-0.2-0.5-0.3s-1.4-0.3-0.7-0.3s0.6-0.3,1.1-0.2s0.4-0.2,1,0s0.8-0.2,0.6,0.2S25.4,10.1,24,10
				z"/>
			<path class="st42" d="M14.8,11.9c-0.3,0.1-0.9,0.9-1.2,0.9s-0.1,0.4-0.3,0s-1.1-0.6,0.2-0.8c0.8-0.2,1.5-0.6,2-1.2
				c0.4-0.3,0.9-0.5,1.4-0.7c0.3,0,1.2-0.2,0.3,0.4C16.4,11.1,15.6,11.6,14.8,11.9z"/>
			<path class="st42" d="M36.1,16.5c-0.3,0-0.9-0.1-0.2,0.3s0.3,0.5,0.7,0.4S37.5,16.3,36.1,16.5z"/>
			<path class="st40" d="M38.9,15.3c0.1,0.3,0,0.6-0.2,0.7c-0.4,0.3-0.4-1-0.4,0.3s-0.2,0.9-0.1,1.2s-0.1-0.2,0.5,0.4s0.5,1,0.8,0.6
				s0.2-0.7,0.2-1.2s-0.2-0.5-0.2-1S41.1,14.9,38.9,15.3z"/>
			<path class="st43" d="M40.6,22.5c0,0,1.3-1,0.9-1.9s0.4-1.7-0.3-1.4c-0.5,0.2-0.9,0.7-0.9,1.2c0,0.5,0.2,0.7,0,0.7
				S39.4,23.2,40.6,22.5z"/>
			<path class="st44" d="M26.8,16.1l-0.7,0.1c-0.9,0.1-0.4-0.6-1.5,0.2s-1.6,0.7-1.4,1s1.3,0.1,1.6,0.2c0.4,0.1,0.8,0.1,1.2-0.2
				c0.5-0.3,0.4-0.7,0.9-0.6s0.9,0.5,1.1,0.2c0.1-0.2,0.3-0.3,0.5-0.5C28.5,16.5,27.9,16,26.8,16.1z"/>
			<path class="st44" d="M34.7,10.9c-0.3,0-1.2-0.3-1.6,0S32,11.5,33,11.5s0.9,0,1.2,0.2s-0.6,0,0.2,0.2s0.8,0.4,1,0
				S36.6,10.6,34.7,10.9z"/>
			<path class="st45" d="M17.1,13.8c0,0-0.3-0.2,0.9-0.5s1.5-0.3,2-0.4l0.5-0.1c0.3-0.1-0.1,0.3,0.7-0.1s0.8-0.3,0.9-0.6
				s-0.3-0.3-0.7-0.4s-0.3,0-1.5,0.2s-0.9,0.1-1.8,0.3c-0.7,0.2-1.3,0.6-1.8,1.1c-0.3,0.3-1.1,0.3-0.9,0.7S16.1,15.3,17.1,13.8z"/>
			<path class="st46" d="M31.5,12.6c0.3,0.3,0.7,0.5,1.1,0.7c0.3,0.1-0.3,0.4,0.6,0.2s2.2-0.2,1.3-0.5s-1.2-0.5-1.6-0.6
				s-0.6-0.1-0.9-0.3S29.5,11.8,31.5,12.6z"/>
			<path class="st47" d="M17.9,6.9c0,0,3.2-2,4.2-2.1s0.7-0.4,1.5-0.1c0.3,0.1,0.7,0.2,1,0.4c0.7,0.3,1.4,0.9,1.6,0.8
				s2.2,0.1,0.5,0.2s-1.4,0.3-1.9,0.1s0.8-0.1-0.9-0.3c-1.1-0.1-2.3,0-3.4,0.3c-0.4,0.1-0.9,0.3-1.2,0.6c-0.4,0.3,0.1-0.3-0.9,0.7
				s-0.4,1-1,0.9c-0.7,0.1-1.3,0.2-2,0.4C16.3,8,17.1,7.4,17.9,6.9z"/>
			<path class="st48" d="M29.4,5.9c-0.1,0,0.1,0.6,1.1,0.6s0.1-0.6,1.6,0s2.4,0.3,2.4,0.6s1.3,1.3,1.5,1s0.1-0.3,0.1-0.3
				C34.2,6.5,31.8,5.8,29.4,5.9z"/>
			<path class="st48" d="M38.8,9.7c0.1,0.7,0.3,1.4,0.7,2c0.4,0.3,0.4,0.2,0.6,0.7s0.7,0.4,0.8,0.9s0.5,1.9,0.7,2l0.3,0.1
				C41.6,15.3,41.9,12.3,38.8,9.7z"/>
			<path class="st48" d="M9.4,16.8c-0.1,0-0.6-1.8-0.2-2.4S9.3,13.7,10,13s3.2-2.4,3.7-2.9s0.9-0.6,0.4-0.1
				c-0.8,0.7-1.6,1.5-2.4,2.3c-0.5,0.7-1.1,0.1-0.9,1.1s-0.5,1.5-0.9,1.5S10.3,16.7,9.4,16.8z"/>
			<path class="st49" d="M34.5,8.1c-0.4,0-1.2-0.6-1.6-0.5s-0.4,0.5-0.1,0.5s0.5-0.3,0.7-0.1c0.2,0.3,0.5,0.5,0.8,0.6
				c0.5,0.3,1,0.5,1,0.2S35.6,7.9,34.5,8.1z"/>
			<path class="st50" d="M21.4,6.7c-0.7,0.2-0.8-0.6-1.2-0.1s-0.7,0.7-0.6,0.8c0.3,0.3,0.7,0.3,1,0.1c0.3-0.3-0.6-0.3,0.3-0.3
				s1-0.2,1.1-0.1s0.1,0.1,0.5,0.1s0.6,0.4,0.4-0.1S22.8,6.3,21.4,6.7z"/>
			<path class="st30" d="M23.6,14.8c-0.3,0,0.4,0.1-0.6,0.1s-1.4-0.4-1.9,0.4c-0.2,0.3-0.4,0.6-0.7,0.9c0.5,0,0.9,0,1.4-0.1
				c0.1-0.1-1.2-0.3,0.5-0.4S25.7,14.9,23.6,14.8z"/>
			<path class="st51" d="M35.8,17.5c-0.3,0,0.3-0.2-0.7-0.1s-1.3,0.1-1.1,0.3s0-0.1,0.4,0.1s0.3,0,0.4,0.2s0,0.1,0.4,0.3
				s0.6,0,0.9,0.2s0.4,0.2,0.7,0.4s0.3,1,0.4,0.4S37.5,17.3,35.8,17.5z"/>
			<path class="st51" d="M40.4,12.9c0,0-0.3,0.1-0.2,0.3s0.2,0,0.3,0.4s-0.3,0.3,0.1,0.9s0.5,1.3,0.6,0.9S41.4,12.9,40.4,12.9z"/>
			<path class="st30" d="M29.4,6c-0.3,0-0.6,0-0.8,0c-0.6,0-0.9,0.8-1.8,0.7s-1.4,0.7-0.2,0.6c0.8,0.1,1.6,0,2.4-0.3
				c1-0.4,2-0.6,2-0.6S30.8,5.8,29.4,6z"/>
			<path class="st51" d="M10.8,13.8c-0.1-0.2-0.3-0.2-0.5,0.1l-0.1,0.3C10.2,14.2,11,14.4,10.8,13.8z"/>
			<path class="st52" d="M10.5,15.4c-0.6-0.1-0.4,0-0.6,0.4s0.2,0.1-0.1,0.7s-0.4,0.5-0.2,1s-0.4,1.1,0.3,0.4S11.1,15.5,10.5,15.4z"
				/>
			<path class="st53" d="M20.3,7.5c-0.4-0.2-0.2,0.3-0.7,0.3S18.9,7.6,18.5,8c-0.3,0.2-0.5,0.5-0.7,0.8c-0.1,0.1-1.2,1,0.1,0.3
				S21,7.8,20.3,7.5z"/>
			<path class="st54" d="M25.1,7.7c-0.3,0-0.4-0.5-0.7-0.1s-0.4,0.4-0.1,0.4s0.4,0.3,0.5,0.3s-0.1,0.2,0.3,0.1S26.9,7.6,25.1,7.7z"
				/>
			<path class="st54" d="M29.9,7.7c-0.4,0-0.9,0-1.3,0.2c-0.2,0.1,0.2,0.3,0.2,0.3s0.3-0.2,0.5-0.1c0.2,0.1,0.4,0.2,0.6,0.2
				c0.1,0-0.3,0.1,0.2,0.2s0.6,0,0.7-0.1S31.4,7.8,29.9,7.7z"/>
			<path class="st55" d="M37.4,9.3c0,0-0.1-0.2-0.3-0.1S36.8,9.4,37,9.5c0.1,0.1,0.2,0.2,0.4,0.3c0.2,0.1,0.4,0.3,0.6,0.5
				c0,0-0.2,0.3,0.2,0.1S38.2,9.3,37.4,9.3z"/>
			<path class="st56" d="M23.6,5.2c-0.1,0-0.5-0.2-0.6-0.1s-0.3-0.1-0.1,0.1c0.1,0.1,0.2,0.2,0.4,0.3c0.2,0,0,0.2,0.6,0.1
				S24.5,5.1,23.6,5.2z"/>
			<path class="st55" d="M13.7,10.2c0,0,0.3,0-0.7,0.8s-1.5,1.1-1.3,1.2c0.4,0.1,0.8,0,1.2-0.1c0.3-0.2,0,0,0.5-0.7
				S15.7,10,13.7,10.2z"/>
			<path class="st57" d="M22.1,5.3c-0.8-0.2-2.2,0.4-1.5,0.4s0.7,0.1,1,0S22.5,5.4,22.1,5.3z"/>
			<path class="st57" d="M33.4,6.6c-0.1,0-0.7-0.3-1,0S30.8,6.7,32.2,7c0.5,0.1,1.1,0.3,1.6,0.5c0.3,0.1,0.2-0.4,0.6,0
				s0.9,0.4,0.8,0.3S34,6.6,33.4,6.6z"/>
			<path class="st57" d="M39.4,10.9c-0.2,0-0.4-0.9-0.2,0s-0.1,0.8,0.6,1.3s0.4,0.4,0.7,0.7s0.6,0.9,0.5,0.4S40,10.9,39.4,10.9z"/>
			<path class="st57" d="M41.9,16.9c-0.1,0.3-0.1,0.6,0,0.8c0.1,0.5-0.2,0.3,0.1,0.5s0.6,0.1,0.4-0.1S42.7,16.7,41.9,16.9z"/>
			<path class="st58" d="M10.2,13.2c-0.3,0-0.6,1.1-0.7,1.4s0.4,1,0.5,0.3s-0.1-1,0.1-1s-0.1-0.2,0.3-0.4S10.9,13.1,10.2,13.2z"/>
			<path class="st57" d="M12.9,11.4c-0.4,0.2,0.1-0.1-0.5,0.4s-0.7,0.2-0.7,0.5s-0.4,1,0.3,0.4s0.6-0.4,0.9-0.7s0.6-0.4,0.7-0.5
				S13.9,10.9,12.9,11.4z"/>
			<path class="st57" d="M18.6,7.2c-0.8,1-1.2,0-1.9,0.9S14.6,9.8,16,9s1.3-1.1,1.4-1s0.5-0.6,0.7-0.4S18,7.5,18.6,7.4
				s1-0.1,1.1-0.2s0.9,0.2,0.6-0.3s-0.5-0.8-0.8-0.6C19.2,6.6,18.9,6.8,18.6,7.2z"/>
			<path class="st58" d="M30,5.8c-0.3,0-0.5-0.3-1.4,0.1s-0.8,0.7-0.4,0.7s0.5-0.4,0.8-0.4s0.5-0.1,0.6-0.1s0.5-0.1,0.7,0.1
				c0.2,0.2,0.5,0.3,0.8,0.2h0.3C31.4,6.5,31.6,5.7,30,5.8z"/>
			<path class="st57" d="M10.1,21.8c0.3-0.2-0.2,0.4-0.1,0.6s-0.1,0,0.3,0.5s0.8,1.3,0.7,0.7s-0.1,0.1-0.4-0.8s-0.4-0.7-0.4-1.2
				c0-0.3,0-0.7-0.2-1c-0.1-0.1,0-0.7-0.3-0.7s-0.5-0.3-0.4,0.3S9.7,22.1,10.1,21.8z"/>
			<path class="st58" d="M9.4,15.4c-0.4,0.1-0.3,0.7-0.2,1s0,0.2,0.2,0.6s-0.1,0.4,0,0.7s0.4,1.1,0.3,0.4s-0.1-0.3,0-1
				s-0.2-0.6-0.1-0.7S10.3,15.2,9.4,15.4z"/>
			<path class="st57" d="M15.2,8.9c-0.6,0.3-1.1,0.8-1.5,1.3c-0.3,0.3-0.8,0.2-0.3,0.3c0.3,0.1,0.5,0,0.8-0.1c0,0-0.1-0.1,0.1-0.2
				c0.4-0.2,0.8-0.4,1.2-0.6C15.5,9.5,17.2,8,15.2,8.9z"/>
			<path class="st59" d="M35,9.9c0,0,0.1-0.1-0.6-0.4S34,9.3,33.1,9s-0.6-0.7-1.3-0.5c-0.3,0.1-0.7,0.2-1,0.3
				c-0.1,0.1-0.6,0.2-0.7,0.4s-1,0.3,0.3,0.2l1.5-0.1c0.4,0.1,0.8,0.3,1.2,0.5c0.8,0.4,1.5,0.7,1.8,0.6S36.6,10,35,9.9z"/>
			<path class="st60" d="M40,13.1c-0.1,0,0.2,0.3-0.2-0.4s0-0.3-0.6-0.8s-0.1,0-0.9-0.7s-0.6-1.1-1.3-1.1s-0.7,0.1-0.8,0.2
				s-0.8-0.1,0.4,0.6s1.5,0.6,2.2,1.7s0-0.2,0.9,1.2c0.5,0.7,0.9,1.5,1.3,2.3c0.1,0.4,0,1.1,0.3,1s0.8-0.1,0.3-1.3S41,13.2,40,13.1z
				"/>
			<path class="st61" d="M30.5,8.7c-0.4-0.9-0.4,0.3-1.5,0S27.9,8,27.7,8.4s-0.2,0.7,0.1,0.7c0.4,0,0.8,0,1.3,0
				C29.4,9.1,30.7,9.3,30.5,8.7z"/>
			<path class="st62" d="M26.3,7.1c-0.7,0.1-1.1-0.1-1.8-0.1s-1.4,0.2-1.4,0.3s0-0.3-0.2,0.2s0.2,0.6,0.5,0.5s-0.2,0.2,0.3-0.1
				c0.2-0.2,0.5-0.3,0.8-0.4c0.3-0.1-0.2-0.2,0.6-0.2c0.3,0,0.6,0.1,0.9,0.2c0.3,0.1,0.6,0.2,0.9,0.2C27.4,7.7,28.6,6.7,26.3,7.1z"
				/>
			<path class="st59" d="M19.5,8.6C18.7,8.7,18.2,8,18,9s-0.3,0.8-0.7,1s-0.3-0.6-0.8,0.4s-0.1,1.1,0.2,1c0.3-0.1,0.6-0.1,0.9-0.3
				c0.4-0.1,0.7-0.3,0.9-0.7c0.2-0.4,0.3-0.8,0.7-0.8s0.5-0.1,0.9-0.1s0.8-0.1,0.9-0.3S21.2,8.4,19.5,8.6z"/>
			<path class="st31" d="M14.8,11.6c0,0,0-0.1-0.2,0.1s-0.1,0.3,0,0.3s0.3,0.1,0.4-0.1S16.2,11.7,14.8,11.6z"/>
			<path class="st63" d="M29.2,9.8c-0.1,0-1-0.1-0.7,0.1c0.2,0.1,0.5,0.2,0.8,0.3l0.3,0.1l0.4,0.1C29.9,10.3,30.4,9.2,29.2,9.8z"/>
			<path class="st33" d="M33,11.9c-0.2,0-0.7-0.4-0.4,0.1s0.8,0.2,0.8,0.3S33.4,11.8,33,11.9z"/>
			<path class="st31" d="M26.3,14.9c-0.2,0.1-0.8,0-0.6,0.3s0.2,0.3,0.3,0.3s-0.1,0,0.3-0.1s0.4-0.1,0.7-0.1s0.6,0.4,0.5,0
				S27.1,14.6,26.3,14.9z"/>
			<path class="st33" d="M33.9,17.9c-0.1-0.1-0.6-0.8-0.8-0.5s-0.3,0.3-0.1,0.4c0.2,0.1,0.3,0.2,0.5,0.3
				C34,18.3,33.9,17.9,33.9,17.9z"/>
		</g>
	</g>
</g>
</svg>
