<svg width="100" height="101" viewBox="0 0 100 101" fill="none" xmlns="http://www.w3.org/2000/svg">
<path d="M12.0536 65.5201L27.0647 55.4754L45.7031 67.9196V87.9531L12.0536 65.5201ZM8.59375 57.4844V43.0871L19.3638 50.2857L8.59375 57.4844ZM54.2969 87.9531V67.9196L72.9353 55.4754L87.9464 65.5201L54.2969 87.9531ZM50 60.442L34.8214 50.2857L50 40.1295L65.1786 50.2857L50 60.442ZM27.0647 45.096L12.0536 35.0513L45.7031 12.6183V32.6518L27.0647 45.096ZM80.6362 50.2857L91.4063 43.0871V57.4844L80.6362 50.2857ZM72.9353 45.096L54.2969 32.6518V12.6183L87.9464 35.0513L72.9353 45.096ZM100 35.0513C100 33.6562 99.2746 32.2612 98.1027 31.4799L52.3996 1.01116C51.6741 0.564729 50.8371 0.285707 50 0.285707C49.1629 0.285707 48.3259 0.564729 47.6004 1.01116L1.89732 31.4799C0.725446 32.2612 0 33.6562 0 35.0513V65.5201C0 66.9152 0.725446 68.3103 1.89732 69.0915L47.6004 99.5603C48.3259 100.007 49.1629 100.286 50 100.286C50.8371 100.286 51.6741 100.007 52.3996 99.5603L98.1027 69.0915C99.2746 68.3103 100 66.9152 100 65.5201V35.0513Z" fill="#771FA0"/>
</svg>
