<svg width="88" height="101" viewBox="0 0 88 101" fill="none" xmlns="http://www.w3.org/2000/svg">
<path d="M58.0078 47.9609C58.0078 46.3984 57.4219 45.2266 56.4453 44.0547C55.4688 43.0781 54.2969 42.4922 52.9297 42.4922C51.3672 42.4922 50.1953 43.0781 49.2188 44.0547C48.2422 45.2266 47.8516 46.3984 47.8516 47.9609C47.8516 49.5234 48.2422 50.8906 49.2188 52.0625C50.1953 53.2344 51.3672 53.625 52.9297 53.625C54.2969 53.625 55.4688 53.2344 56.4453 52.0625C57.4219 50.8906 58.0078 49.5234 58.0078 47.9609ZM34.7656 42.4922C36.1328 42.4922 37.3047 43.0781 38.2812 44.0547C39.2578 45.2266 39.8438 46.3984 39.8438 47.9609C39.8438 49.5234 39.2578 50.8906 38.2812 52.0625C37.3047 53.2344 36.1328 53.625 34.7656 53.625C33.2031 53.625 32.0312 53.2344 31.0547 52.0625C30.0781 50.8906 29.6875 49.5234 29.6875 47.9609C29.6875 46.3984 30.0781 45.2266 31.0547 44.0547C32.0312 43.0781 33.2031 42.4922 34.7656 42.4922ZM87.5 10.8516C87.5 8.11719 86.3281 5.57812 84.375 3.625C82.4219 1.67188 80.0781 0.5 77.3438 0.5H10.1562C7.42188 0.5 4.88281 1.67188 2.92969 3.625C0.976562 5.57812 0 8.11719 0 10.8516V78.4297C0 81.3594 0.976562 83.8984 2.92969 85.8516C4.88281 87.8047 7.42188 88.7812 10.1562 88.7812H66.9922L64.2578 79.4062L67.9688 82.9219C73.6328 88.1953 78.5156 92.6875 82.6172 96.2031L87.5 100.5V10.8516ZM73.2422 58.1172L72.4609 59.2891C71.6797 60.2656 70.7031 61.0469 69.7266 61.8281C68.1641 63 66.6016 63.9766 65.0391 64.3672C62.6953 65.3438 60.3516 65.7344 58.0078 65.7344L54.6875 61.8281C56.6406 61.2422 58.3984 60.4609 59.9609 59.2891C60.9375 58.7031 61.9141 57.9219 62.8906 56.9453L63.6719 55.7734C61.7188 57.1406 59.9609 58.1172 58.0078 58.7031C52.7344 61.0469 47.2656 61.8281 41.4062 61.4375C35.9375 61.0469 31.0547 59.4844 26.7578 56.9453L24.6094 55.7734L25.5859 56.9453C26.3672 57.7266 27.1484 58.5078 28.3203 59.2891C29.8828 60.4609 31.4453 61.2422 33.3984 61.6328L30.0781 65.7344C27.5391 65.7344 25.1953 65.3438 23.0469 64.3672C21.2891 63.9766 19.7266 63 18.3594 61.8281C17.1875 61.0469 16.4062 60.2656 15.625 59.2891L14.8438 58.1172C14.8438 53.4297 15.4297 48.5469 16.7969 43.4688C17.5781 39.9531 18.5547 36.4375 20.1172 33.1172L22.0703 29.0156C24.0234 27.4531 26.3672 26.2812 28.9062 25.3047C30.4688 24.7188 32.2266 24.3281 33.9844 23.9375L36.1328 23.7422L36.5234 24.3281C33.7891 25.1094 31.4453 26.0859 29.1016 27.2578C27.5391 28.0391 25.9766 29.0156 24.8047 29.7969L23.4375 30.9688L26.3672 29.4062C32.2266 27.0625 38.4766 25.8906 45.1172 25.8906C51.7578 26.0859 57.8125 27.8438 63.6719 30.9688C62.8906 30.3828 61.9141 29.6016 60.7422 28.8203C58.0078 27.2578 54.8828 25.6953 51.3672 24.5234L51.9531 23.7422C53.125 23.7422 54.4922 23.9375 56.25 24.3281C59.7656 25.3047 62.8906 26.8672 66.0156 29.0156C67.1875 31.3594 68.3594 34.0938 69.7266 37.6094C72.0703 44.6406 73.2422 51.4766 73.2422 58.1172Z" fill="#771FA0"/>
</svg>
