<svg width="100" height="75" viewBox="0 0 100 75" fill="none" xmlns="http://www.w3.org/2000/svg">
<path d="M90.625 0C93.1641 0 95.3125 0.976562 97.2656 2.73438C99.0234 4.6875 100 6.83594 100 9.375V65.625C100 68.3594 99.0234 70.5078 97.2656 72.2656C95.3125 74.2188 93.1641 75 90.625 75H9.375C6.64062 75 4.49219 74.2188 2.73438 72.2656C0.78125 70.5078 0 68.3594 0 65.625V9.375C0 6.83594 0.78125 4.6875 2.73438 2.73438C4.49219 0.976562 6.64062 0 9.375 0H90.625ZM90.625 9.375H9.375V17.3828C13.8672 21.0938 22.6562 27.9297 35.7422 38.0859L37.5 39.6484C40.0391 41.9922 42.1875 43.5547 43.75 44.3359C46.0938 46.0938 48.2422 46.875 50 46.875C51.5625 46.875 53.7109 46.0938 56.25 44.3359C57.8125 43.5547 59.7656 41.9922 62.5 39.6484L64.2578 38.0859C77.1484 28.125 85.9375 21.2891 90.625 17.3828V9.375ZM9.375 65.625H90.625V29.2969L67.9688 47.2656C64.6484 50 61.9141 51.9531 59.9609 53.125C56.4453 55.2734 53.125 56.25 50 56.25C46.875 56.25 43.3594 55.2734 39.8438 53.125C37.8906 51.9531 35.1562 50 31.8359 47.2656L9.375 29.2969V65.625Z" fill="black"/>
</svg>
