<svg width="93" height="80" viewBox="0 0 93 80" fill="none" xmlns="http://www.w3.org/2000/svg">
<path d="M35.7143 54.1429C35.7143 50.0692 33.5938 43.4286 28.5714 43.4286C23.5491 43.4286 21.4286 50.0692 21.4286 54.1429C21.4286 58.2165 23.5491 64.8571 28.5714 64.8571C33.5938 64.8571 35.7143 58.2165 35.7143 54.1429ZM71.4286 54.1429C71.4286 50.0692 69.308 43.4286 64.2857 43.4286C59.2634 43.4286 57.1429 50.0692 57.1429 54.1429C57.1429 58.2165 59.2634 64.8571 64.2857 64.8571C69.308 64.8571 71.4286 58.2165 71.4286 54.1429ZM80.3571 54.1429C80.3571 71.2188 64.7321 73.8415 51.1161 73.8415H41.7411C28.125 73.8415 12.5 71.2188 12.5 54.1429C12.5 45.6049 17.6897 38.0714 26.7857 38.0714C30.4688 38.0714 34.0402 38.7411 37.6674 39.2433C40.5692 39.6897 43.471 39.8571 46.4286 39.8571C49.3862 39.8571 52.2879 39.6897 55.1897 39.2433C58.8728 38.7411 62.3884 38.0714 66.0714 38.0714C75.1674 38.0714 80.3571 45.6049 80.3571 54.1429ZM92.8571 44.3214C92.8571 36.1741 90.625 28.4174 85.2679 22.1116C86.2723 19.0982 86.7746 15.9174 86.7746 12.7366C86.7746 8.55134 85.8259 4.36607 83.9286 0.571427C75.2232 0.571427 69.5871 4.31027 62.9464 9.5C57.8683 8.27232 52.567 7.71428 47.3214 7.71428C41.5179 7.71428 35.7143 8.32812 30.0781 9.66741C23.3817 4.42187 17.7455 0.571427 8.92857 0.571427C7.03125 4.36607 6.08259 8.55134 6.08259 12.7366C6.08259 15.9174 6.58482 19.154 7.58929 22.2232C2.23214 28.4732 0 36.1741 0 44.3214C0 50.5156 0.613839 57.1562 3.45982 62.7924C11.1049 77.8594 32.5893 79.1429 47.3214 79.1429C61.8304 79.1429 82.0871 77.692 89.4531 62.7924C92.2433 57.1004 92.8571 50.5156 92.8571 44.3214Z" fill="#771FA0"/>
</svg>
