<svg width="69" height="37" viewBox="0 0 69 37" fill="none" xmlns="http://www.w3.org/2000/svg">
<path d="M29.7143 21C29.7143 21.6429 29.2143 22.1429 28.5714 22.1429H21.7143V29C21.7143 29.6429 21.2143 30.1429 20.5714 30.1429H16C15.3571 30.1429 14.8571 29.6429 14.8571 29V22.1429H8C7.35714 22.1429 6.85714 21.6429 6.85714 21V16.4286C6.85714 15.7857 7.35714 15.2857 8 15.2857H14.8571V8.42857C14.8571 7.78571 15.3571 7.28571 16 7.28571H20.5714C21.2143 7.28571 21.7143 7.78571 21.7143 8.42857V15.2857H28.5714C29.2143 15.2857 29.7143 15.7857 29.7143 16.4286V21ZM50.2857 23.2857C50.2857 25.8214 48.25 27.8571 45.7143 27.8571C43.1786 27.8571 41.1429 25.8214 41.1429 23.2857C41.1429 20.75 43.1786 18.7143 45.7143 18.7143C48.25 18.7143 50.2857 20.75 50.2857 23.2857ZM59.4286 14.1429C59.4286 16.6786 57.3929 18.7143 54.8571 18.7143C52.3214 18.7143 50.2857 16.6786 50.2857 14.1429C50.2857 11.6071 52.3214 9.57143 54.8571 9.57143C57.3929 9.57143 59.4286 11.6071 59.4286 14.1429ZM68.5714 18.7143C68.5714 8.60714 60.3929 0.42857 50.2857 0.42857H18.2857C8.17857 0.42857 0 8.60714 0 18.7143C0 28.8214 8.17857 37 18.2857 37C22.9286 37 27.1429 35.25 30.3571 32.4286H38.2143C41.4286 35.25 45.6429 37 50.2857 37C60.3929 37 68.5714 28.8214 68.5714 18.7143Z" fill="black"/>
</svg>
