<svg width="86" height="83" viewBox="0 0 86 83" fill="none" xmlns="http://www.w3.org/2000/svg">
<path d="M19.4754 27.1629H1.06027V82.4643H19.4754V27.1629ZM20.6473 10.0871C20.5915 4.6741 16.6853 0.54464 10.3795 0.54464C4.12946 0.54464 0 4.6741 0 10.0871C0 15.3884 3.96205 19.6295 10.1563 19.6295H10.2679C16.6853 19.6295 20.7031 15.3884 20.6473 10.0871ZM85.7143 50.7679C85.7143 33.8036 76.6741 25.8795 64.5647 25.8795C54.6317 25.8795 50.279 31.404 47.8795 35.1987H47.9911V27.1629H29.6317C29.6317 27.1629 29.8549 32.3527 29.6317 82.4643H47.9911V51.6049C47.9911 49.9308 48.1585 48.3125 48.6049 47.0848C49.9442 43.7924 52.9576 40.3884 58.0357 40.3884C64.6763 40.3884 67.3549 45.4665 67.3549 52.8884V82.4643H85.7143V50.7679Z" fill="#771FA0"/>
</svg>
