<svg width="75" height="101" viewBox="0 0 75 101" fill="none" xmlns="http://www.w3.org/2000/svg">
<path d="M37.5 0.5C44.1406 0.5 50.3906 2.25781 56.25 5.57812C61.9141 9.09375 66.4062 13.5859 69.9219 19.25C73.2422 25.1094 75 31.3594 75 38C75 41.9062 74.4141 45.2266 73.6328 48.1562C72.6562 51.2812 70.8984 54.9922 68.3594 59.4844C66.4062 62.6094 62.6953 68.8594 57.0312 77.8438L45.5078 96.0078C44.3359 97.9609 42.5781 99.3281 40.625 100.109C38.4766 100.891 36.3281 100.891 34.375 100.109C32.2266 99.3281 30.6641 97.9609 29.4922 96.0078L17.9688 77.8438C12.1094 68.8594 8.39844 62.8047 6.64062 59.6797C3.90625 54.9922 2.14844 51.2812 1.36719 48.1562C0.390625 45.2266 0 41.9062 0 38C0 31.3594 1.5625 25.1094 5.07812 19.25C8.39844 13.5859 12.8906 9.09375 18.75 5.57812C24.4141 2.25781 30.6641 0.5 37.5 0.5ZM37.5 91.125L49.8047 71.5938C54.8828 63.3906 58.3984 57.7266 60.1562 54.9922C62.3047 51.0859 63.6719 48.1562 64.4531 45.8125C65.2344 43.6641 65.625 41.125 65.625 38C65.625 32.9219 64.2578 28.2344 61.7188 23.9375C59.1797 19.6406 55.8594 16.3203 51.5625 13.7812C47.2656 11.2422 42.5781 9.875 37.5 9.875C32.4219 9.875 27.7344 11.2422 23.4375 13.7812C19.1406 16.3203 15.625 19.6406 13.0859 23.9375C10.5469 28.2344 9.375 32.9219 9.375 38C9.375 41.125 9.57031 43.6641 10.3516 46.0078C11.1328 48.3516 12.6953 51.2812 15.0391 55.1875C16.6016 57.9219 19.9219 63.5859 25.1953 71.7891C30.0781 79.6016 34.1797 86.0469 37.5 91.125ZM21.875 38C21.875 42.2969 23.2422 46.0078 26.3672 49.1328C29.4922 52.2578 33.2031 53.625 37.5 53.625C41.7969 53.625 45.3125 52.2578 48.4375 49.1328C51.5625 46.0078 53.125 42.2969 53.125 38C53.125 33.7031 51.5625 30.1875 48.4375 27.0625C45.3125 23.9375 41.7969 22.375 37.5 22.375C33.2031 22.375 29.4922 23.9375 26.3672 27.0625C23.2422 30.1875 21.875 33.7031 21.875 38Z" fill="black"/>
</svg>
